SourceSerifPro_3.ufo
<glyph name="numbersign" format="2">
	<unicode hex="0023"/>
	<advance width="583"/>
	<outline>
		<contour>
			<point x="113" y="0" type="line"/>
			<point x="168" y="0" type="line"/>
			<point x="264" y="640" type="line"/>
			<point x="209" y="640" type="line"/>
		</contour>
		<contour>
			<point x="16" y="271" type="line"/>
			<point x="16" y="151" type="line"/>
			<point x="534" y="151" type="line"/>
			<point x="534" y="271" type="line"/>
		</contour>
		<contour>
			<point x="568" y="367" type="line"/>
			<point x="568" y="487" type="line"/>
			<point x="50" y="487" type="line"/>
			<point x="50" y="367" type="line"/>
		</contour>
		<contour>
			<point x="318" y="0" type="line"/>
			<point x="374" y="0" type="line"/>
			<point x="470" y="640" type="line"/>
			<point x="415" y="640" type="line"/>
		</contour>
	</outline>
</glyph>
<glyph name="J" format="1">
	<unicode hex="004A"/>
	<advance width="404"/>
	<outline>
		<contour>
			<point x="107" y="652" type="line"/>
			<point x="111" y="373"/>
			<point x="115" y="163"/>
			<point x="115" y="49" type="curve" smooth="yes"/>
			<point x="115" y="-65"/>
			<point x="113" y="-129"/>
			<point x="88" y="-152" type="curve"/>
			<point x="76" y="-160" type="line"/>
			<point x="85" y="-169" type="line"/>
			<point x="106" y="-142" type="line"/>
			<point x="72" y="-90" type="line" smooth="yes"/>
			<point x="41" y="-43"/>
			<point x="18" y="-24"/>
			<point x="-16" y="-24" type="curve" smooth="yes"/>
			<point x="-65" y="-24"/>
			<point x="-103" y="-59"/>
			<point x="-103" y="-108" type="curve"/>
			<point x="-74" y="-154"/>
			<point x="-31" y="-177"/>
			<point x="31" y="-177" type="curve" smooth="yes"/>
			<point x="125" y="-177"/>
			<point x="204" y="-129"/>
			<point x="251" y="-48" type="curve" smooth="yes"/>
			<point x="291" y="22"/>
			<point x="308" y="125"/>
			<point x="308" y="272" type="curve" smooth="yes"/>
			<point x="308" y="355" type="line" smooth="yes"/>
			<point x="308" y="455"/>
			<point x="308" y="555"/>
			<point x="311" y="652" type="curve"/>
		</contour>
		<contour>
			<point x="30" y="617" type="line"/>
			<point x="181" y="602" type="line"/>
			<point x="224" y="602" type="line"/>
			<point x="379" y="617" type="line"/>
			<point x="379" y="652" type="line"/>
			<point x="30" y="652" type="line"/>
		</contour>
		<contour>
			<point name="aboveUC" x="203" y="682" type="move"/>
		</contour>
		<contour>
			<point name="belowLC" x="117" y="-169" type="move"/>
		</contour>
	</outline>
</glyph>
<glyph name="Q" format="2">
	<unicode hex="0051"/>
	<advance width="700"/>
	<outline>
		<contour>
			<point x="493" y="-202" type="curve" smooth="yes"/>
			<point x="548" y="-202"/>
			<point x="601" y="-186"/>
			<point x="632" y="-165" type="curve"/>
			<point x="618" y="-135" type="line"/>
			<point x="597" y="-145"/>
			<point x="580" y="-149"/>
			<point x="559" y="-149" type="curve" smooth="yes"/>
			<point x="475" y="-149"/>
			<point x="424" y="-86"/>
			<point x="441" y="13" type="curve"/>
			<point x="253" y="13" type="line"/>
			<point x="253" y="8" type="line" smooth="yes"/>
			<point x="253" y="-119"/>
			<point x="338" y="-202"/>
		</contour>
		<component base="O"/>
	</outline>
	<anchor name="aboveUC" x="350" y="682"/>
</glyph>
<glyph name="V" format="1">
	<unicode hex="0056"/>
	<advance width="656"/>
	<outline>
		<contour>
			<point x="567" y="602" type="line"/>
			<point x="656" y="622" type="line"/>
			<point x="656" y="652" type="line"/>
			<point x="445" y="652" type="line"/>
			<point x="445" y="622" type="line"/>
			<point x="554" y="602" type="line"/>
		</contour>
		<contour>
			<point x="197" y="602" type="line"/>
			<point x="348" y="622" type="line"/>
			<point x="348" y="652" type="line"/>
			<point x="5" y="652" type="line"/>
			<point x="5" y="617" type="line"/>
			<point x="156" y="602" type="line"/>
		</contour>
		<contour>
			<point x="273" y="0" type="line"/>
			<point x="383" y="0" type="line"/>
			<point x="604" y="652" type="line"/>
			<point x="544" y="652" type="line"/>
			<point x="354" y="0" type="line"/>
			<point x="412" y="165" type="line"/>
			<point x="251" y="652" type="line"/>
			<point x="38" y="652" type="line"/>
		</contour>
		<contour>
			<point name="aboveUC" x="368" y="682" type="move"/>
		</contour>
		<contour>
			<point name="belowLC" x="328" y="-22" type="move"/>
		</contour>
	</outline>
</glyph>
<glyph name="W" format="2">
	<unicode hex="0057"/>
	<advance width="989"/>
	<outline>
		<contour>
			<point x="892" y="602" type="line"/>
			<point x="979" y="617" type="line"/>
			<point x="979" y="652" type="line"/>
			<point x="774" y="652" type="line"/>
			<point x="774" y="617" type="line"/>
			<point x="863" y="602" type="line"/>
		</contour>
		<contour>
			<point x="590" y="602" type="line"/>
			<point x="714" y="617" type="line"/>
			<point x="714" y="652" type="line"/>
			<point x="404" y="652" type="line"/>
			<point x="404" y="617" type="line"/>
			<point x="514" y="602" type="line"/>
		</contour>
		<contour>
			<point x="189" y="602" type="line"/>
			<point x="331" y="617" type="line"/>
			<point x="331" y="652" type="line"/>
			<point x="5" y="652" type="line"/>
			<point x="5" y="617" type="line"/>
			<point x="150" y="602" type="line"/>
		</contour>
		<contour>
			<point x="309" y="0" type="line"/>
			<point x="374" y="147" type="line"/>
			<point x="248" y="652" type="line"/>
			<point x="38" y="652" type="line"/>
			<point x="236" y="0" type="line"/>
			<point x="346" y="0" type="line"/>
			<point x="540" y="651" type="line"/>
			<point x="468" y="486" type="line"/>
			<point x="613" y="0" type="line"/>
			<point x="723" y="0" type="line"/>
			<point x="920" y="652" type="line"/>
			<point x="860" y="652" type="line"/>
			<point x="690" y="0" type="line"/>
			<point x="750" y="147" type="line"/>
			<point x="614" y="652" type="line"/>
			<point x="490" y="652" type="line"/>
		</contour>
	</outline>
	<anchor name="aboveUC" x="553" y="682"/>
	<anchor name="belowLC" x="492" y="-22"/>
</glyph>
<glyph name="j" format="2">
	<unicode hex="006A"/>
	<advance width="320"/>
	<outline>
		<contour>
			<point x="163" y="562" type="curve" smooth="yes"/>
			<point x="214" y="562"/>
			<point x="255" y="598"/>
			<point x="255" y="648" type="curve" smooth="yes"/>
			<point x="255" y="698"/>
			<point x="214" y="734"/>
			<point x="163" y="734" type="curve" smooth="yes"/>
			<point x="112" y="734"/>
			<point x="71" y="698"/>
			<point x="71" y="648" type="curve" smooth="yes"/>
			<point x="71" y="598"/>
			<point x="112" y="562"/>
		</contour>
		<contour>
			<point x="70" y="86" type="line" smooth="yes"/>
			<point x="70" y="-10"/>
			<point x="82" y="-116"/>
			<point x="72" y="-164" type="curve" smooth="yes"/>
			<point x="64" y="-203"/>
			<point x="41" y="-214"/>
			<point x="7" y="-214" type="curve" smooth="yes"/>
			<point x="-12" y="-214"/>
			<point x="-28" y="-213"/>
			<point x="-75" y="-205" type="curve"/>
			<point x="4" y="-225" type="line"/>
			<point x="77" y="-211" type="line"/>
			<point x="54" y="-144" type="line" smooth="yes"/>
			<point x="36" y="-91"/>
			<point x="1" y="-72"/>
			<point x="-41" y="-72" type="curve" smooth="yes"/>
			<point x="-83" y="-72"/>
			<point x="-129" y="-104"/>
			<point x="-132" y="-158" type="curve"/>
			<point x="-111" y="-198"/>
			<point x="-67" y="-232"/>
			<point x="22" y="-232" type="curve" smooth="yes"/>
			<point x="78" y="-232"/>
			<point x="135" y="-218"/>
			<point x="193" y="-160" type="curve" smooth="yes"/>
			<point x="240" y="-113"/>
			<point x="260" y="-67"/>
			<point x="260" y="35" type="curve" smooth="yes"/>
			<point x="260" y="343" type="line"/>
			<point x="264" y="494" type="line"/>
			<point x="252" y="503" type="line"/>
			<point x="13" y="438" type="line"/>
			<point x="13" y="417" type="line"/>
			<point x="67" y="408" type="line"/>
			<point x="69" y="368"/>
			<point x="70" y="337"/>
			<point x="70" y="282" type="curve" smooth="yes"/>
		</contour>
	</outline>
	<anchor name="aboveLC" x="162" y="728"/>
	<anchor name="belowLC" x="82" y="-249"/>
</glyph>
<glyph name="o" format="2">
	<unicode hex="006F"/>
	<advance width="572"/>
	<outline>
		<contour>
			<point x="286" y="-16" type="curve" smooth="yes"/>
			<point x="457" y="-16"/>
			<point x="550" y="97"/>
			<point x="550" y="249" type="curve" smooth="yes"/>
			<point x="550" y="401"/>
			<point x="440" y="503"/>
			<point x="286" y="503" type="curve" smooth="yes"/>
			<point x="132" y="503"/>
			<point x="22" y="398"/>
			<point x="22" y="249" type="curve" smooth="yes"/>
			<point x="22" y="100"/>
			<point x="114" y="-16"/>
		</contour>
		<contour>
			<point x="286" y="19" type="curve" smooth="yes"/>
			<point x="242" y="19"/>
			<point x="222" y="86"/>
			<point x="222" y="246" type="curve" smooth="yes"/>
			<point x="222" y="405"/>
			<point x="242" y="468"/>
			<point x="286" y="468" type="curve" smooth="yes"/>
			<point x="330" y="468"/>
			<point x="350" y="405"/>
			<point x="350" y="246" type="curve" smooth="yes"/>
			<point x="350" y="86"/>
			<point x="330" y="19"/>
		</contour>
	</outline>
	<anchor name="aboveLC" x="286" y="520"/>
	<anchor name="belowLC" x="283" y="-22"/>
	<anchor name="hornLC" x="419" y="489"/>
	<anchor name="ogonek" x="366" y="0"/>
</glyph>
<glyph name="r" format="1">
	<unicode hex="0072"/>
	<advance width="483"/>
	<outline>
		<contour>
			<point x="67" y="0" type="curve"/>
			<point x="263" y="0" type="line"/>
			<point x="261" y="45"/>
			<point x="260" y="148"/>
			<point x="260" y="210" type="curve" smooth="yes"/>
			<point x="260" y="370" type="line"/>
			<point x="252" y="494" type="line"/>
			<point x="240" y="503" type="line"/>
			<point x="13" y="434" type="line"/>
			<point x="13" y="413" type="line"/>
			<point x="67" y="404" type="line"/>
			<point x="69" y="364"/>
			<point x="70" y="348"/>
			<point x="70" y="293" type="curve" smooth="yes"/>
			<point x="70" y="210" type="line" smooth="yes"/>
			<point x="70" y="148"/>
			<point x="69" y="45"/>
		</contour>
		<contour>
			<point x="21" y="0" type="line"/>
			<point x="339" y="0" type="line"/>
			<point x="339" y="31" type="line"/>
			<point x="249" y="41" type="line"/>
			<point x="111" y="41" type="line"/>
			<point x="21" y="31" type="line"/>
		</contour>
		<contour>
			<point x="173" y="283" type="line"/>
			<point x="260" y="276" type="line"/>
			<point x="271" y="346"/>
			<point x="291" y="383"/>
			<point x="332" y="430" type="curve"/>
			<point x="297" y="424" type="line"/>
			<point x="317" y="394" type="line" smooth="yes"/>
			<point x="343" y="354"/>
			<point x="367" y="329"/>
			<point x="407" y="329" type="curve" smooth="yes"/>
			<point x="458" y="329"/>
			<point x="480" y="368"/>
			<point x="484" y="413" type="curve"/>
			<point x="475" y="483"/>
			<point x="437" y="503"/>
			<point x="390" y="503" type="curve" smooth="yes"/>
			<point x="333" y="503"/>
			<point x="259" y="440"/>
			<point x="247" y="306" type="curve"/>
			<point x="255" y="341" type="line"/>
			<point x="173" y="341" type="line"/>
		</contour>
		<contour>
			<point name="aboveLC" x="277" y="520" type="move"/>
		</contour>
		<contour>
			<point name="belowLC" x="176" y="-22" type="move"/>
		</contour>
	</outline>
</glyph>
<glyph name="s" format="2">
	<unicode hex="0073"/>
	<advance width="463"/>
	<outline>
		<contour>
			<point x="214" y="-16" type="curve" smooth="yes"/>
			<point x="354" y="-16"/>
			<point x="447" y="43"/>
			<point x="447" y="161" type="curve" smooth="yes"/>
			<point x="447" y="240"/>
			<point x="405" y="293"/>
			<point x="312" y="318" type="curve" smooth="yes"/>
			<point x="256" y="333" type="line" smooth="yes"/>
			<point x="186" y="352"/>
			<point x="176" y="379"/>
			<point x="176" y="403" type="curve" smooth="yes"/>
			<point x="176" y="443"/>
			<point x="209" y="464"/>
			<point x="253" y="464" type="curve" smooth="yes"/>
			<point x="296" y="464"/>
			<point x="311" y="454"/>
			<point x="345" y="434" type="curve"/>
			<point x="345" y="461" type="line"/>
			<point x="292" y="482" type="line"/>
			<point x="344" y="345" type="line"/>
			<point x="406" y="345" type="line"/>
			<point x="414" y="463" type="line"/>
			<point x="359" y="489"/>
			<point x="309" y="503"/>
			<point x="248" y="503" type="curve" smooth="yes"/>
			<point x="104" y="503"/>
			<point x="25" y="430"/>
			<point x="25" y="327" type="curve" smooth="yes"/>
			<point x="25" y="249"/>
			<point x="71" y="198"/>
			<point x="153" y="175" type="curve" smooth="yes"/>
			<point x="207" y="160" type="line" smooth="yes"/>
			<point x="275" y="141"/>
			<point x="288" y="116"/>
			<point x="288" y="85" type="curve" smooth="yes"/>
			<point x="288" y="39"/>
			<point x="254" y="23"/>
			<point x="198" y="23" type="curve" smooth="yes"/>
			<point x="157" y="23"/>
			<point x="126" y="35"/>
			<point x="82" y="63" type="curve"/>
			<point x="82" y="30" type="line"/>
			<point x="141" y="21" type="line"/>
			<point x="107" y="161" type="line"/>
			<point x="36" y="161" type="line"/>
			<point x="24" y="33" type="line"/>
			<point x="78" y="0"/>
			<point x="139" y="-16"/>
		</contour>
	</outline>
	<anchor name="aboveLC" x="245" y="520"/>
	<anchor name="belowLC" x="230" y="-22"/>
	<anchor name="baseLC" x="229" y="0"/>
</glyph>
<glyph name="w" format="1">
	<unicode hex="0077"/>
	<advance width="800"/>
	<outline>
		<contour>
			<point x="427" y="447" type="line"/>
			<point x="478" y="447" type="line"/>
			<point x="575" y="457" type="line"/>
			<point x="575" y="487" type="line"/>
			<point x="328" y="487" type="line"/>
			<point x="328" y="457" type="line"/>
		</contour>
		<contour>
			<point x="152" y="447" type="line"/>
			<point x="275" y="457" type="line"/>
			<point x="275" y="487" type="line"/>
			<point x="-10" y="487" type="line"/>
			<point x="-10" y="457" type="line"/>
			<point x="87" y="447" type="line"/>
		</contour>
		<contour>
			<point x="717" y="447" type="line"/>
			<point x="798" y="457" type="line"/>
			<point x="798" y="487" type="line"/>
			<point x="616" y="487" type="line"/>
			<point x="616" y="457" type="line"/>
			<point x="701" y="447" type="line"/>
		</contour>
		<contour>
			<point x="401" y="487" type="line"/>
			<point x="250" y="0" type="line"/>
			<point x="306" y="148" type="line"/>
			<point x="207" y="487" type="line"/>
			<point x="15" y="487" type="line"/>
			<point x="191" y="0" type="line"/>
			<point x="271" y="0" type="line"/>
			<point x="412" y="391" type="line"/>
			<point x="373" y="365" type="line"/>
			<point x="386" y="306"/>
			<point x="418" y="216"/>
			<point x="497" y="0" type="curve"/>
			<point x="577" y="0" type="line"/>
			<point x="750" y="487" type="line"/>
			<point x="700" y="487" type="line"/>
			<point x="557" y="0" type="line"/>
			<point x="614" y="148" type="line"/>
			<point x="502" y="487" type="line"/>
		</contour>
		<contour>
			<point name="aboveLC" x="424" y="520" type="move"/>
		</contour>
		<contour>
			<point name="belowLC" x="401" y="-22" type="move"/>
		</contour>
	</outline>
</glyph>
<glyph name="braceleft" format="1">
	<unicode hex="007B"/>
	<advance width="334"/>
	<outline>
		<contour>
			<point x="40" y="258" type="line"/>
			<point x="125" y="243"/>
			<point x="139" y="209"/>
			<point x="139" y="170" type="curve" smooth="yes"/>
			<point x="139" y="98"/>
			<point x="79" y="49"/>
			<point x="79" y="-27" type="curve" smooth="yes"/>
			<point x="79" y="-119"/>
			<point x="164" y="-159"/>
			<point x="275" y="-159" type="curve" smooth="yes"/>
			<point x="304" y="-159" type="line"/>
			<point x="304" y="-120" type="line"/>
			<point x="277" y="-117" type="line" smooth="yes"/>
			<point x="242" y="-113"/>
			<point x="219" y="-79"/>
			<point x="219" y="-33" type="curve" smooth="yes"/>
			<point x="219" y="18"/>
			<point x="250" y="77"/>
			<point x="250" y="140" type="curve" smooth="yes"/>
			<point x="250" y="217"/>
			<point x="209" y="275"/>
			<point x="65" y="283" type="curve"/>
			<point x="65" y="273" type="line"/>
			<point x="209" y="281"/>
			<point x="250" y="339"/>
			<point x="250" y="416" type="curve" smooth="yes"/>
			<point x="250" y="479"/>
			<point x="219" y="538"/>
			<point x="219" y="589" type="curve" smooth="yes"/>
			<point x="219" y="635"/>
			<point x="242" y="669"/>
			<point x="277" y="673" type="curve" smooth="yes"/>
			<point x="304" y="676" type="line"/>
			<point x="304" y="715" type="line"/>
			<point x="275" y="715" type="line" smooth="yes"/>
			<point x="164" y="715"/>
			<point x="79" y="675"/>
			<point x="79" y="583" type="curve" smooth="yes"/>
			<point x="79" y="507"/>
			<point x="139" y="458"/>
			<point x="139" y="386" type="curve" smooth="yes"/>
			<point x="139" y="347"/>
			<point x="125" y="313"/>
			<point x="40" y="298" type="curve"/>
		</contour>
	</outline>
</glyph>
<glyph name="sterling" format="2">
	<unicode hex="00A3"/>
	<advance width="560"/>
	<outline>
		<contour>
			<point x="66" y="270" type="line"/>
			<point x="408" y="270" type="line"/>
			<point x="408" y="320" type="line"/>
			<point x="66" y="320" type="line"/>
		</contour>
		<contour>
			<point x="50" y="0" type="line"/>
			<point x="508" y="0" type="line"/>
			<point x="508" y="140" type="line"/>
			<point x="108" y="140" type="line"/>
			<point x="97" y="117" type="line"/>
			<point x="199" y="146"/>
			<point x="253" y="186"/>
			<point x="264" y="257" type="curve" smooth="yes"/>
			<point x="275" y="328"/>
			<point x="239" y="393"/>
			<point x="239" y="476" type="curve" smooth="yes"/>
			<point x="239" y="553"/>
			<point x="278" y="605"/>
			<point x="348" y="605" type="curve" smooth="yes"/>
			<point x="369" y="605"/>
			<point x="390" y="600"/>
			<point x="433" y="587" type="curve"/>
			<point x="344" y="630" type="line"/>
			<point x="361" y="524" type="line" smooth="yes"/>
			<point x="373" y="452"/>
			<point x="405" y="435"/>
			<point x="446" y="435" type="curve" smooth="yes"/>
			<point x="477" y="435"/>
			<point x="503" y="450"/>
			<point x="513" y="490" type="curve"/>
			<point x="505" y="584"/>
			<point x="434" y="640"/>
			<point x="313" y="640" type="curve" smooth="yes"/>
			<point x="192" y="640"/>
			<point x="79" y="587"/>
			<point x="79" y="466" type="curve" smooth="yes"/>
			<point x="79" y="356"/>
			<point x="143" y="333"/>
			<point x="143" y="241" type="curve" smooth="yes"/>
			<point x="143" y="181"/>
			<point x="118" y="147"/>
			<point x="50" y="114" type="curve"/>
		</contour>
	</outline>
</glyph>
<glyph name="currency" format="1">
	<unicode hex="00A4"/>
	<advance width="560"/>
	<outline>
		<contour>
			<point x="391" y="427" type="line"/>
			<point x="454" y="454" type="line" smooth="yes"/>
			<point x="491" y="468"/>
			<point x="536" y="488"/>
			<point x="536" y="532" type="curve" smooth="yes"/>
			<point x="536" y="557"/>
			<point x="515" y="579"/>
			<point x="489" y="579" type="curve" smooth="yes"/>
			<point x="447" y="579"/>
			<point x="426" y="533"/>
			<point x="412" y="496" type="curve" smooth="yes"/>
			<point x="385" y="433" type="line"/>
		</contour>
		<contour>
			<point x="162" y="322" type="curve" smooth="yes"/>
			<point x="162" y="396"/>
			<point x="218" y="448"/>
			<point x="280" y="448" type="curve" smooth="yes"/>
			<point x="346" y="448"/>
			<point x="398" y="396"/>
			<point x="398" y="322" type="curve" smooth="yes"/>
			<point x="398" y="245"/>
			<point x="346" y="196"/>
			<point x="280" y="196" type="curve" smooth="yes"/>
			<point x="218" y="196"/>
			<point x="162" y="245"/>
		</contour>
		<contour>
			<point x="107" y="322" type="curve" smooth="yes"/>
			<point x="107" y="218"/>
			<point x="187" y="148"/>
			<point x="280" y="148" type="curve" smooth="yes"/>
			<point x="375" y="148"/>
			<point x="453" y="219"/>
			<point x="453" y="322" type="curve" smooth="yes"/>
			<point x="453" y="427"/>
			<point x="375" y="496"/>
			<point x="280" y="496" type="curve" smooth="yes"/>
			<point x="187" y="496"/>
			<point x="107" y="427"/>
		</contour>
		<contour>
			<point x="175" y="433" type="line"/>
			<point x="148" y="496" type="line" smooth="yes"/>
			<point x="134" y="533"/>
			<point x="114" y="578"/>
			<point x="70" y="578" type="curve" smooth="yes"/>
			<point x="45" y="578"/>
			<point x="23" y="557"/>
			<point x="23" y="531" type="curve" smooth="yes"/>
			<point x="23" y="489"/>
			<point x="69" y="468"/>
			<point x="106" y="454" type="curve" smooth="yes"/>
			<point x="169" y="427" type="line"/>
		</contour>
		<contour>
			<point x="169" y="217" type="line"/>
			<point x="106" y="190" type="line" smooth="yes"/>
			<point x="69" y="176"/>
			<point x="24" y="156"/>
			<point x="24" y="112" type="curve" smooth="yes"/>
			<point x="24" y="87"/>
			<point x="45" y="65"/>
			<point x="71" y="65" type="curve" smooth="yes"/>
			<point x="113" y="65"/>
			<point x="134" y="111"/>
			<point x="148" y="148" type="curve" smooth="yes"/>
			<point x="175" y="211" type="line"/>
		</contour>
		<contour>
			<point x="385" y="211" type="line"/>
			<point x="412" y="148" type="line" smooth="yes"/>
			<point x="426" y="111"/>
			<point x="446" y="66"/>
			<point x="490" y="66" type="curve" smooth="yes"/>
			<point x="515" y="66"/>
			<point x="537" y="87"/>
			<point x="537" y="113" type="curve" smooth="yes"/>
			<point x="537" y="155"/>
			<point x="491" y="176"/>
			<point x="454" y="190" type="curve" smooth="yes"/>
			<point x="391" y="217" type="line"/>
		</contour>
	</outline>
</glyph>
<glyph name="yen" format="1">
	<unicode hex="00A5"/>
	<advance width="560"/>
	<outline>
		<contour>
			<point x="62" y="155" type="line"/>
			<point x="498" y="155" type="line"/>
			<point x="498" y="205" type="line"/>
			<point x="62" y="205" type="line"/>
		</contour>
		<contour>
			<point x="62" y="271" type="line"/>
			<point x="498" y="271" type="line"/>
			<point x="498" y="321" type="line"/>
			<point x="62" y="321" type="line"/>
		</contour>
		<contour>
			<point x="244" y="40" type="line"/>
			<point x="101" y="30" type="line"/>
			<point x="101" y="0" type="line"/>
			<point x="458" y="0" type="line"/>
			<point x="458" y="30" type="line"/>
			<point x="315" y="40" type="line"/>
		</contour>
		<contour>
			<point x="132" y="585" type="line"/>
			<point x="165" y="585" type="line"/>
			<point x="307" y="595" type="line"/>
			<point x="307" y="625" type="line"/>
			<point x="-4" y="625" type="line"/>
			<point x="-4" y="595" type="line"/>
		</contour>
		<contour>
			<point x="447" y="585" type="line"/>
			<point x="491" y="585" type="line"/>
			<point x="563" y="595" type="line"/>
			<point x="563" y="625" type="line"/>
			<point x="365" y="625" type="line"/>
			<point x="365" y="595" type="line"/>
		</contour>
		<contour>
			<point x="188" y="189" type="line" smooth="yes"/>
			<point x="188" y="131"/>
			<point x="188" y="101"/>
			<point x="185" y="0" type="curve"/>
			<point x="375" y="0" type="line"/>
			<point x="372" y="100"/>
			<point x="372" y="132"/>
			<point x="372" y="189" type="curve" smooth="yes"/>
			<point x="372" y="301" type="line"/>
			<point x="188" y="301" type="line"/>
		</contour>
		<contour>
			<point x="345" y="245" type="line"/>
			<point x="513" y="625" type="line"/>
			<point x="461" y="625" type="line"/>
			<point x="329" y="309" type="line"/>
			<point x="351" y="309" type="line"/>
			<point x="218" y="625" type="line"/>
			<point x="26" y="625" type="line"/>
			<point x="216" y="245" type="line"/>
		</contour>
	</outline>
</glyph>
<glyph name="section" format="1">
	<unicode hex="00A7"/>
	<advance width="549"/>
	<outline>
		<contour>
			<point x="291" y="671" type="curve" smooth="yes"/>
			<point x="149" y="671"/>
			<point x="73" y="595"/>
			<point x="73" y="507" type="curve" smooth="yes"/>
			<point x="73" y="419"/>
			<point x="128" y="367"/>
			<point x="266" y="324" type="curve" smooth="yes"/>
			<point x="378" y="289"/>
			<point x="416" y="269"/>
			<point x="416" y="210" type="curve" smooth="yes"/>
			<point x="416" y="187"/>
			<point x="407" y="164"/>
			<point x="393" y="148" type="curve"/>
			<point x="399" y="140" type="line"/>
			<point x="460" y="167"/>
			<point x="508" y="212"/>
			<point x="508" y="273" type="curve" smooth="yes"/>
			<point x="508" y="360"/>
			<point x="461" y="415"/>
			<point x="307" y="463" type="curve" smooth="yes"/>
			<point x="230" y="487"/>
			<point x="204" y="509"/>
			<point x="204" y="557" type="curve" smooth="yes"/>
			<point x="204" y="613"/>
			<point x="244" y="636"/>
			<point x="303" y="636" type="curve" smooth="yes"/>
			<point x="345" y="636"/>
			<point x="362" y="630"/>
			<point x="414" y="606" type="curve"/>
			<point x="316" y="663" type="line"/>
			<point x="344" y="568" type="line" smooth="yes"/>
			<point x="365" y="496"/>
			<point x="397" y="479"/>
			<point x="436" y="479" type="curve" smooth="yes"/>
			<point x="462" y="479"/>
			<point x="491" y="494"/>
			<point x="496" y="535" type="curve"/>
			<point x="496" y="619"/>
			<point x="420" y="671"/>
		</contour>
		<contour>
			<point x="259" y="-113" type="curve" smooth="yes"/>
			<point x="400" y="-113"/>
			<point x="477" y="-37"/>
			<point x="477" y="51" type="curve" smooth="yes"/>
			<point x="477" y="145"/>
			<point x="422" y="191"/>
			<point x="279" y="236" type="curve" smooth="yes"/>
			<point x="172" y="269"/>
			<point x="134" y="289"/>
			<point x="134" y="348" type="curve" smooth="yes"/>
			<point x="134" y="372"/>
			<point x="144" y="396"/>
			<point x="159" y="413" type="curve"/>
			<point x="153" y="421" type="line"/>
			<point x="91" y="393"/>
			<point x="42" y="338"/>
			<point x="42" y="283" type="curve" smooth="yes"/>
			<point x="42" y="193"/>
			<point x="93" y="146"/>
			<point x="220" y="102" type="curve" smooth="yes"/>
			<point x="316" y="69"/>
			<point x="346" y="50"/>
			<point x="346" y="3" type="curve" smooth="yes"/>
			<point x="346" y="-55"/>
			<point x="305" y="-78"/>
			<point x="247" y="-78" type="curve" smooth="yes"/>
			<point x="205" y="-78"/>
			<point x="188" y="-72"/>
			<point x="136" y="-48" type="curve"/>
			<point x="233" y="-100" type="line"/>
			<point x="206" y="-10" type="line" smooth="yes"/>
			<point x="184" y="63"/>
			<point x="153" y="79"/>
			<point x="114" y="79" type="curve" smooth="yes"/>
			<point x="88" y="79"/>
			<point x="59" y="64"/>
			<point x="54" y="23" type="curve"/>
			<point x="54" y="-61"/>
			<point x="130" y="-113"/>
		</contour>
	</outline>
</glyph>
<glyph name="logicalnot" format="1">
	<unicode hex="00AC"/>
	<advance width="550"/>
	<outline>
		<contour>
			<point x="30" y="330" type="line"/>
			<point x="462" y="330" type="line"/>
			<point x="436" y="355" type="line"/>
			<point x="436" y="148" type="line"/>
			<point x="500" y="148" type="line"/>
			<point x="500" y="390" type="line"/>
			<point x="30" y="390" type="line"/>
		</contour>
	</outline>
</glyph>
<glyph name="three.sups" format="2">
	<unicode hex="00B3"/>
	<advance width="374"/>
	<outline>
		<contour>
			<point x="127" y="623" type="line"/>
			<point x="127" y="596" type="line"/>
			<point x="147" y="596" type="line" smooth="yes"/>
			<point x="196" y="596"/>
			<point x="224" y="565"/>
			<point x="224" y="509" type="curve" smooth="yes"/>
			<point x="224" y="451"/>
			<point x="195" y="421"/>
			<point x="141" y="421" type="curve" smooth="yes"/>
			<point x="125" y="421"/>
			<point x="116" y="424"/>
			<point x="102" y="431" type="curve"/>
			<point x="134" y="413" type="line"/>
			<point x="128" y="467" type="line" smooth="yes"/>
			<point x="123" y="505"/>
			<point x="105" y="517"/>
			<point x="77" y="517" type="curve" smooth="yes"/>
			<point x="61" y="517"/>
			<point x="42" y="510"/>
			<point x="35" y="493" type="curve"/>
			<point x="35" y="430"/>
			<point x="82" y="397"/>
			<point x="180" y="397" type="curve" smooth="yes"/>
			<point x="286" y="397"/>
			<point x="346" y="446"/>
			<point x="346" y="511" type="curve" smooth="yes"/>
			<point x="346" y="568"/>
			<point x="308" y="608"/>
			<point x="177" y="615" type="curve"/>
			<point x="177" y="605" type="line"/>
			<point x="296" y="616"/>
			<point x="334" y="656"/>
			<point x="334" y="708" type="curve" smooth="yes"/>
			<point x="334" y="764"/>
			<point x="291" y="803"/>
			<point x="192" y="803" type="curve" smooth="yes"/>
			<point x="116" y="803"/>
			<point x="52" y="775"/>
			<point x="55" y="714" type="curve"/>
			<point x="63" y="700"/>
			<point x="77" y="693"/>
			<point x="93" y="693" type="curve" smooth="yes"/>
			<point x="117" y="693"/>
			<point x="140" y="705"/>
			<point x="144" y="735" type="curve" smooth="yes"/>
			<point x="153" y="785" type="line"/>
			<point x="111" y="770" type="line"/>
			<point x="130" y="777"/>
			<point x="146" y="779"/>
			<point x="157" y="779" type="curve" smooth="yes"/>
			<point x="195" y="779"/>
			<point x="218" y="754"/>
			<point x="218" y="705" type="curve" smooth="yes"/>
			<point x="218" y="649"/>
			<point x="190" y="623"/>
			<point x="144" y="623" type="curve" smooth="yes"/>
		</contour>
	</outline>
</glyph>
<glyph name="Eth" format="2">
	<unicode hex="00D0"/>
	<advance width="703"/>
	<outline>
		<contour>
			<point x="398" y="313" type="line"/>
			<point x="398" y="356" type="line"/>
			<point x="28" y="356" type="line"/>
			<point x="28" y="313" type="line"/>
		</contour>
		<component base="D"/>
	</outline>
</glyph>
<glyph name="germandbls" format="1">
	<unicode hex="00DF"/>
	<advance width="687"/>
	<outline>
		<contour>
			<point x="182" y="40" type="line"/>
			<point x="121" y="40" type="line"/>
			<point x="27" y="30" type="line"/>
			<point x="27" y="0" type="line"/>
			<point x="182" y="0" type="line"/>
		</contour>
		<contour>
			<point x="74" y="210" type="line" smooth="yes"/>
			<point x="74" y="140"/>
			<point x="73" y="70"/>
			<point x="71" y="0" type="curve"/>
			<point x="267" y="0" type="line"/>
			<point x="265" y="70"/>
			<point x="264" y="140"/>
			<point x="264" y="210" type="curve" smooth="yes"/>
			<point x="264" y="420" type="line" smooth="yes"/>
			<point x="264" y="534"/>
			<point x="268" y="608"/>
			<point x="294" y="650" type="curve" smooth="yes"/>
			<point x="312" y="679"/>
			<point x="337" y="692"/>
			<point x="375" y="692" type="curve" smooth="yes"/>
			<point x="429" y="692"/>
			<point x="461" y="645"/>
			<point x="461" y="577" type="curve" smooth="yes"/>
			<point x="461" y="517"/>
			<point x="441" y="472"/>
			<point x="403" y="438" type="curve" smooth="yes"/>
			<point x="349" y="390"/>
			<point x="314" y="369"/>
			<point x="314" y="313" type="curve" smooth="yes"/>
			<point x="314" y="248"/>
			<point x="365" y="217"/>
			<point x="439" y="185" type="curve" smooth="yes"/>
			<point x="497" y="160"/>
			<point x="521" y="143"/>
			<point x="521" y="94" type="curve" smooth="yes"/>
			<point x="521" y="55"/>
			<point x="493" y="23"/>
			<point x="434" y="23" type="curve" smooth="yes"/>
			<point x="401" y="23"/>
			<point x="392" y="24"/>
			<point x="357" y="36" type="curve"/>
			<point x="431" y="4" type="line"/>
			<point x="393" y="162" type="line"/>
			<point x="322" y="162" type="line"/>
			<point x="309" y="17" type="line"/>
			<point x="350" y="-8"/>
			<point x="401" y="-16"/>
			<point x="450" y="-16" type="curve" smooth="yes"/>
			<point x="589" y="-16"/>
			<point x="677" y="59"/>
			<point x="677" y="163" type="curve" smooth="yes"/>
			<point x="677" y="234"/>
			<point x="638" y="286"/>
			<point x="558" y="330" type="curve" smooth="yes"/>
			<point x="475" y="375"/>
			<point x="460" y="391"/>
			<point x="460" y="417" type="curve" smooth="yes"/>
			<point x="460" y="439"/>
			<point x="481" y="457"/>
			<point x="531" y="487" type="curve" smooth="yes"/>
			<point x="590" y="522"/>
			<point x="614" y="551"/>
			<point x="614" y="596" type="curve" smooth="yes"/>
			<point x="614" y="663"/>
			<point x="545" y="731"/>
			<point x="390" y="731" type="curve" smooth="yes"/>
			<point x="305" y="731"/>
			<point x="227" y="711"/>
			<point x="165" y="663" type="curve" smooth="yes"/>
			<point x="116" y="625"/>
			<point x="74" y="563"/>
			<point x="74" y="459" type="curve" smooth="yes"/>
		</contour>
	</outline>
</glyph>
<glyph name="oslash" format="2">
	<unicode hex="00F8"/>
	<advance width="572"/>
	<outline>
		<contour>
			<point x="517" y="498" type="line"/>
			<point x="481" y="527" type="line"/>
			<point x="56" y="-9" type="line"/>
			<point x="92" y="-38" type="line"/>
		</contour>
		<component base="o"/>
	</outline>
	<anchor name="aboveLC" x="286" y="520"/>
</glyph>
<glyph name="aogonek" format="2">
	<unicode hex="0105"/>
	<advance width="540"/>
	<outline>
		<contour>
			<point x="25" y="114" type="curve" smooth="yes"/>
			<point x="25" y="32"/>
			<point x="76" y="-16"/>
			<point x="155" y="-16" type="curve" smooth="yes"/>
			<point x="232" y="-16"/>
			<point x="263" y="15"/>
			<point x="306" y="64" type="curve" smooth="yes"/>
			<point x="353" y="117" type="line"/>
			<point x="344" y="125" type="line"/>
			<point x="296" y="80" type="line" smooth="yes"/>
			<point x="276" y="62"/>
			<point x="262" y="56"/>
			<point x="249" y="56" type="curve" smooth="yes"/>
			<point x="217" y="56"/>
			<point x="197" y="78"/>
			<point x="197" y="128" type="curve" smooth="yes"/>
			<point x="197" y="200"/>
			<point x="233" y="243"/>
			<point x="279" y="263" type="curve" smooth="yes"/>
			<point x="295" y="270"/>
			<point x="343" y="282"/>
			<point x="391" y="295" type="curve"/>
			<point x="391" y="320" type="line"/>
			<point x="345" y="308"/>
			<point x="271" y="289"/>
			<point x="230" y="278" type="curve" smooth="yes"/>
			<point x="71" y="235"/>
			<point x="25" y="191"/>
		</contour>
		<contour>
			<point x="321" y="-127" type="curve" smooth="yes"/>
			<point x="321" y="-182"/>
			<point x="362" y="-227"/>
			<point x="439" y="-227" type="curve" smooth="yes"/>
			<point x="496" y="-227"/>
			<point x="549" y="-209"/>
			<point x="583" y="-177" type="curve"/>
			<point x="576" y="-152" type="line"/>
			<point x="562" y="-156"/>
			<point x="547" y="-160"/>
			<point x="521" y="-160" type="curve" smooth="yes"/>
			<point x="472" y="-160"/>
			<point x="437" y="-137"/>
			<point x="437" y="-89" type="curve" smooth="yes"/>
			<point x="437" y="-59"/>
			<point x="454" y="-35"/>
			<point x="489" y="-4" type="curve" smooth="yes"/>
			<point x="509" y="14"/>
			<point x="530" y="33"/>
			<point x="548" y="69" type="curve"/>
			<point x="530" y="79" type="line"/>
			<point x="513" y="48"/>
			<point x="504" y="41"/>
			<point x="493" y="41" type="curve" smooth="yes"/>
			<point x="482" y="41"/>
			<point x="475" y="48"/>
			<point x="475" y="65" type="curve" smooth="yes"/>
			<point x="475" y="310" type="line" smooth="yes"/>
			<point x="475" y="447"/>
			<point x="424" y="503"/>
			<point x="286" y="503" type="curve" smooth="yes"/>
			<point x="125" y="503"/>
			<point x="42" y="444"/>
			<point x="42" y="358" type="curve"/>
			<point x="52" y="322"/>
			<point x="79" y="304"/>
			<point x="118" y="304" type="curve" smooth="yes"/>
			<point x="161" y="304"/>
			<point x="200" y="334"/>
			<point x="200" y="415" type="curve" smooth="yes"/>
			<point x="200" y="478" type="line"/>
			<point x="120" y="456" type="line"/>
			<point x="166" y="466"/>
			<point x="190" y="469"/>
			<point x="215" y="469" type="curve" smooth="yes"/>
			<point x="278" y="469"/>
			<point x="291" y="441"/>
			<point x="291" y="356" type="curve" smooth="yes"/>
			<point x="291" y="72" type="line"/>
			<point x="305" y="5"/>
			<point x="358" y="-16"/>
			<point x="448" y="-16" type="curve"/>
			<point x="449" y="-11" type="line"/>
			<point x="371" y="-41"/>
			<point x="321" y="-76"/>
		</contour>
	</outline>
	<anchor name="aboveLC" x="264" y="520"/>
</glyph>
<glyph name="Lslash" format="1">
	<unicode hex="0141"/>
	<advance width="574"/>
	<outline>
		<contour>
			<point x="404" y="454" type="line"/>
			<point x="228" y="364" type="line"/>
			<point x="228" y="300" type="line"/>
			<point x="404" y="390" type="line"/>
		</contour>
		<contour>
			<point x="188" y="349" type="line"/>
			<point x="26" y="266" type="line"/>
			<point x="26" y="202" type="line"/>
			<point x="188" y="285" type="line"/>
		</contour>
		<component base="L"/>
	</outline>
</glyph>
<glyph name="Uogonek" format="2">
	<unicode hex="0172"/>
	<advance width="732"/>
	<outline>
		<contour>
			<point x="25" y="617" type="line"/>
			<point x="181" y="602" type="line"/>
			<point x="213" y="602" type="line"/>
			<point x="369" y="617" type="line"/>
			<point x="369" y="652" type="line"/>
			<point x="25" y="652" type="line"/>
		</contour>
		<contour>
			<point x="329" y="-127" type="curve" smooth="yes"/>
			<point x="329" y="-182"/>
			<point x="370" y="-227"/>
			<point x="447" y="-227" type="curve" smooth="yes"/>
			<point x="504" y="-227"/>
			<point x="557" y="-209"/>
			<point x="591" y="-177" type="curve"/>
			<point x="584" y="-152" type="line"/>
			<point x="570" y="-156"/>
			<point x="555" y="-160"/>
			<point x="529" y="-160" type="curve" smooth="yes"/>
			<point x="480" y="-160"/>
			<point x="445" y="-131"/>
			<point x="445" y="-83" type="curve" smooth="yes"/>
			<point x="445" y="-36"/>
			<point x="471" y="-15"/>
			<point x="499" y="7" type="curve" smooth="yes"/>
			<point x="577" y="66"/>
			<point x="618" y="141"/>
			<point x="620" y="287" type="curve" smooth="yes"/>
			<point x="625" y="652" type="line"/>
			<point x="571" y="652" type="line"/>
			<point x="576" y="277" type="line" smooth="yes"/>
			<point x="578" y="130"/>
			<point x="520" y="69"/>
			<point x="434" y="69" type="curve" smooth="yes"/>
			<point x="337" y="69"/>
			<point x="293" y="127"/>
			<point x="293" y="280" type="curve" smooth="yes"/>
			<point x="293" y="356" type="line" smooth="yes"/>
			<point x="293" y="455"/>
			<point x="293" y="555"/>
			<point x="296" y="652" type="curve"/>
			<point x="92" y="652" type="line"/>
			<point x="95" y="553"/>
			<point x="95" y="453"/>
			<point x="95" y="356" type="curve" smooth="yes"/>
			<point x="95" y="265" type="line" smooth="yes"/>
			<point x="95" y="50"/>
			<point x="209" y="-20"/>
			<point x="366" y="-20" type="curve" smooth="yes"/>
			<point x="395" y="-20"/>
			<point x="422" y="-17"/>
			<point x="447" y="-11" type="curve"/>
			<point x="446" y="-6" type="line"/>
			<point x="374" y="-38"/>
			<point x="329" y="-73"/>
		</contour>
		<contour>
			<point x="478" y="617" type="line"/>
			<point x="583" y="602" type="line"/>
			<point x="616" y="602" type="line"/>
			<point x="716" y="617" type="line"/>
			<point x="716" y="652" type="line"/>
			<point x="478" y="652" type="line"/>
		</contour>
	</outline>
	<anchor name="aboveUC" x="422" y="682"/>
</glyph>
<glyph name="Schwa" format="2">
	<unicode hex="018F"/>
	<advance width="666"/>
	<outline>
		<contour>
			<point x="28" y="275" type="curve" smooth="yes"/>
			<point x="28" y="111"/>
			<point x="121" y="-20"/>
			<point x="334" y="-20" type="curve" smooth="yes"/>
			<point x="482" y="-20"/>
			<point x="638" y="89"/>
			<point x="638" y="323" type="curve" smooth="yes"/>
			<point x="638" y="543"/>
			<point x="505" y="672"/>
			<point x="314" y="672" type="curve" smooth="yes"/>
			<point x="224" y="672"/>
			<point x="136" y="641"/>
			<point x="79" y="573" type="curve"/>
			<point x="100" y="544" type="line"/>
			<point x="138" y="578"/>
			<point x="197" y="602"/>
			<point x="252" y="602" type="curve" smooth="yes"/>
			<point x="358" y="602"/>
			<point x="433" y="507"/>
			<point x="433" y="321" type="curve" smooth="yes"/>
			<point x="433" y="87"/>
			<point x="397" y="18"/>
			<point x="337" y="18" type="curve" smooth="yes"/>
			<point x="274" y="18"/>
			<point x="228" y="90"/>
			<point x="228" y="220" type="curve" smooth="yes"/>
			<point x="228" y="257"/>
			<point x="228" y="284"/>
			<point x="231" y="318" type="curve"/>
			<point x="532" y="318" type="line"/>
			<point x="531" y="359" type="line"/>
			<point x="34" y="359" type="line"/>
			<point x="29" y="328"/>
			<point x="28" y="308"/>
		</contour>
	</outline>
	<anchor name="aboveUC" x="332" y="682"/>
	<anchor name="belowLC" x="341" y="-22"/>
</glyph>
<glyph name="florin" format="1">
	<unicode hex="0192"/>
	<advance width="560"/>
	<outline>
		<contour>
			<point x="115" y="356" type="line"/>
			<point x="475" y="356" type="line"/>
			<point x="475" y="406" type="line"/>
			<point x="115" y="406" type="line"/>
		</contour>
		<contour>
			<point x="369" y="366" type="line" smooth="yes"/>
			<point x="376" y="468"/>
			<point x="380" y="541"/>
			<point x="399" y="586" type="curve" smooth="yes"/>
			<point x="410" y="612"/>
			<point x="421" y="628"/>
			<point x="436" y="637" type="curve"/>
			<point x="409" y="638" type="line"/>
			<point x="431" y="542" type="line" smooth="yes"/>
			<point x="442" y="496"/>
			<point x="465" y="484"/>
			<point x="497" y="484" type="curve" smooth="yes"/>
			<point x="530" y="484"/>
			<point x="554" y="514"/>
			<point x="554" y="555" type="curve"/>
			<point x="538" y="605"/>
			<point x="492" y="640"/>
			<point x="413" y="640" type="curve" smooth="yes"/>
			<point x="364" y="640"/>
			<point x="314" y="625"/>
			<point x="275" y="579" type="curve" smooth="yes"/>
			<point x="237" y="537"/>
			<point x="213" y="473"/>
			<point x="205" y="360" type="curve" smooth="yes"/>
			<point x="195" y="211" type="line" smooth="yes"/>
			<point x="186" y="80"/>
			<point x="182" y="-1"/>
			<point x="164" y="-47" type="curve" smooth="yes"/>
			<point x="152" y="-78"/>
			<point x="140" y="-90"/>
			<point x="124" y="-101" type="curve"/>
			<point x="149" y="-101" type="line"/>
			<point x="130" y="-8" type="line" smooth="yes"/>
			<point x="121" y="38"/>
			<point x="96" y="50"/>
			<point x="64" y="50" type="curve" smooth="yes"/>
			<point x="31" y="50"/>
			<point x="7" y="20"/>
			<point x="7" y="-21" type="curve"/>
			<point x="23" y="-71"/>
			<point x="69" y="-106"/>
			<point x="148" y="-106" type="curve" smooth="yes"/>
			<point x="197" y="-106"/>
			<point x="247" y="-91"/>
			<point x="286" y="-45" type="curve" smooth="yes"/>
			<point x="330" y="3"/>
			<point x="351" y="81"/>
			<point x="360" y="227" type="curve" smooth="yes"/>
		</contour>
	</outline>
</glyph>
<glyph name="schwa" format="1">
	<unicode hex="0259"/>
	<advance width="526"/>
	<outline>
		<contour>
			<point x="251" y="-16" type="curve" smooth="yes"/>
			<point x="401" y="-16"/>
			<point x="504" y="85"/>
			<point x="504" y="243" type="curve" smooth="yes"/>
			<point x="504" y="408"/>
			<point x="398" y="503"/>
			<point x="260" y="503" type="curve" smooth="yes"/>
			<point x="148" y="503"/>
			<point x="74" y="458"/>
			<point x="38" y="373" type="curve"/>
			<point x="59" y="359" type="line"/>
			<point x="83" y="398"/>
			<point x="123" y="424"/>
			<point x="176" y="424" type="curve" smooth="yes"/>
			<point x="247" y="424"/>
			<point x="304" y="369"/>
			<point x="304" y="233" type="curve" smooth="yes"/>
			<point x="304" y="65"/>
			<point x="281" y="18"/>
			<point x="251" y="18" type="curve" smooth="yes"/>
			<point x="222" y="18"/>
			<point x="196" y="46"/>
			<point x="196" y="122" type="curve" smooth="yes"/>
			<point x="196" y="200"/>
			<point x="209" y="225"/>
			<point x="257" y="225" type="curve" smooth="yes"/>
			<point x="425" y="225" type="line"/>
			<point x="425" y="262" type="line"/>
			<point x="25" y="262" type="line"/>
			<point x="22" y="244"/>
			<point x="20" y="230"/>
			<point x="20" y="192" type="curve" smooth="yes"/>
			<point x="20" y="85"/>
			<point x="92" y="-16"/>
		</contour>
		<contour>
			<point name="aboveLC" x="265" y="520" type="move"/>
		</contour>
		<contour>
			<point name="belowLC" x="270" y="-22" type="move"/>
		</contour>
	</outline>
</glyph>
<glyph name="colontriangularmod" format="1">
	<unicode hex="02D0"/>
	<advance width="300"/>
	<outline>
		<contour>
			<point x="42" y="496" type="line"/>
			<point x="146" y="316" type="line"/>
			<point x="154" y="316" type="line"/>
			<point x="258" y="496" type="line"/>
			<point x="254" y="503" type="line"/>
			<point x="46" y="503" type="line"/>
		</contour>
		<contour>
			<point x="42" y="7" type="line"/>
			<point x="46" y="0" type="line"/>
			<point x="254" y="0" type="line"/>
			<point x="258" y="7" type="line"/>
			<point x="154" y="187" type="line"/>
			<point x="146" y="187" type="line"/>
		</contour>
	</outline>
</glyph>
<glyph name="s.sups" format="2">
	<unicode hex="02E2"/>
	<advance width="301"/>
	<outline>
		<contour>
			<point x="141" y="396" type="curve" smooth="yes"/>
			<point x="233" y="396"/>
			<point x="291" y="434"/>
			<point x="291" y="508" type="curve" smooth="yes"/>
			<point x="291" y="558"/>
			<point x="264" y="593"/>
			<point x="200" y="610" type="curve" smooth="yes"/>
			<point x="167" y="619" type="line" smooth="yes"/>
			<point x="120" y="632"/>
			<point x="111" y="649"/>
			<point x="111" y="665" type="curve" smooth="yes"/>
			<point x="111" y="691"/>
			<point x="133" y="705"/>
			<point x="165" y="705" type="curve" smooth="yes"/>
			<point x="193" y="705"/>
			<point x="206" y="699"/>
			<point x="229" y="685" type="curve"/>
			<point x="196" y="716" type="line"/>
			<point x="226" y="630" type="line"/>
			<point x="265" y="630" type="line"/>
			<point x="270" y="705" type="line"/>
			<point x="235" y="722"/>
			<point x="203" y="731"/>
			<point x="163" y="731" type="curve" smooth="yes"/>
			<point x="72" y="731"/>
			<point x="21" y="684"/>
			<point x="21" y="619" type="curve" smooth="yes"/>
			<point x="21" y="569"/>
			<point x="53" y="536"/>
			<point x="106" y="521" type="curve" smooth="yes"/>
			<point x="141" y="512" type="line" smooth="yes"/>
			<point x="186" y="499"/>
			<point x="197" y="483"/>
			<point x="197" y="463" type="curve" smooth="yes"/>
			<point x="197" y="433"/>
			<point x="174" y="422"/>
			<point x="133" y="422" type="curve" smooth="yes"/>
			<point x="104" y="422"/>
			<point x="83" y="430"/>
			<point x="54" y="448" type="curve"/>
			<point x="92" y="420" type="line"/>
			<point x="71" y="509" type="line"/>
			<point x="26" y="509" type="line"/>
			<point x="20" y="427" type="line"/>
			<point x="56" y="406"/>
			<point x="94" y="396"/>
		</contour>
	</outline>
</glyph>
<glyph name="gravecmb" format="2">
	<unicode hex="0300"/>
	<outline>
		<contour>
			<point x="70" y="580" type="line"/>
			<point x="58" y="605"/>
			<point x="46" y="630"/>
			<point x="7" y="712" type="curve" smooth="yes"/>
			<point x="-18" y="763"/>
			<point x="-46" y="784"/>
			<point x="-84" y="784" type="curve" smooth="yes"/>
			<point x="-114" y="784"/>
			<point x="-145" y="760"/>
			<point x="-145" y="721" type="curve" smooth="yes"/>
			<point x="-145" y="686"/>
			<point x="-114" y="654"/>
			<point x="-66" y="626" type="curve" smooth="yes"/>
			<point x="4" y="584"/>
			<point x="26" y="573"/>
			<point x="47" y="561" type="curve"/>
		</contour>
	</outline>
	<anchor name="_aboveLC" x="0" y="520"/>
</glyph>
<glyph name="macroncmb" format="1">
	<unicode hex="0304"/>
	<outline>
		<contour>
			<point x="-171" y="588" type="line"/>
			<point x="171" y="588" type="line"/>
			<point x="171" y="678" type="line"/>
			<point x="-171" y="678" type="line"/>
		</contour>
		<contour>
			<point name="_aboveLC" x="0" y="520" type="move"/>
		</contour>
	</outline>
</glyph>
<glyph name="ringcmb" format="2">
	<unicode hex="030A"/>
	<outline>
		<contour>
			<point x="0" y="597" type="curve" smooth="yes"/>
			<point x="-50" y="597"/>
			<point x="-76" y="637"/>
			<point x="-76" y="674" type="curve" smooth="yes"/>
			<point x="-76" y="714"/>
			<point x="-50" y="751"/>
			<point x="0" y="751" type="curve" smooth="yes"/>
			<point x="50" y="751"/>
			<point x="76" y="714"/>
			<point x="76" y="674" type="curve" smooth="yes"/>
			<point x="76" y="637"/>
			<point x="50" y="597"/>
		</contour>
		<contour>
			<point x="0" y="554" type="curve" smooth="yes"/>
			<point x="72" y="554"/>
			<point x="127" y="598"/>
			<point x="127" y="674" type="curve" smooth="yes"/>
			<point x="127" y="750"/>
			<point x="72" y="794"/>
			<point x="0" y="794" type="curve" smooth="yes"/>
			<point x="-72" y="794"/>
			<point x="-127" y="747"/>
			<point x="-127" y="674" type="curve" smooth="yes"/>
			<point x="-127" y="601"/>
			<point x="-72" y="554"/>
		</contour>
	</outline>
	<anchor name="_aboveLC" x="0" y="520"/>
</glyph>
<glyph name="cedillacmb" format="1">
	<unicode hex="0327"/>
	<outline>
		<contour>
			<point x="-36" y="-90" type="line"/>
			<point x="5" y="-95"/>
			<point x="25" y="-110"/>
			<point x="25" y="-139" type="curve" smooth="yes"/>
			<point x="25" y="-169"/>
			<point x="8" y="-187"/>
			<point x="-25" y="-187" type="curve" smooth="yes"/>
			<point x="-44" y="-187"/>
			<point x="-59" y="-185"/>
			<point x="-80" y="-179" type="curve"/>
			<point x="-89" y="-212" type="line"/>
			<point x="-63" y="-222"/>
			<point x="-37" y="-227"/>
			<point x="-3" y="-227" type="curve" smooth="yes"/>
			<point x="84" y="-227"/>
			<point x="129" y="-185"/>
			<point x="129" y="-140" type="curve" smooth="yes"/>
			<point x="129" y="-102"/>
			<point x="94" y="-62"/>
			<point x="-16" y="-62" type="curve"/>
			<point x="3" y="-71" type="line"/>
			<point x="12" y="5" type="line"/>
			<point x="-21" y="5" type="line"/>
		</contour>
		<contour>
			<point name="_baseLC" x="0" y="0" type="move"/>
		</contour>
	</outline>
</glyph>
<glyph name="Delta" format="1">
	<unicode hex="0394"/>
	<unicode hex="2206"/>
	<advance width="626"/>
	<outline>
		<contour>
			<point x="42" y="0" type="line"/>
			<point x="58" y="0" type="line"/>
			<point x="285" y="583" type="line"/>
			<point x="249" y="534" type="line"/>
			<point x="425" y="0" type="line"/>
			<point x="604" y="0" type="line"/>
			<point x="604" y="85" type="line"/>
			<point x="393" y="652" type="line"/>
			<point x="273" y="652" type="line"/>
			<point x="42" y="85" type="line"/>
		</contour>
		<contour>
			<point x="50" y="0" type="line"/>
			<point x="523" y="0" type="line"/>
			<point x="523" y="120" type="line"/>
			<point x="68" y="120" type="line"/>
		</contour>
	</outline>
</glyph>
<glyph name="Lambda" format="2">
	<unicode hex="039B"/>
	<advance width="656"/>
	<outline>
		<contour>
			<point x="464" y="50" type="line"/>
			<point x="323" y="35" type="line"/>
			<point x="323" y="0" type="line"/>
			<point x="656" y="0" type="line"/>
			<point x="656" y="35" type="line"/>
			<point x="505" y="50" type="line"/>
		</contour>
		<contour>
			<point x="94" y="50" type="line"/>
			<point x="5" y="35" type="line"/>
			<point x="5" y="0" type="line"/>
			<point x="216" y="0" type="line"/>
			<point x="216" y="35" type="line"/>
			<point x="107" y="50" type="line"/>
		</contour>
		<contour>
			<point x="278" y="652" type="line"/>
			<point x="69" y="0" type="line"/>
			<point x="126" y="0" type="line"/>
			<point x="288" y="578" type="line"/>
			<point x="253" y="536" type="line"/>
			<point x="405" y="0" type="line"/>
			<point x="618" y="0" type="line"/>
			<point x="398" y="652" type="line"/>
		</contour>
	</outline>
</glyph>
<glyph name="alpha" format="1">
	<unicode hex="03B1"/>
	<advance width="599"/>
	<outline>
		<contour>
			<point x="227" y="-16" type="curve" smooth="yes"/>
			<point x="313" y="-16"/>
			<point x="359" y="35"/>
			<point x="364" y="108" type="curve"/>
			<point x="349" y="105" type="line"/>
			<point x="355" y="35"/>
			<point x="401" y="-16"/>
			<point x="460" y="-16" type="curve" smooth="yes"/>
			<point x="534" y="-16"/>
			<point x="575" y="20"/>
			<point x="590" y="56" type="curve"/>
			<point x="578" y="75" type="line"/>
			<point x="570" y="71"/>
			<point x="559" y="69"/>
			<point x="543" y="69" type="curve" smooth="yes"/>
			<point x="516" y="69"/>
			<point x="498" y="88"/>
			<point x="498" y="145" type="curve" smooth="yes"/>
			<point x="498" y="229"/>
			<point x="506" y="308"/>
			<point x="533" y="493" type="curve"/>
			<point x="525" y="499" type="line"/>
			<point x="354" y="482" type="line"/>
			<point x="344" y="432" type="line"/>
			<point x="333" y="137" type="line" smooth="yes"/>
			<point x="331" y="80"/>
			<point x="317" y="50"/>
			<point x="281" y="50" type="curve" smooth="yes"/>
			<point x="235" y="50"/>
			<point x="202" y="131"/>
			<point x="202" y="306" type="curve" smooth="yes"/>
			<point x="202" y="403"/>
			<point x="239" y="428"/>
			<point x="280" y="428" type="curve" smooth="yes"/>
			<point x="313" y="428"/>
			<point x="338" y="419"/>
			<point x="365" y="394" type="curve"/>
			<point x="369" y="403" type="line"/>
			<point x="339" y="458"/>
			<point x="306" y="503"/>
			<point x="234" y="503" type="curve" smooth="yes"/>
			<point x="132" y="503"/>
			<point x="26" y="410"/>
			<point x="26" y="244" type="curve" smooth="yes"/>
			<point x="26" y="79"/>
			<point x="112" y="-16"/>
		</contour>
		<contour>
			<point name="aboveLC" x="332" y="520" type="move"/>
		</contour>
		<contour>
			<point name="belowLC" x="326" y="-22" type="move"/>
		</contour>
	</outline>
</glyph>
<glyph name="epsilon" format="1">
	<unicode hex="03B5"/>
	<advance width="494"/>
	<outline>
		<contour>
			<point x="33" y="110" type="curve" smooth="yes"/>
			<point x="33" y="29"/>
			<point x="129" y="-16"/>
			<point x="227" y="-16" type="curve" smooth="yes"/>
			<point x="371" y="-16"/>
			<point x="427" y="53"/>
			<point x="469" y="132" type="curve"/>
			<point x="446" y="160" type="line"/>
			<point x="401" y="121"/>
			<point x="355" y="103"/>
			<point x="295" y="103" type="curve" smooth="yes"/>
			<point x="241" y="103"/>
			<point x="209" y="121"/>
			<point x="209" y="156" type="curve" smooth="yes"/>
			<point x="209" y="192"/>
			<point x="242" y="207"/>
			<point x="308" y="207" type="curve" smooth="yes"/>
			<point x="319" y="207"/>
			<point x="330" y="206"/>
			<point x="341" y="205" type="curve"/>
			<point x="341" y="312" type="line"/>
			<point x="332" y="311"/>
			<point x="324" y="310"/>
			<point x="315" y="310" type="curve" smooth="yes"/>
			<point x="259" y="310"/>
			<point x="206" y="331"/>
			<point x="206" y="394" type="curve" smooth="yes"/>
			<point x="206" y="445"/>
			<point x="248" y="470"/>
			<point x="279" y="470" type="curve" smooth="yes"/>
			<point x="296" y="470"/>
			<point x="319" y="469"/>
			<point x="354" y="465" type="curve"/>
			<point x="335" y="491" type="line"/>
			<point x="218" y="481" type="line"/>
			<point x="290" y="403" type="line" smooth="yes"/>
			<point x="318" y="373"/>
			<point x="346" y="356"/>
			<point x="376" y="356" type="curve" smooth="yes"/>
			<point x="423" y="356"/>
			<point x="455" y="385"/>
			<point x="454" y="420" type="curve"/>
			<point x="441" y="481"/>
			<point x="355" y="503"/>
			<point x="281" y="503" type="curve" smooth="yes"/>
			<point x="146" y="503"/>
			<point x="52" y="448"/>
			<point x="52" y="360" type="curve" smooth="yes"/>
			<point x="52" y="306"/>
			<point x="98" y="233"/>
			<point x="244" y="225" type="curve"/>
			<point x="245" y="236" type="line"/>
			<point x="84" y="222"/>
			<point x="33" y="183"/>
		</contour>
		<contour>
			<point name="aboveLC" x="260" y="520" type="move"/>
		</contour>
		<contour>
			<point name="belowLC" x="250" y="-22" type="move"/>
		</contour>
	</outline>
</glyph>
<glyph name="eta" format="1">
	<unicode hex="03B7"/>
	<advance width="597"/>
	<outline>
		<contour>
			<point x="62" y="-9" type="line"/>
			<point x="70" y="-15" type="line"/>
			<point x="252" y="0" type="line"/>
			<point x="247" y="378" type="line" smooth="yes"/>
			<point x="246" y="461"/>
			<point x="196" y="498"/>
			<point x="130" y="498" type="curve" smooth="yes"/>
			<point x="76" y="498"/>
			<point x="35" y="462"/>
			<point x="12" y="418" type="curve"/>
			<point x="17" y="406" type="line"/>
			<point x="38" y="406" type="line" smooth="yes"/>
			<point x="64" y="406"/>
			<point x="76" y="396"/>
			<point x="76" y="346" type="curve" smooth="yes"/>
			<point x="76" y="245" type="line"/>
		</contour>
		<contour>
			<point x="344" y="-190" type="line"/>
			<point x="352" y="-196" type="line"/>
			<point x="541" y="-161" type="line"/>
			<point x="537" y="315" type="line" smooth="yes"/>
			<point x="536" y="469"/>
			<point x="453" y="503"/>
			<point x="394" y="503" type="curve" smooth="yes"/>
			<point x="329" y="503"/>
			<point x="271" y="468"/>
			<point x="230" y="372" type="curve"/>
			<point x="237" y="367" type="line"/>
			<point x="262" y="389"/>
			<point x="290" y="395"/>
			<point x="311" y="395" type="curve" smooth="yes"/>
			<point x="348" y="395"/>
			<point x="376" y="381"/>
			<point x="373" y="289" type="curve" smooth="yes"/>
			<point x="366" y="65" type="line"/>
		</contour>
		<contour>
			<point name="aboveLC" x="279" y="520" type="move"/>
		</contour>
		<contour>
			<point name="belowLC" x="161" y="-22" type="move"/>
		</contour>
	</outline>
</glyph>
<glyph name="kappa" format="2">
	<unicode hex="03BA"/>
	<advance width="577"/>
	<outline>
		<contour>
			<point x="61" y="-9" type="line"/>
			<point x="69" y="-15" type="line"/>
			<point x="234" y="0" type="line"/>
			<point x="243" y="239" type="line"/>
			<point x="243" y="376" type="line" smooth="yes"/>
			<point x="243" y="461"/>
			<point x="191" y="498"/>
			<point x="129" y="498" type="curve" smooth="yes"/>
			<point x="73" y="498"/>
			<point x="34" y="462"/>
			<point x="11" y="419" type="curve"/>
			<point x="15" y="406" type="line"/>
			<point x="36" y="406" type="line" smooth="yes"/>
			<point x="64" y="406"/>
			<point x="74" y="396"/>
			<point x="74" y="346" type="curve" smooth="yes"/>
			<point x="74" y="246" type="line"/>
		</contour>
		<contour>
			<point x="224" y="174" type="line"/>
			<point x="242" y="218"/>
			<point x="261" y="249"/>
			<point x="283" y="282" type="curve"/>
			<point x="322" y="332"/>
			<point x="360" y="370"/>
			<point x="393" y="397" type="curve"/>
			<point x="303" y="323" type="line"/>
			<point x="428" y="336" type="line" smooth="yes"/>
			<point x="501" y="344"/>
			<point x="544" y="369"/>
			<point x="544" y="430" type="curve" smooth="yes"/>
			<point x="544" y="476"/>
			<point x="521" y="496"/>
			<point x="494" y="503" type="curve"/>
			<point x="445" y="496"/>
			<point x="414" y="482"/>
			<point x="369" y="444" type="curve" smooth="yes"/>
			<point x="309" y="392"/>
			<point x="241" y="277"/>
			<point x="207" y="187" type="curve"/>
		</contour>
		<contour>
			<point x="443" y="-16" type="curve" smooth="yes"/>
			<point x="489" y="-16"/>
			<point x="535" y="29"/>
			<point x="556" y="119" type="curve"/>
			<point x="546" y="131" type="line"/>
			<point x="538" y="130"/>
			<point x="528" y="128"/>
			<point x="508" y="128" type="curve" smooth="yes"/>
			<point x="414" y="128"/>
			<point x="360" y="195"/>
			<point x="282" y="298" type="curve"/>
			<point x="267" y="281" type="line"/>
			<point x="304" y="114"/>
			<point x="356" y="-16"/>
		</contour>
	</outline>
</glyph>
<glyph name="nu" format="1">
	<unicode hex="03BD"/>
	<advance width="558"/>
	<outline>
		<contour>
			<point x="208" y="-12" type="curve"/>
			<point x="341" y="0" type="line"/>
			<point x="415" y="122"/>
			<point x="518" y="287"/>
			<point x="518" y="407" type="curve" smooth="yes"/>
			<point x="518" y="435"/>
			<point x="516" y="451"/>
			<point x="509" y="475" type="curve"/>
			<point x="489" y="496"/>
			<point x="472" y="504"/>
			<point x="443" y="504" type="curve" smooth="yes"/>
			<point x="385" y="504"/>
			<point x="354" y="455"/>
			<point x="354" y="397" type="curve" smooth="yes"/>
			<point x="354" y="352"/>
			<point x="378" y="275"/>
			<point x="421" y="165" type="curve"/>
			<point x="425" y="346" type="line"/>
			<point x="412" y="234"/>
			<point x="371" y="124"/>
			<point x="316" y="13" type="curve"/>
			<point x="337" y="13" type="line"/>
			<point x="332" y="115"/>
			<point x="316" y="203"/>
			<point x="302" y="278" type="curve" smooth="yes"/>
			<point x="270" y="450"/>
			<point x="223" y="499"/>
			<point x="137" y="499" type="curve" smooth="yes"/>
			<point x="77" y="499"/>
			<point x="24" y="473"/>
			<point x="0" y="416" type="curve"/>
			<point x="9" y="405" type="line"/>
			<point x="17" y="409"/>
			<point x="26" y="411"/>
			<point x="36" y="411" type="curve" smooth="yes"/>
			<point x="72" y="411"/>
			<point x="96" y="356"/>
			<point x="137" y="223" type="curve" smooth="yes"/>
			<point x="160" y="148"/>
			<point x="190" y="74"/>
		</contour>
	</outline>
</glyph>
<glyph name="xi" format="2">
	<unicode hex="03BE"/>
	<advance width="484"/>
	<outline>
		<contour>
			<point x="167" y="-203" type="line"/>
			<point x="368" y="-201"/>
			<point x="472" y="-102"/>
			<point x="472" y="-5" type="curve" smooth="yes"/>
			<point x="472" y="56"/>
			<point x="438" y="104"/>
			<point x="370" y="121" type="curve" smooth="yes"/>
			<point x="281" y="143" type="line" smooth="yes"/>
			<point x="230" y="156"/>
			<point x="203" y="174"/>
			<point x="203" y="211" type="curve" smooth="yes"/>
			<point x="203" y="260"/>
			<point x="234" y="293"/>
			<point x="340" y="293" type="curve" smooth="yes"/>
			<point x="364" y="293"/>
			<point x="389" y="295"/>
			<point x="409" y="293" type="curve"/>
			<point x="409" y="430" type="line"/>
			<point x="392" y="428"/>
			<point x="369" y="427"/>
			<point x="347" y="427" type="curve" smooth="yes"/>
			<point x="271" y="427"/>
			<point x="226" y="455"/>
			<point x="226" y="504" type="curve" smooth="yes"/>
			<point x="226" y="558"/>
			<point x="286" y="591"/>
			<point x="445" y="603" type="curve"/>
			<point x="448" y="711" type="line"/>
			<point x="35" y="716" type="line"/>
			<point x="35" y="575" type="line"/>
			<point x="261" y="590" type="line"/>
			<point x="264" y="598" type="line"/>
			<point x="147" y="573"/>
			<point x="76" y="523"/>
			<point x="76" y="446" type="curve" smooth="yes"/>
			<point x="76" y="390"/>
			<point x="109" y="322"/>
			<point x="261" y="310" type="curve"/>
			<point x="261" y="317" type="line"/>
			<point x="110" y="305"/>
			<point x="43" y="235"/>
			<point x="43" y="158" type="curve" smooth="yes"/>
			<point x="43" y="92"/>
			<point x="79" y="35"/>
			<point x="192" y="10" type="curve" smooth="yes"/>
			<point x="286" y="-11" type="line" smooth="yes"/>
			<point x="331" y="-21"/>
			<point x="346" y="-40"/>
			<point x="346" y="-72" type="curve" smooth="yes"/>
			<point x="346" y="-112"/>
			<point x="310" y="-161"/>
			<point x="162" y="-169" type="curve"/>
		</contour>
	</outline>
</glyph>
<glyph name="omicron" format="1">
	<unicode hex="03BF"/>
	<advance width="560"/>
	<outline>
		<contour>
			<point x="275" y="-16" type="curve" smooth="yes"/>
			<point x="426" y="-16"/>
			<point x="534" y="82"/>
			<point x="534" y="251" type="curve" smooth="yes"/>
			<point x="534" y="419"/>
			<point x="435" y="503"/>
			<point x="284" y="503" type="curve" smooth="yes"/>
			<point x="130" y="503"/>
			<point x="26" y="410"/>
			<point x="26" y="244" type="curve" smooth="yes"/>
			<point x="26" y="75"/>
			<point x="132" y="-16"/>
		</contour>
		<contour>
			<point x="299" y="20" type="curve" smooth="yes"/>
			<point x="248" y="20"/>
			<point x="202" y="125"/>
			<point x="202" y="353" type="curve" smooth="yes"/>
			<point x="202" y="425"/>
			<point x="225" y="467"/>
			<point x="261" y="467" type="curve" smooth="yes"/>
			<point x="309" y="467"/>
			<point x="358" y="353"/>
			<point x="358" y="133" type="curve" smooth="yes"/>
			<point x="358" y="61"/>
			<point x="338" y="20"/>
		</contour>
		<contour>
			<point name="aboveLC" x="293" y="520" type="move"/>
		</contour>
	</outline>
</glyph>
<glyph name="pi" format="1">
	<unicode hex="03C0"/>
	<advance width="623"/>
	<outline>
		<contour>
			<point x="26" y="322" type="line"/>
			<point x="222" y="353" type="line"/>
			<point x="402" y="353" type="line"/>
			<point x="599" y="343" type="line"/>
			<point x="591" y="494" type="line"/>
			<point x="261" y="494" type="line" smooth="yes"/>
			<point x="128" y="494"/>
			<point x="64" y="456"/>
			<point x="13" y="380" type="curve"/>
		</contour>
		<contour>
			<point x="454" y="-16" type="curve" smooth="yes"/>
			<point x="519" y="-16"/>
			<point x="564" y="18"/>
			<point x="589" y="91" type="curve"/>
			<point x="577" y="106" type="line"/>
			<point x="561" y="98"/>
			<point x="550" y="95"/>
			<point x="528" y="95" type="curve" smooth="yes"/>
			<point x="497" y="95"/>
			<point x="473" y="122"/>
			<point x="470" y="182" type="curve" smooth="yes"/>
			<point x="459" y="413" type="line"/>
			<point x="350" y="413" type="line"/>
			<point x="340" y="310"/>
			<point x="327" y="194"/>
			<point x="327" y="111" type="curve" smooth="yes"/>
			<point x="327" y="23"/>
			<point x="385" y="-16"/>
		</contour>
		<contour>
			<point x="121" y="-16" type="curve" smooth="yes"/>
			<point x="204" y="-16"/>
			<point x="239" y="50"/>
			<point x="245" y="179" type="curve" smooth="yes"/>
			<point x="248" y="243"/>
			<point x="251" y="355"/>
			<point x="251" y="413" type="curve"/>
			<point x="218" y="413" type="line"/>
			<point x="210" y="352"/>
			<point x="206" y="216"/>
			<point x="189" y="136" type="curve"/>
			<point x="210" y="125" type="line"/>
			<point x="219" y="165" type="line"/>
			<point x="50" y="142" type="line"/>
			<point x="34" y="122"/>
			<point x="27" y="95"/>
			<point x="27" y="70" type="curve" smooth="yes"/>
			<point x="27" y="16"/>
			<point x="70" y="-16"/>
		</contour>
	</outline>
</glyph>
<glyph name="rho" format="2">
	<unicode hex="03C1"/>
	<advance width="574"/>
	<outline>
		<contour>
			<point x="45" y="-189" type="line"/>
			<point x="53" y="-195" type="line"/>
			<point x="261" y="-161" type="line"/>
			<point x="226" y="50" type="line"/>
			<point x="231" y="64" type="line"/>
			<point x="231" y="394" type="line" smooth="yes"/>
			<point x="231" y="442"/>
			<point x="249" y="468"/>
			<point x="284" y="468" type="curve" smooth="yes"/>
			<point x="325" y="468"/>
			<point x="374" y="387"/>
			<point x="374" y="211" type="curve" smooth="yes"/>
			<point x="374" y="88"/>
			<point x="327" y="54"/>
			<point x="276" y="54" type="curve" smooth="yes"/>
			<point x="257" y="54"/>
			<point x="238" y="61"/>
			<point x="223" y="74" type="curve"/>
			<point x="213" y="66" type="line"/>
			<point x="239" y="22"/>
			<point x="282" y="-16"/>
			<point x="348" y="-16" type="curve" smooth="yes"/>
			<point x="452" y="-16"/>
			<point x="548" y="75"/>
			<point x="548" y="241" type="curve" smooth="yes"/>
			<point x="548" y="429"/>
			<point x="428" y="503"/>
			<point x="304" y="503" type="curve" smooth="yes"/>
			<point x="152" y="503"/>
			<point x="56" y="427"/>
			<point x="56" y="206" type="curve" smooth="yes"/>
			<point x="56" y="65" type="line"/>
		</contour>
	</outline>
	<anchor name="aboveLC" x="309" y="520"/>
</glyph>
<glyph name="sigma" format="2">
	<unicode hex="03C3"/>
	<advance width="633"/>
	<outline>
		<contour>
			<point x="271" y="-16" type="curve" smooth="yes"/>
			<point x="430" y="-16"/>
			<point x="524" y="98"/>
			<point x="524" y="206" type="curve" smooth="yes"/>
			<point x="524" y="331"/>
			<point x="374" y="419"/>
			<point x="277" y="448" type="curve"/>
			<point x="248" y="441" type="line"/>
			<point x="320" y="441"/>
			<point x="358" y="271"/>
			<point x="358" y="138" type="curve" smooth="yes"/>
			<point x="358" y="70"/>
			<point x="345" y="20"/>
			<point x="298" y="20" type="curve" smooth="yes"/>
			<point x="254" y="20"/>
			<point x="202" y="108"/>
			<point x="202" y="271" type="curve" smooth="yes"/>
			<point x="202" y="368"/>
			<point x="231" y="440"/>
			<point x="300" y="440" type="curve"/>
			<point x="341" y="415" type="line"/>
			<point x="613" y="358" type="line"/>
			<point x="606" y="502" type="line"/>
			<point x="373" y="495" type="line" smooth="yes"/>
			<point x="117" y="487"/>
			<point x="26" y="397"/>
			<point x="26" y="237" type="curve" smooth="yes"/>
			<point x="26" y="75"/>
			<point x="135" y="-16"/>
		</contour>
	</outline>
</glyph>
<glyph name="chi" format="2">
	<unicode hex="03C7"/>
	<advance width="569"/>
	<outline>
		<contour>
			<point x="12" y="363" type="line"/>
			<point x="28" y="370"/>
			<point x="49" y="375"/>
			<point x="92" y="375" type="curve" smooth="yes"/>
			<point x="172" y="375"/>
			<point x="224" y="345"/>
			<point x="255" y="237" type="curve" smooth="yes"/>
			<point x="265" y="202" type="line"/>
			<point x="286" y="212" type="line"/>
			<point x="253" y="374" type="line" smooth="yes"/>
			<point x="238" y="449"/>
			<point x="184" y="501"/>
			<point x="127" y="501" type="curve" smooth="yes"/>
			<point x="67" y="501"/>
			<point x="22" y="462"/>
			<point x="0" y="379" type="curve"/>
		</contour>
		<contour>
			<point x="34" y="-189" type="line"/>
			<point x="212" y="-199" type="line"/>
			<point x="333" y="63" type="line"/>
			<point x="565" y="471" type="line"/>
			<point x="554" y="485" type="line"/>
			<point x="384" y="497" type="line"/>
			<point x="268" y="249" type="line"/>
			<point x="24" y="-178" type="line"/>
		</contour>
		<contour>
			<point x="468" y="-205" type="curve" smooth="yes"/>
			<point x="537" y="-205"/>
			<point x="565" y="-163"/>
			<point x="585" y="-87" type="curve"/>
			<point x="579" y="-71" type="line"/>
			<point x="569" y="-75"/>
			<point x="539" y="-79"/>
			<point x="521" y="-79" type="curve" smooth="yes"/>
			<point x="446" y="-79"/>
			<point x="385" y="-41"/>
			<point x="344" y="71" type="curve" smooth="yes"/>
			<point x="334" y="98" type="line"/>
			<point x="319" y="89" type="line"/>
			<point x="341" y="-57" type="line" smooth="yes"/>
			<point x="358" y="-169"/>
			<point x="420" y="-205"/>
		</contour>
	</outline>
</glyph>
<glyph name="kai" format="2">
	<unicode hex="03D7"/>
	<advance width="724"/>
	<outline>
		<contour>
			<point x="169" y="-15" type="line"/>
			<point x="334" y="0" type="line"/>
			<point x="343" y="239" type="line"/>
			<point x="343" y="376" type="line" smooth="yes"/>
			<point x="343" y="461"/>
			<point x="291" y="498"/>
			<point x="229" y="498" type="curve" smooth="yes"/>
			<point x="173" y="498"/>
			<point x="134" y="462"/>
			<point x="111" y="419" type="curve"/>
			<point x="115" y="406" type="line"/>
			<point x="136" y="406" type="line" smooth="yes"/>
			<point x="164" y="406"/>
			<point x="174" y="396"/>
			<point x="174" y="346" type="curve" smooth="yes"/>
			<point x="174" y="246" type="line"/>
			<point x="161" y="-9" type="line"/>
		</contour>
		<contour>
			<point x="324" y="174" type="line"/>
			<point x="342" y="218"/>
			<point x="361" y="249"/>
			<point x="383" y="282" type="curve"/>
			<point x="422" y="332"/>
			<point x="460" y="370"/>
			<point x="493" y="397" type="curve"/>
			<point x="403" y="323" type="line"/>
			<point x="528" y="336" type="line" smooth="yes"/>
			<point x="601" y="344"/>
			<point x="644" y="369"/>
			<point x="644" y="430" type="curve" smooth="yes"/>
			<point x="644" y="476"/>
			<point x="621" y="496"/>
			<point x="594" y="503" type="curve"/>
			<point x="545" y="496"/>
			<point x="514" y="482"/>
			<point x="469" y="444" type="curve" smooth="yes"/>
			<point x="409" y="392"/>
			<point x="341" y="277"/>
			<point x="307" y="187" type="curve"/>
		</contour>
		<contour>
			<point x="306" y="-232" type="curve" smooth="yes"/>
			<point x="483" y="-232"/>
			<point x="614" y="-117"/>
			<point x="672" y="119" type="curve"/>
			<point x="662" y="131" type="line"/>
			<point x="654" y="130"/>
			<point x="644" y="128"/>
			<point x="624" y="128" type="curve" smooth="yes"/>
			<point x="532" y="128"/>
			<point x="450" y="166"/>
			<point x="382" y="308" type="curve"/>
			<point x="367" y="281" type="line"/>
			<point x="410" y="38"/>
			<point x="498" y="-16"/>
			<point x="559" y="-16" type="curve" smooth="yes"/>
			<point x="572" y="-16"/>
			<point x="615" y="-9"/>
			<point x="627" y="-2" type="curve"/>
			<point x="612" y="4" type="line"/>
			<point x="547" y="-63"/>
			<point x="457" y="-98"/>
			<point x="321" y="-98" type="curve" smooth="yes"/>
			<point x="170" y="-98"/>
			<point x="83" y="-53"/>
			<point x="36" y="52" type="curve"/>
			<point x="10" y="45" type="line"/>
			<point x="10" y="-108"/>
			<point x="105" y="-232"/>
		</contour>
	</outline>
</glyph>
<glyph name="Dzhe" format="1">
	<unicode hex="040F"/>
	<advance width="742"/>
	<outline>
		<contour>
			<point x="93" y="0" type="curve"/>
			<point x="297" y="0" type="line"/>
			<point x="294" y="101"/>
			<point x="294" y="205"/>
			<point x="294" y="310" type="curve" smooth="yes"/>
			<point x="294" y="341" type="line" smooth="yes"/>
			<point x="294" y="445"/>
			<point x="294" y="549"/>
			<point x="297" y="652" type="curve"/>
			<point x="93" y="652" type="line"/>
			<point x="96" y="551"/>
			<point x="96" y="447"/>
			<point x="96" y="342" type="curve" smooth="yes"/>
			<point x="96" y="310" type="line" smooth="yes"/>
			<point x="96" y="207"/>
			<point x="96" y="103"/>
		</contour>
		<contour>
			<point x="445" y="0" type="curve"/>
			<point x="649" y="0" type="line"/>
			<point x="646" y="103"/>
			<point x="646" y="207"/>
			<point x="646" y="310" type="curve" smooth="yes"/>
			<point x="646" y="342" type="line" smooth="yes"/>
			<point x="646" y="447"/>
			<point x="646" y="551"/>
			<point x="649" y="652" type="curve"/>
			<point x="445" y="652" type="line"/>
			<point x="448" y="549"/>
			<point x="448" y="445"/>
			<point x="448" y="342" type="curve" smooth="yes"/>
			<point x="448" y="311" type="line" smooth="yes"/>
			<point x="448" y="205"/>
			<point x="448" y="101"/>
		</contour>
		<contour>
			<point x="28" y="617" type="line"/>
			<point x="172" y="602" type="line"/>
			<point x="205" y="602" type="line"/>
			<point x="352" y="617" type="line"/>
			<point x="352" y="652" type="line"/>
			<point x="28" y="652" type="line"/>
		</contour>
		<contour>
			<point x="390" y="617" type="line"/>
			<point x="534" y="602" type="line"/>
			<point x="565" y="602" type="line"/>
			<point x="714" y="617" type="line"/>
			<point x="714" y="652" type="line"/>
			<point x="390" y="652" type="line"/>
		</contour>
		<contour>
			<point x="28" y="0" type="line"/>
			<point x="195" y="0" type="line"/>
			<point x="195" y="50" type="line"/>
			<point x="179" y="50" type="line"/>
			<point x="28" y="35" type="line"/>
		</contour>
		<contour>
			<point x="714" y="0" type="line"/>
			<point x="714" y="35" type="line"/>
			<point x="563" y="50" type="line"/>
			<point x="547" y="50" type="line"/>
			<point x="547" y="0" type="line"/>
		</contour>
		<contour>
			<point x="308" y="18" type="line"/>
			<point x="343" y="-220" type="line"/>
			<point x="399" y="-220" type="line"/>
			<point x="434" y="18" type="line"/>
		</contour>
		<contour>
			<point x="547" y="0" type="line"/>
			<point x="547" y="38" type="line"/>
			<point x="195" y="38" type="line"/>
			<point x="195" y="0" type="line"/>
		</contour>
	</outline>
</glyph>
<glyph name="Ze" format="2">
	<unicode hex="0417"/>
	<advance width="565"/>
	<outline>
		<contour>
			<point x="123" y="34" type="curve"/>
			<point x="177" y="5" type="line"/>
			<point x="168" y="110" type="line" smooth="yes"/>
			<point x="160" y="186"/>
			<point x="131" y="205"/>
			<point x="88" y="205" type="curve" smooth="yes"/>
			<point x="61" y="205"/>
			<point x="33" y="192"/>
			<point x="20" y="157" type="curve"/>
			<point x="20" y="48"/>
			<point x="93" y="-20"/>
			<point x="266" y="-20" type="curve" smooth="yes"/>
			<point x="455" y="-20"/>
			<point x="550" y="70"/>
			<point x="550" y="172" type="curve" smooth="yes"/>
			<point x="550" y="273"/>
			<point x="488" y="345"/>
			<point x="292" y="353" type="curve"/>
			<point x="292" y="349" type="line"/>
			<point x="462" y="361"/>
			<point x="524" y="421"/>
			<point x="524" y="502" type="curve" smooth="yes"/>
			<point x="524" y="597"/>
			<point x="434" y="672"/>
			<point x="272" y="672" type="curve" smooth="yes"/>
			<point x="190" y="672"/>
			<point x="113" y="654"/>
			<point x="62" y="622" type="curve"/>
			<point x="69" y="458" type="line"/>
			<point x="133" y="458" type="line"/>
			<point x="198" y="649" type="line"/>
			<point x="143" y="641" type="line"/>
			<point x="143" y="618" type="line"/>
			<point x="174" y="631"/>
			<point x="195" y="634"/>
			<point x="222" y="634" type="curve" smooth="yes"/>
			<point x="302" y="634"/>
			<point x="339" y="583"/>
			<point x="339" y="489" type="curve" smooth="yes"/>
			<point x="339" y="392"/>
			<point x="295" y="358"/>
			<point x="210" y="358" type="curve" smooth="yes"/>
			<point x="185" y="358" type="line"/>
			<point x="185" y="322" type="line"/>
			<point x="216" y="322" type="line" smooth="yes"/>
			<point x="294" y="322"/>
			<point x="345" y="284"/>
			<point x="345" y="174" type="curve" smooth="yes"/>
			<point x="345" y="68"/>
			<point x="289" y="18"/>
			<point x="205" y="18" type="curve" smooth="yes"/>
			<point x="172" y="18"/>
			<point x="152" y="21"/>
		</contour>
	</outline>
</glyph>
<glyph name="Ucyr" format="2">
	<unicode hex="0423"/>
	<advance width="627"/>
	<outline>
		<contour>
			<point x="5" y="617" type="line"/>
			<point x="169" y="602" type="line"/>
			<point x="222" y="602" type="line"/>
			<point x="345" y="617" type="line"/>
			<point x="345" y="652" type="line"/>
			<point x="5" y="652" type="line"/>
		</contour>
		<contour>
			<point x="320" y="102" type="line"/>
			<point x="415" y="302" type="line"/>
			<point x="247" y="652" type="line"/>
			<point x="28" y="652" type="line"/>
		</contour>
		<contour>
			<point x="79" y="90" type="curve"/>
			<point x="79" y="32"/>
			<point x="107" y="-20"/>
			<point x="185" y="-20" type="curve" smooth="yes"/>
			<point x="253" y="-20"/>
			<point x="306" y="30"/>
			<point x="374" y="185" type="curve" smooth="yes"/>
			<point x="580" y="652" type="line"/>
			<point x="537" y="652" type="line"/>
			<point x="335" y="166" type="line"/>
			<point x="306" y="118"/>
			<point x="287" y="77"/>
			<point x="246" y="49" type="curve"/>
			<point x="261" y="42" type="line"/>
			<point x="279" y="53" type="line"/>
			<point x="247" y="111"/>
			<point x="206" y="145"/>
			<point x="159" y="145" type="curve" smooth="yes"/>
			<point x="121" y="145"/>
			<point x="94" y="126"/>
		</contour>
		<contour>
			<point x="430" y="617" type="line"/>
			<point x="522" y="602" type="line"/>
			<point x="547" y="602" type="line"/>
			<point x="632" y="617" type="line"/>
			<point x="632" y="652" type="line"/>
			<point x="430" y="652" type="line"/>
		</contour>
	</outline>
	<anchor name="aboveUC" x="363" y="682"/>
</glyph>
<glyph name="Che" format="1">
	<unicode hex="0427"/>
	<advance width="723"/>
	<outline>
		<contour>
			<point x="10" y="617" type="line"/>
			<point x="140" y="602" type="line"/>
			<point x="173" y="602" type="line"/>
			<point x="335" y="617" type="line"/>
			<point x="335" y="652" type="line"/>
			<point x="10" y="652" type="line"/>
		</contour>
		<contour>
			<point x="67" y="478" type="line" smooth="yes"/>
			<point x="67" y="288"/>
			<point x="149" y="257"/>
			<point x="310" y="257" type="curve" smooth="yes"/>
			<point x="384" y="257"/>
			<point x="461" y="280"/>
			<point x="531" y="302" type="curve"/>
			<point x="531" y="337" type="line"/>
			<point x="463" y="319"/>
			<point x="396" y="308"/>
			<point x="364" y="308" type="curve" smooth="yes"/>
			<point x="294" y="308"/>
			<point x="262" y="335"/>
			<point x="262" y="453" type="curve" smooth="yes"/>
			<point x="262" y="500"/>
			<point x="263" y="588"/>
			<point x="265" y="652" type="curve"/>
			<point x="67" y="652" type="line"/>
		</contour>
		<contour>
			<point x="356" y="0" type="line"/>
			<point x="695" y="0" type="line"/>
			<point x="695" y="35" type="line"/>
			<point x="543" y="50" type="line"/>
			<point x="512" y="50" type="line"/>
			<point x="356" y="35" type="line"/>
		</contour>
		<contour>
			<point x="366" y="617" type="line"/>
			<point x="512" y="602" type="line"/>
			<point x="543" y="602" type="line"/>
			<point x="695" y="617" type="line"/>
			<point x="695" y="652" type="line"/>
			<point x="366" y="652" type="line"/>
		</contour>
		<contour>
			<point x="423" y="0" type="curve"/>
			<point x="627" y="0" type="line"/>
			<point x="624" y="103"/>
			<point x="624" y="207"/>
			<point x="624" y="310" type="curve" smooth="yes"/>
			<point x="624" y="342" type="line" smooth="yes"/>
			<point x="624" y="447"/>
			<point x="624" y="551"/>
			<point x="627" y="652" type="curve"/>
			<point x="423" y="652" type="line"/>
			<point x="426" y="549"/>
			<point x="426" y="445"/>
			<point x="426" y="342" type="curve" smooth="yes"/>
			<point x="426" y="295" type="line" smooth="yes"/>
			<point x="426" y="205"/>
			<point x="426" y="101"/>
		</contour>
		<contour>
			<point name="aboveUC" x="356" y="682" type="move"/>
		</contour>
	</outline>
</glyph>
<glyph name="Ya" format="1">
	<unicode hex="042F"/>
	<advance width="683"/>
	<outline>
		<contour>
			<point x="0" y="0" type="line"/>
			<point x="54" y="-10"/>
			<point x="84" y="-10"/>
			<point x="132" y="-10" type="curve" smooth="yes"/>
			<point x="207" y="-10"/>
			<point x="238" y="14"/>
			<point x="259" y="84" type="curve" smooth="yes"/>
			<point x="290" y="188" type="line" smooth="yes"/>
			<point x="320" y="290"/>
			<point x="336" y="300"/>
			<point x="393" y="300" type="curve" smooth="yes"/>
			<point x="497" y="300" type="line"/>
			<point x="497" y="340" type="line"/>
			<point x="373" y="340" type="line" smooth="yes"/>
			<point x="294" y="340"/>
			<point x="254" y="379"/>
			<point x="254" y="471" type="curve" smooth="yes"/>
			<point x="254" y="552"/>
			<point x="287" y="610"/>
			<point x="360" y="610" type="curve" smooth="yes"/>
			<point x="499" y="610" type="line"/>
			<point x="499" y="652" type="line"/>
			<point x="312" y="652" type="line" smooth="yes"/>
			<point x="148" y="652"/>
			<point x="64" y="580"/>
			<point x="64" y="482" type="curve" smooth="yes"/>
			<point x="64" y="391"/>
			<point x="133" y="321"/>
			<point x="327" y="309" type="curve"/>
			<point x="327" y="322" type="line"/>
			<point x="132" y="299"/>
			<point x="122" y="250"/>
			<point x="85" y="141" type="curve" smooth="yes"/>
			<point x="43" y="16" type="line"/>
			<point x="148" y="48" type="line"/>
			<point x="0" y="30" type="line"/>
		</contour>
		<contour>
			<point x="338" y="0" type="line"/>
			<point x="668" y="0" type="line"/>
			<point x="668" y="35" type="line"/>
			<point x="517" y="50" type="line"/>
			<point x="461" y="50" type="line"/>
			<point x="338" y="35" type="line"/>
		</contour>
		<contour>
			<point x="401" y="0" type="curve"/>
			<point x="601" y="0" type="line"/>
			<point x="598" y="101"/>
			<point x="598" y="205"/>
			<point x="598" y="310" type="curve" smooth="yes"/>
			<point x="598" y="342" type="line" smooth="yes"/>
			<point x="598" y="445"/>
			<point x="598" y="549"/>
			<point x="601" y="652" type="curve"/>
			<point x="401" y="652" type="line"/>
			<point x="404" y="551"/>
			<point x="404" y="447"/>
			<point x="404" y="333" type="curve" smooth="yes"/>
			<point x="404" y="311" type="line" smooth="yes"/>
			<point x="404" y="207"/>
			<point x="404" y="103"/>
		</contour>
		<contour>
			<point x="499" y="602" type="line"/>
			<point x="517" y="602" type="line"/>
			<point x="668" y="617" type="line"/>
			<point x="668" y="652" type="line"/>
			<point x="499" y="652" type="line"/>
		</contour>
		<contour>
			<point name="aboveUC" x="365" y="682" type="move"/>
		</contour>
	</outline>
</glyph>
<glyph name="zhe" format="1">
	<unicode hex="0436"/>
	<advance width="860"/>
	<outline>
		<contour>
			<point x="294" y="0" type="line"/>
			<point x="566" y="0" type="line"/>
			<point x="566" y="30" type="line"/>
			<point x="472" y="40" type="line"/>
			<point x="388" y="40" type="line"/>
			<point x="294" y="30" type="line"/>
		</contour>
		<contour>
			<point x="294" y="457" type="line"/>
			<point x="388" y="447" type="line"/>
			<point x="472" y="447" type="line"/>
			<point x="566" y="457" type="line"/>
			<point x="566" y="487" type="line"/>
			<point x="294" y="487" type="line"/>
		</contour>
		<contour>
			<point x="338" y="0" type="curve"/>
			<point x="522" y="0" type="line"/>
			<point x="520" y="45"/>
			<point x="519" y="148"/>
			<point x="519" y="239" type="curve" smooth="yes"/>
			<point x="519" y="260" type="line" smooth="yes"/>
			<point x="519" y="339"/>
			<point x="520" y="442"/>
			<point x="522" y="487" type="curve"/>
			<point x="338" y="487" type="line"/>
			<point x="340" y="442"/>
			<point x="341" y="339"/>
			<point x="341" y="260" type="curve" smooth="yes"/>
			<point x="341" y="239" type="line" smooth="yes"/>
			<point x="341" y="148"/>
			<point x="340" y="45"/>
		</contour>
		<contour>
			<point x="855" y="0" type="curve"/>
			<point x="855" y="30" type="line"/>
			<point x="691" y="50" type="line"/>
			<point x="823" y="7" type="line"/>
			<point x="793" y="135" type="line" smooth="yes"/>
			<point x="774" y="216"/>
			<point x="717" y="244"/>
			<point x="555" y="253" type="curve"/>
			<point x="550" y="244" type="line"/>
			<point x="597" y="252"/>
			<point x="629" y="267"/>
			<point x="654" y="337" type="curve" smooth="yes"/>
			<point x="663" y="362"/>
			<point x="674" y="379"/>
			<point x="700" y="414" type="curve"/>
			<point x="648" y="359" type="line"/>
			<point x="676" y="346"/>
			<point x="699" y="339"/>
			<point x="730" y="339" type="curve" smooth="yes"/>
			<point x="775" y="339"/>
			<point x="820" y="369"/>
			<point x="820" y="420" type="curve" smooth="yes"/>
			<point x="820" y="460"/>
			<point x="800" y="489"/>
			<point x="757" y="503" type="curve"/>
			<point x="693" y="495"/>
			<point x="658" y="451"/>
			<point x="626" y="351" type="curve" smooth="yes"/>
			<point x="600" y="271"/>
			<point x="564" y="266"/>
			<point x="526" y="266" type="curve" smooth="yes"/>
			<point x="430" y="266" type="line"/>
			<point x="430" y="234" type="line"/>
			<point x="524" y="234" type="line" smooth="yes"/>
			<point x="585" y="234"/>
			<point x="604" y="222"/>
			<point x="614" y="168" type="curve" smooth="yes"/>
			<point x="630" y="78" type="line" smooth="yes"/>
			<point x="642" y="13"/>
			<point x="677" y="-12"/>
			<point x="756" y="-12" type="curve" smooth="yes"/>
			<point x="791" y="-12"/>
			<point x="829" y="-6"/>
		</contour>
		<contour>
			<point x="5" y="0" type="line"/>
			<point x="31" y="-6"/>
			<point x="69" y="-12"/>
			<point x="104" y="-12" type="curve" smooth="yes"/>
			<point x="183" y="-12"/>
			<point x="218" y="13"/>
			<point x="230" y="78" type="curve" smooth="yes"/>
			<point x="246" y="168" type="line" smooth="yes"/>
			<point x="256" y="222"/>
			<point x="275" y="234"/>
			<point x="336" y="234" type="curve" smooth="yes"/>
			<point x="430" y="234" type="line"/>
			<point x="430" y="266" type="line"/>
			<point x="334" y="266" type="line" smooth="yes"/>
			<point x="296" y="266"/>
			<point x="260" y="271"/>
			<point x="234" y="351" type="curve" smooth="yes"/>
			<point x="202" y="451"/>
			<point x="167" y="495"/>
			<point x="103" y="503" type="curve"/>
			<point x="60" y="489"/>
			<point x="40" y="460"/>
			<point x="40" y="420" type="curve" smooth="yes"/>
			<point x="40" y="369"/>
			<point x="85" y="339"/>
			<point x="130" y="339" type="curve" smooth="yes"/>
			<point x="161" y="339"/>
			<point x="189" y="346"/>
			<point x="217" y="359" type="curve"/>
			<point x="160" y="414" type="line"/>
			<point x="186" y="379"/>
			<point x="197" y="362"/>
			<point x="206" y="337" type="curve" smooth="yes"/>
			<point x="231" y="267"/>
			<point x="263" y="252"/>
			<point x="310" y="244" type="curve"/>
			<point x="305" y="253" type="line"/>
			<point x="143" y="244"/>
			<point x="86" y="216"/>
			<point x="67" y="135" type="curve" smooth="yes"/>
			<point x="37" y="7" type="line"/>
			<point x="169" y="50" type="line"/>
			<point x="5" y="30" type="line"/>
		</contour>
		<contour>
			<point name="aboveLC" x="430" y="520" type="move"/>
		</contour>
	</outline>
</glyph>
<glyph name="em" format="1">
	<unicode hex="043C"/>
	<advance width="739"/>
	<outline>
		<contour>
			<point x="279" y="35" type="line"/>
			<point x="349" y="35" type="line"/>
			<point x="516" y="487" type="line"/>
			<point x="482" y="487" type="line"/>
			<point x="373" y="185" type="line"/>
			<point x="395" y="185" type="line"/>
			<point x="280" y="487" type="line"/>
			<point x="101" y="487" type="line"/>
		</contour>
		<contour>
			<point x="487" y="0" type="line"/>
			<point x="672" y="0" type="line"/>
			<point x="670" y="45"/>
			<point x="669" y="148"/>
			<point x="669" y="210" type="curve" smooth="yes"/>
			<point x="669" y="277" type="line" smooth="yes"/>
			<point x="669" y="339"/>
			<point x="670" y="442"/>
			<point x="672" y="487" type="curve"/>
			<point x="499" y="487" type="line"/>
			<point x="487" y="185" type="line"/>
		</contour>
		<contour>
			<point x="23" y="0" type="line"/>
			<point x="191" y="0" type="line"/>
			<point x="191" y="30" type="line"/>
			<point x="120" y="35" type="line"/>
			<point x="101" y="35" type="line"/>
			<point x="23" y="30" type="line"/>
		</contour>
		<contour>
			<point x="432" y="0" type="line"/>
			<point x="716" y="0" type="line"/>
			<point x="716" y="30" type="line"/>
			<point x="622" y="40" type="line"/>
			<point x="526" y="40" type="line"/>
			<point x="432" y="30" type="line"/>
		</contour>
		<contour>
			<point x="91" y="0" type="line"/>
			<point x="131" y="0" type="line"/>
			<point x="131" y="186" type="line"/>
			<point x="119" y="487" type="line"/>
			<point x="91" y="487" type="line"/>
		</contour>
		<contour>
			<point x="28" y="457" type="line"/>
			<point x="108" y="447" type="line"/>
			<point x="117" y="447" type="line"/>
			<point x="117" y="487" type="line"/>
			<point x="28" y="487" type="line"/>
		</contour>
		<contour>
			<point x="574" y="447" type="line"/>
			<point x="622" y="447" type="line"/>
			<point x="716" y="457" type="line"/>
			<point x="716" y="487" type="line"/>
			<point x="574" y="487" type="line"/>
		</contour>
	</outline>
</glyph>
<glyph name="ya" format="2">
	<unicode hex="044F"/>
	<advance width="589"/>
	<outline>
		<contour>
			<point x="5" y="0" type="line"/>
			<point x="52" y="-9"/>
			<point x="84" y="-12"/>
			<point x="116" y="-12" type="curve" smooth="yes"/>
			<point x="194" y="-12"/>
			<point x="217" y="7"/>
			<point x="233" y="57" type="curve" smooth="yes"/>
			<point x="258" y="136" type="line" smooth="yes"/>
			<point x="271" y="177"/>
			<point x="280" y="211"/>
			<point x="320" y="211" type="curve" smooth="yes"/>
			<point x="424" y="211" type="line"/>
			<point x="424" y="244" type="line"/>
			<point x="325" y="244" type="line" smooth="yes"/>
			<point x="264" y="244"/>
			<point x="238" y="280"/>
			<point x="238" y="349" type="curve" smooth="yes"/>
			<point x="238" y="428"/>
			<point x="276" y="455"/>
			<point x="323" y="455" type="curve" smooth="yes"/>
			<point x="424" y="455" type="line"/>
			<point x="424" y="487" type="line"/>
			<point x="282" y="487" type="line" smooth="yes"/>
			<point x="124" y="487"/>
			<point x="64" y="436"/>
			<point x="64" y="357" type="curve" smooth="yes"/>
			<point x="64" y="269"/>
			<point x="126" y="241"/>
			<point x="282" y="223" type="curve"/>
			<point x="282" y="235" type="line"/>
			<point x="154" y="230"/>
			<point x="99" y="187"/>
			<point x="79" y="115" type="curve" smooth="yes"/>
			<point x="48" y="3" type="line"/>
			<point x="155" y="44" type="line"/>
			<point x="5" y="31" type="line"/>
		</contour>
		<contour>
			<point x="336" y="0" type="curve"/>
			<point x="522" y="0" type="line"/>
			<point x="520" y="45"/>
			<point x="519" y="148"/>
			<point x="519" y="210" type="curve" smooth="yes"/>
			<point x="519" y="277" type="line" smooth="yes"/>
			<point x="519" y="339"/>
			<point x="520" y="442"/>
			<point x="522" y="487" type="curve"/>
			<point x="336" y="487" type="line"/>
			<point x="338" y="442"/>
			<point x="339" y="339"/>
			<point x="339" y="277" type="curve" smooth="yes"/>
			<point x="339" y="223" type="line" smooth="yes"/>
			<point x="339" y="148"/>
			<point x="338" y="45"/>
		</contour>
		<contour>
			<point x="286" y="0" type="line"/>
			<point x="566" y="0" type="line"/>
			<point x="566" y="30" type="line"/>
			<point x="472" y="40" type="line"/>
			<point x="376" y="40" type="line"/>
			<point x="286" y="30" type="line"/>
		</contour>
		<contour>
			<point x="424" y="447" type="line"/>
			<point x="472" y="447" type="line"/>
			<point x="566" y="457" type="line"/>
			<point x="566" y="487" type="line"/>
			<point x="424" y="487" type="line"/>
		</contour>
	</outline>
	<anchor name="aboveLC" x="323" y="520"/>
</glyph>
<glyph name="dje" format="2">
	<unicode hex="0452"/>
	<advance width="605"/>
	<outline>
		<contour>
			<point x="71" y="0" type="curve"/>
			<point x="267" y="0" type="line"/>
			<point x="265" y="45"/>
			<point x="264" y="148"/>
			<point x="264" y="210" type="curve" smooth="yes"/>
			<point x="264" y="377" type="line"/>
			<point x="261" y="386" type="line"/>
			<point x="261" y="561" type="line"/>
			<point x="264" y="712" type="line"/>
			<point x="252" y="721" type="line"/>
			<point x="20" y="676" type="line"/>
			<point x="20" y="651" type="line"/>
			<point x="74" y="644" type="line"/>
			<point x="74" y="210" type="line" smooth="yes"/>
			<point x="74" y="148"/>
			<point x="73" y="45"/>
		</contour>
		<contour>
			<point x="27" y="0" type="line"/>
			<point x="303" y="0" type="line"/>
			<point x="303" y="30" type="line"/>
			<point x="211" y="40" type="line"/>
			<point x="113" y="40" type="line"/>
			<point x="27" y="30" type="line"/>
		</contour>
		<contour>
			<point x="17" y="538" type="line"/>
			<point x="393" y="538" type="line"/>
			<point x="393" y="575" type="line"/>
			<point x="17" y="575" type="line"/>
		</contour>
		<contour>
			<point x="161" y="-165" type="curve"/>
			<point x="180" y="-201"/>
			<point x="222" y="-232"/>
			<point x="296" y="-232" type="curve" smooth="yes"/>
			<point x="355" y="-232"/>
			<point x="416" y="-221"/>
			<point x="481" y="-156" type="curve" smooth="yes"/>
			<point x="534" y="-103"/>
			<point x="569" y="-7"/>
			<point x="569" y="148" type="curve" smooth="yes"/>
			<point x="569" y="373"/>
			<point x="498" y="457"/>
			<point x="393" y="457" type="curve" smooth="yes"/>
			<point x="324" y="457"/>
			<point x="272" y="425"/>
			<point x="227" y="360" type="curve"/>
			<point x="239" y="353" type="line"/>
			<point x="259" y="374"/>
			<point x="278" y="381"/>
			<point x="302" y="381" type="curve" smooth="yes"/>
			<point x="362" y="381"/>
			<point x="381" y="319"/>
			<point x="381" y="139" type="curve" smooth="yes"/>
			<point x="381" y="55"/>
			<point x="379" y="-25"/>
			<point x="376" y="-90" type="curve" smooth="yes"/>
			<point x="372" y="-177"/>
			<point x="360" y="-208"/>
			<point x="293" y="-219" type="curve"/>
			<point x="353" y="-213" type="line"/>
			<point x="333" y="-151" type="line" smooth="yes"/>
			<point x="319" y="-109"/>
			<point x="281" y="-88"/>
			<point x="246" y="-88" type="curve" smooth="yes"/>
			<point x="206" y="-88"/>
			<point x="164" y="-116"/>
		</contour>
	</outline>
</glyph>
<glyph name="ieukran" format="1">
	<unicode hex="0454"/>
	<advance width="523"/>
	<outline>
		<contour>
			<point x="280" y="-16" type="curve" smooth="yes"/>
			<point x="386" y="-16"/>
			<point x="452" y="22"/>
			<point x="495" y="105" type="curve"/>
			<point x="474" y="119" type="line"/>
			<point x="446" y="85"/>
			<point x="417" y="63"/>
			<point x="352" y="63" type="curve" smooth="yes"/>
			<point x="271" y="63"/>
			<point x="222" y="110"/>
			<point x="222" y="262" type="curve" smooth="yes"/>
			<point x="222" y="424"/>
			<point x="267" y="469"/>
			<point x="339" y="469" type="curve" smooth="yes"/>
			<point x="356" y="469"/>
			<point x="373" y="465"/>
			<point x="406" y="450" type="curve"/>
			<point x="352" y="482" type="line"/>
			<point x="404" y="345" type="line"/>
			<point x="466" y="345" type="line"/>
			<point x="474" y="463" type="line"/>
			<point x="419" y="489"/>
			<point x="369" y="503"/>
			<point x="308" y="503" type="curve" smooth="yes"/>
			<point x="126" y="503"/>
			<point x="22" y="417"/>
			<point x="22" y="241" type="curve" smooth="yes"/>
			<point x="22" y="61"/>
			<point x="136" y="-16"/>
		</contour>
		<contour>
			<point x="107" y="243" type="line"/>
			<point x="417" y="237" type="line"/>
			<point x="417" y="280" type="line"/>
			<point x="107" y="276" type="line"/>
		</contour>
		<contour>
			<point name="aboveLC" x="302" y="520" type="move"/>
		</contour>
	</outline>
</glyph>
<glyph name="lje" format="2">
	<unicode hex="0459"/>
	<advance width="805"/>
	<outline>
		<contour>
			<point x="85" y="-10" type="curve" smooth="yes"/>
			<point x="141" y="-10"/>
			<point x="179" y="14"/>
			<point x="214" y="151" type="curve" smooth="yes"/>
			<point x="238" y="246"/>
			<point x="251" y="356"/>
			<point x="253" y="487" type="curve"/>
			<point x="216" y="487" type="line"/>
			<point x="214" y="355"/>
			<point x="201" y="253"/>
			<point x="173" y="162" type="curve" smooth="yes"/>
			<point x="159" y="116"/>
			<point x="136" y="90"/>
			<point x="119" y="74" type="curve"/>
			<point x="163" y="100" type="line"/>
			<point x="141" y="129"/>
			<point x="117" y="144"/>
			<point x="86" y="144" type="curve" smooth="yes"/>
			<point x="50" y="144"/>
			<point x="18" y="128"/>
			<point x="1" y="93" type="curve"/>
			<point x="1" y="21"/>
			<point x="35" y="-10"/>
		</contour>
		<contour>
			<point x="145" y="457" type="line"/>
			<point x="228" y="447" type="line"/>
			<point x="236" y="447" type="line"/>
			<point x="236" y="487" type="line"/>
			<point x="145" y="487" type="line"/>
		</contour>
		<contour>
			<point x="236" y="457" type="line"/>
			<point x="404" y="457" type="line"/>
			<point x="404" y="487" type="line"/>
			<point x="236" y="487" type="line"/>
		</contour>
		<contour>
			<point x="445" y="447" type="line"/>
			<point x="493" y="447" type="line"/>
			<point x="587" y="457" type="line"/>
			<point x="587" y="487" type="line"/>
			<point x="445" y="487" type="line"/>
		</contour>
		<contour>
			<point x="303" y="0" type="line"/>
			<point x="445" y="0" type="line"/>
			<point x="445" y="40" type="line"/>
			<point x="397" y="40" type="line"/>
			<point x="303" y="30" type="line"/>
		</contour>
		<contour>
			<point x="347" y="0" type="curve"/>
			<point x="543" y="0" type="line"/>
			<point x="541" y="45"/>
			<point x="540" y="148"/>
			<point x="540" y="210" type="curve" smooth="yes"/>
			<point x="540" y="277" type="line" smooth="yes"/>
			<point x="540" y="339"/>
			<point x="541" y="442"/>
			<point x="543" y="487" type="curve"/>
			<point x="347" y="487" type="line"/>
			<point x="349" y="442"/>
			<point x="350" y="339"/>
			<point x="350" y="277" type="curve" smooth="yes"/>
			<point x="350" y="210" type="line" smooth="yes"/>
			<point x="350" y="148"/>
			<point x="349" y="45"/>
		</contour>
		<contour>
			<point x="445" y="0" type="line"/>
			<point x="567" y="0" type="line" smooth="yes"/>
			<point x="741" y="0"/>
			<point x="793" y="60"/>
			<point x="793" y="151" type="curve" smooth="yes"/>
			<point x="793" y="244"/>
			<point x="734" y="296"/>
			<point x="611" y="296" type="curve" smooth="yes"/>
			<point x="564" y="296"/>
			<point x="509" y="291"/>
			<point x="455" y="279" type="curve"/>
			<point x="455" y="251" type="line"/>
			<point x="483" y="258"/>
			<point x="511" y="261"/>
			<point x="549" y="261" type="curve" smooth="yes"/>
			<point x="596" y="261"/>
			<point x="623" y="237"/>
			<point x="623" y="143" type="curve" smooth="yes"/>
			<point x="623" y="63"/>
			<point x="596" y="30"/>
			<point x="548" y="30" type="curve" smooth="yes"/>
			<point x="445" y="30" type="line"/>
		</contour>
	</outline>
</glyph>
<glyph name="dzhe" format="1">
	<unicode hex="045F"/>
	<advance width="632"/>
	<outline>
		<contour>
			<point x="23" y="0" type="line"/>
			<point x="165" y="0" type="line"/>
			<point x="165" y="40" type="line"/>
			<point x="117" y="40" type="line"/>
			<point x="23" y="30" type="line"/>
		</contour>
		<contour>
			<point x="23" y="457" type="line"/>
			<point x="117" y="447" type="line"/>
			<point x="213" y="447" type="line"/>
			<point x="303" y="457" type="line"/>
			<point x="303" y="487" type="line"/>
			<point x="23" y="487" type="line"/>
		</contour>
		<contour>
			<point x="67" y="0" type="curve"/>
			<point x="263" y="0" type="line"/>
			<point x="261" y="45"/>
			<point x="260" y="148"/>
			<point x="260" y="210" type="curve" smooth="yes"/>
			<point x="260" y="277" type="line" smooth="yes"/>
			<point x="260" y="339"/>
			<point x="261" y="442"/>
			<point x="263" y="487" type="curve"/>
			<point x="67" y="487" type="line"/>
			<point x="69" y="442"/>
			<point x="70" y="339"/>
			<point x="70" y="277" type="curve" smooth="yes"/>
			<point x="70" y="210" type="line" smooth="yes"/>
			<point x="70" y="148"/>
			<point x="69" y="45"/>
		</contour>
		<contour>
			<point x="165" y="0" type="line"/>
			<point x="467" y="0" type="line"/>
			<point x="467" y="35" type="line"/>
			<point x="165" y="35" type="line"/>
		</contour>
		<contour>
			<point x="286" y="-190" type="line"/>
			<point x="344" y="-190" type="line"/>
			<point x="382" y="25" type="line"/>
			<point x="250" y="25" type="line"/>
		</contour>
		<contour>
			<point x="329" y="457" type="line"/>
			<point x="419" y="447" type="line"/>
			<point x="515" y="447" type="line"/>
			<point x="609" y="457" type="line"/>
			<point x="609" y="487" type="line"/>
			<point x="329" y="487" type="line"/>
		</contour>
		<contour>
			<point x="369" y="0" type="curve"/>
			<point x="565" y="0" type="line"/>
			<point x="563" y="45"/>
			<point x="562" y="148"/>
			<point x="562" y="210" type="curve" smooth="yes"/>
			<point x="562" y="277" type="line" smooth="yes"/>
			<point x="562" y="339"/>
			<point x="563" y="442"/>
			<point x="565" y="487" type="curve"/>
			<point x="369" y="487" type="line"/>
			<point x="371" y="442"/>
			<point x="372" y="339"/>
			<point x="372" y="277" type="curve" smooth="yes"/>
			<point x="372" y="210" type="line" smooth="yes"/>
			<point x="372" y="148"/>
			<point x="371" y="45"/>
		</contour>
		<contour>
			<point x="467" y="0" type="line"/>
			<point x="609" y="0" type="line"/>
			<point x="609" y="30" type="line"/>
			<point x="515" y="40" type="line"/>
			<point x="467" y="40" type="line"/>
		</contour>
	</outline>
</glyph>
<glyph name="zhedescender" format="1">
	<unicode hex="0497"/>
	<advance width="909"/>
	<outline>
		<contour>
			<point x="824" y="0" type="line"/>
			<point x="766" y="35" type="line"/>
			<point x="830" y="-180" type="line"/>
			<point x="888" y="-180" type="line"/>
			<point x="896" y="34" type="line"/>
			<point x="759" y="39" type="line"/>
			<point x="759" y="0" type="line"/>
		</contour>
		<component base="zhe"/>
	</outline>
</glyph>
<glyph name="endescender" format="1">
	<unicode hex="04A3"/>
	<advance width="693"/>
	<outline>
		<contour>
			<point x="598" y="0" type="line"/>
			<point x="540" y="35" type="line"/>
			<point x="604" y="-180" type="line"/>
			<point x="662" y="-180" type="line"/>
			<point x="670" y="34" type="line"/>
			<point x="533" y="39" type="line"/>
			<point x="533" y="0" type="line"/>
		</contour>
		<component base="en"/>
	</outline>
</glyph>
<glyph name="ustraight" format="1">
	<unicode hex="04AF"/>
	<advance width="536"/>
	<outline>
		<contour>
			<point x="-10" y="457" type="line"/>
			<point x="73" y="447" type="line"/>
			<point x="207" y="447" type="line"/>
			<point x="291" y="457" type="line"/>
			<point x="291" y="487" type="line"/>
			<point x="-10" y="487" type="line"/>
		</contour>
		<contour>
			<point x="206" y="-100" type="line"/>
			<point x="316" y="-100" type="line"/>
			<point x="483" y="487" type="line"/>
			<point x="433" y="487" type="line"/>
			<point x="309" y="-49" type="line"/>
			<point x="339" y="30" type="line"/>
			<point x="227" y="487" type="line"/>
			<point x="24" y="487" type="line"/>
		</contour>
		<contour>
			<point x="115" y="-222" type="line"/>
			<point x="405" y="-222" type="line"/>
			<point x="405" y="-192" type="line"/>
			<point x="327" y="-182" type="line"/>
			<point x="193" y="-182" type="line"/>
			<point x="115" y="-192" type="line"/>
		</contour>
		<contour>
			<point x="165" y="-222" type="curve"/>
			<point x="355" y="-222" type="line"/>
			<point x="353" y="-126"/>
			<point x="352" y="-53"/>
			<point x="352" y="43" type="curve"/>
			<point x="168" y="43" type="line"/>
			<point x="168" y="-53"/>
			<point x="167" y="-126"/>
		</contour>
		<contour>
			<point x="363" y="457" type="line"/>
			<point x="436" y="447" type="line"/>
			<point x="460" y="447" type="line"/>
			<point x="531" y="457" type="line"/>
			<point x="531" y="487" type="line"/>
			<point x="363" y="487" type="line"/>
		</contour>
		<contour>
			<point name="aboveLC" x="298" y="520" type="move"/>
		</contour>
	</outline>
</glyph>
<glyph name="Hadescender" format="2">
	<unicode hex="04B2"/>
	<advance width="691"/>
	<outline>
		<contour>
			<point x="511" y="0" type="line"/>
			<point x="637" y="0" type="line"/>
			<point x="556" y="38" type="line"/>
			<point x="620" y="-200" type="line"/>
			<point x="676" y="-200" type="line"/>
			<point x="682" y="36" type="line"/>
			<point x="511" y="49" type="line"/>
		</contour>
		<component base="Ha"/>
	</outline>
</glyph>
<glyph name="chedescender" format="1">
	<unicode hex="04B7"/>
	<advance width="639"/>
	<outline>
		<contour>
			<point x="544" y="0" type="line"/>
			<point x="486" y="35" type="line"/>
			<point x="550" y="-180" type="line"/>
			<point x="608" y="-180" type="line"/>
			<point x="616" y="34" type="line"/>
			<point x="479" y="39" type="line"/>
			<point x="479" y="0" type="line"/>
		</contour>
		<component base="che"/>
	</outline>
</glyph>
<glyph name="a.sups" format="1">
	<unicode hex="1D43"/>
	<advance width="357"/>
	<outline>
		<contour>
			<point x="308" y="450" type="curve" smooth="yes"/>
			<point x="308" y="606" type="line" smooth="yes"/>
			<point x="308" y="694"/>
			<point x="273" y="731"/>
			<point x="186" y="731" type="curve" smooth="yes"/>
			<point x="88" y="731"/>
			<point x="34" y="692"/>
			<point x="31" y="637" type="curve"/>
			<point x="36" y="614"/>
			<point x="53" y="603"/>
			<point x="77" y="603" type="curve" smooth="yes"/>
			<point x="103" y="603"/>
			<point x="122" y="623"/>
			<point x="127" y="672" type="curve" smooth="yes"/>
			<point x="131" y="714" type="line"/>
			<point x="84" y="699" type="line"/>
			<point x="113" y="706"/>
			<point x="130" y="708"/>
			<point x="147" y="708" type="curve" smooth="yes"/>
			<point x="189" y="708"/>
			<point x="200" y="690"/>
			<point x="200" y="635" type="curve" smooth="yes"/>
			<point x="200" y="454" type="line"/>
			<point x="207" y="419"/>
			<point x="232" y="397"/>
			<point x="278" y="397" type="curve" smooth="yes"/>
			<point x="320" y="397"/>
			<point x="345" y="411"/>
			<point x="361" y="450" type="curve"/>
			<point x="349" y="457" type="line"/>
			<point x="338" y="438"/>
			<point x="332" y="433"/>
			<point x="323" y="433" type="curve" smooth="yes"/>
			<point x="314" y="433"/>
			<point x="308" y="438"/>
		</contour>
		<contour>
			<point x="122" y="489" type="curve" smooth="yes"/>
			<point x="122" y="533"/>
			<point x="142" y="560"/>
			<point x="180" y="574" type="curve" smooth="yes"/>
			<point x="192" y="578"/>
			<point x="226" y="587"/>
			<point x="258" y="595" type="curve"/>
			<point x="258" y="611" type="line"/>
			<point x="227" y="604"/>
			<point x="179" y="592"/>
			<point x="151" y="584" type="curve" smooth="yes"/>
			<point x="48" y="556"/>
			<point x="20" y="528"/>
			<point x="20" y="479" type="curve" smooth="yes"/>
			<point x="20" y="426"/>
			<point x="56" y="396"/>
			<point x="108" y="396" type="curve" smooth="yes"/>
			<point x="157" y="396"/>
			<point x="178" y="417"/>
			<point x="209" y="448" type="curve" smooth="yes"/>
			<point x="238" y="481" type="line"/>
			<point x="231" y="487" type="line"/>
			<point x="204" y="460" type="line" smooth="yes"/>
			<point x="184" y="446"/>
			<point x="173" y="442"/>
			<point x="161" y="442" type="curve" smooth="yes"/>
			<point x="138" y="442"/>
			<point x="122" y="457"/>
		</contour>
	</outline>
</glyph>
<glyph name="b.sups" format="1">
	<unicode hex="1D47"/>
	<advance width="408"/>
	<outline>
		<contour>
			<point x="54" y="406" type="line"/>
			<point x="80" y="433" type="line"/>
			<point x="18" y="426" type="line"/>
			<point x="18" y="406" type="line"/>
			<point x="147" y="394" type="line"/>
			<point x="165" y="444" type="line"/>
			<point x="165" y="866" type="line"/>
			<point x="156" y="872" type="line"/>
			<point x="13" y="843" type="line"/>
			<point x="13" y="827" type="line"/>
			<point x="54" y="822" type="line"/>
		</contour>
		<contour>
			<point x="273" y="558" type="curve" smooth="yes"/>
			<point x="273" y="479"/>
			<point x="241" y="446"/>
			<point x="203" y="446" type="curve" smooth="yes"/>
			<point x="183" y="446"/>
			<point x="165" y="450"/>
			<point x="149" y="465" type="curve"/>
			<point x="142" y="457" type="line"/>
			<point x="168" y="417"/>
			<point x="200" y="396"/>
			<point x="251" y="396" type="curve" smooth="yes"/>
			<point x="333" y="396"/>
			<point x="391" y="469"/>
			<point x="391" y="563" type="curve" smooth="yes"/>
			<point x="391" y="675"/>
			<point x="332" y="731"/>
			<point x="259" y="731" type="curve" smooth="yes"/>
			<point x="212" y="731"/>
			<point x="171" y="710"/>
			<point x="138" y="667" type="curve"/>
			<point x="145" y="661" type="line"/>
			<point x="168" y="678"/>
			<point x="184" y="683"/>
			<point x="205" y="683" type="curve" smooth="yes"/>
			<point x="245" y="683"/>
			<point x="273" y="648"/>
		</contour>
	</outline>
</glyph>
<glyph name="o.sups" format="1">
	<unicode hex="1D52"/>
	<advance width="381"/>
	<outline>
		<contour>
			<point x="191" y="708" type="curve" smooth="yes"/>
			<point x="227" y="708"/>
			<point x="245" y="665"/>
			<point x="245" y="564" type="curve" smooth="yes"/>
			<point x="245" y="462"/>
			<point x="227" y="419"/>
			<point x="191" y="419" type="curve" smooth="yes"/>
			<point x="155" y="419"/>
			<point x="137" y="462"/>
			<point x="137" y="564" type="curve" smooth="yes"/>
			<point x="137" y="665"/>
			<point x="155" y="708"/>
		</contour>
		<contour>
			<point x="191" y="731" type="curve" smooth="yes"/>
			<point x="93" y="731"/>
			<point x="18" y="663"/>
			<point x="18" y="566" type="curve" smooth="yes"/>
			<point x="18" y="469"/>
			<point x="83" y="396"/>
			<point x="191" y="396" type="curve" smooth="yes"/>
			<point x="298" y="396"/>
			<point x="363" y="467"/>
			<point x="363" y="566" type="curve" smooth="yes"/>
			<point x="363" y="664"/>
			<point x="289" y="731"/>
		</contour>
	</outline>
</glyph>
<glyph name="p.sups" format="2">
	<unicode hex="1D56"/>
	<advance width="404"/>
	<outline>
		<contour>
			<point x="268" y="565" type="curve" smooth="yes"/>
			<point x="268" y="489"/>
			<point x="241" y="446"/>
			<point x="197" y="446" type="curve" smooth="yes"/>
			<point x="175" y="446"/>
			<point x="160" y="450"/>
			<point x="143" y="463" type="curve"/>
			<point x="137" y="459" type="line"/>
			<point x="164" y="417"/>
			<point x="197" y="396"/>
			<point x="240" y="396" type="curve" smooth="yes"/>
			<point x="317" y="396"/>
			<point x="385" y="460"/>
			<point x="385" y="565" type="curve" smooth="yes"/>
			<point x="385" y="675"/>
			<point x="327" y="731"/>
			<point x="256" y="731" type="curve" smooth="yes"/>
			<point x="204" y="731"/>
			<point x="162" y="708"/>
			<point x="132" y="659" type="curve"/>
			<point x="139" y="653" type="line"/>
			<point x="163" y="676"/>
			<point x="182" y="683"/>
			<point x="202" y="683" type="curve" smooth="yes"/>
			<point x="244" y="683"/>
			<point x="268" y="645"/>
		</contour>
		<contour>
			<point x="145" y="284" type="line"/>
			<point x="77" y="284" type="line"/>
			<point x="13" y="277" type="line"/>
			<point x="13" y="257" type="line"/>
			<point x="202" y="257" type="line"/>
			<point x="202" y="277" type="line"/>
		</contour>
		<contour>
			<point x="50" y="257" type="line"/>
			<point x="162" y="257" type="line"/>
			<point x="162" y="678" type="line"/>
			<point x="154" y="725" type="line"/>
			<point x="145" y="731" type="line"/>
			<point x="7" y="687" type="line"/>
			<point x="7" y="672" type="line"/>
			<point x="50" y="667" type="line"/>
		</contour>
	</outline>
</glyph>
<glyph name="z.sups" format="1">
	<unicode hex="1DBB"/>
	<advance width="320"/>
	<outline>
		<contour>
			<point x="21" y="719" type="line"/>
			<point x="16" y="620" type="line"/>
			<point x="56" y="617" type="line"/>
			<point x="92" y="719" type="line"/>
			<point x="52" y="697" type="line"/>
			<point x="197" y="697" type="line"/>
			<point x="197" y="719" type="line"/>
			<point x="12" y="426" type="line"/>
			<point x="12" y="406" type="line"/>
			<point x="296" y="406" type="line"/>
			<point x="303" y="515" type="line"/>
			<point x="262" y="515" type="line"/>
			<point x="225" y="406" type="line"/>
			<point x="271" y="428" type="line"/>
			<point x="118" y="428" type="line"/>
			<point x="118" y="406" type="line"/>
			<point x="296" y="699" type="line"/>
			<point x="296" y="719" type="line"/>
		</contour>
	</outline>
</glyph>
<glyph name="emdash" format="2">
	<unicode hex="2014"/>
	<advance width="850"/>
	<outline>
		<contour>
			<point x="40" y="215" type="line"/>
			<point x="810" y="215" type="line"/>
			<point x="810" y="295" type="line"/>
			<point x="40" y="295" type="line"/>
		</contour>
	</outline>
</glyph>
<glyph name="quoteleft" format="1">
	<unicode hex="2018"/>
	<advance width="218"/>
	<outline>
		<contour>
			<point x="19" y="535" type="curve" smooth="yes"/>
			<point x="19" y="505"/>
			<point x="27" y="474"/>
			<point x="44" y="447" type="curve"/>
			<point x="60" y="435"/>
			<point x="82" y="418"/>
			<point x="115" y="418" type="curve" smooth="yes"/>
			<point x="158" y="418"/>
			<point x="199" y="454"/>
			<point x="199" y="500" type="curve" smooth="yes"/>
			<point x="199" y="528"/>
			<point x="192" y="553"/>
			<point x="156" y="577" type="curve" smooth="yes"/>
			<point x="70" y="634" type="line"/>
			<point x="70" y="565" type="line"/>
			<point x="91" y="633"/>
			<point x="134" y="678"/>
			<point x="200" y="704" type="curve"/>
			<point x="190" y="731" type="line"/>
			<point x="88" y="703"/>
			<point x="19" y="625"/>
		</contour>
	</outline>
</glyph>
<glyph name="fraction" format="1">
	<unicode hex="2044"/>
	<advance width="140"/>
	<outline>
		<contour>
			<point x="-136" y="-35" type="line"/>
			<point x="312" y="632" type="line"/>
			<point x="276" y="655" type="line"/>
			<point x="-172" y="-12" type="line"/>
		</contour>
	</outline>
</glyph>
<glyph name="four.sups" format="1">
	<unicode hex="2074"/>
	<advance width="374"/>
	<outline>
		<contour>
			<point x="27" y="503" type="line"/>
			<point x="346" y="503" type="line"/>
			<point x="346" y="558" type="line"/>
			<point x="54" y="558" type="line"/>
			<point x="54" y="545" type="line"/>
			<point x="196" y="751" type="line"/>
			<point x="186" y="751" type="line"/>
			<point x="186" y="406" type="line"/>
			<point x="289" y="406" type="line"/>
			<point x="289" y="797" type="line"/>
			<point x="207" y="797" type="line"/>
			<point x="27" y="548" type="line"/>
		</contour>
	</outline>
</glyph>
<glyph name="five.sups" format="1">
	<unicode hex="2075"/>
	<advance width="374"/>
	<outline>
		<contour>
			<point x="82" y="618" type="line"/>
			<point x="110" y="618" type="line"/>
			<point x="121" y="774" type="line"/>
			<point x="103" y="728" type="line"/>
			<point x="334" y="728" type="line"/>
			<point x="334" y="794" type="line"/>
			<point x="90" y="794" type="line"/>
			<point x="77" y="611" type="line"/>
			<point x="95" y="602" type="line"/>
			<point x="116" y="606"/>
			<point x="134" y="609"/>
			<point x="156" y="609" type="curve" smooth="yes"/>
			<point x="201" y="609"/>
			<point x="226" y="577"/>
			<point x="226" y="517" type="curve" smooth="yes"/>
			<point x="226" y="458"/>
			<point x="194" y="421"/>
			<point x="152" y="421" type="curve" smooth="yes"/>
			<point x="136" y="421"/>
			<point x="129" y="424"/>
			<point x="114" y="432" type="curve"/>
			<point x="133" y="416" type="line"/>
			<point x="128" y="470" type="line" smooth="yes"/>
			<point x="125" y="505"/>
			<point x="108" y="517"/>
			<point x="79" y="517" type="curve" smooth="yes"/>
			<point x="61" y="517"/>
			<point x="42" y="509"/>
			<point x="35" y="493" type="curve"/>
			<point x="35" y="432"/>
			<point x="86" y="397"/>
			<point x="174" y="397" type="curve" smooth="yes"/>
			<point x="274" y="397"/>
			<point x="351" y="444"/>
			<point x="351" y="526" type="curve" smooth="yes"/>
			<point x="351" y="603"/>
			<point x="290" y="645"/>
			<point x="187" y="645" type="curve" smooth="yes"/>
			<point x="148" y="645"/>
			<point x="115" y="640"/>
			<point x="82" y="628" type="curve"/>
		</contour>
	</outline>
</glyph>
<glyph name="eight.sups" format="1">
	<unicode hex="2078"/>
	<advance width="374"/>
	<outline>
		<contour>
			<point x="36" y="489" type="curve" smooth="yes"/>
			<point x="36" y="432"/>
			<point x="78" y="397"/>
			<point x="175" y="397" type="curve" smooth="yes"/>
			<point x="285" y="397"/>
			<point x="339" y="440"/>
			<point x="339" y="506" type="curve" smooth="yes"/>
			<point x="339" y="562"/>
			<point x="303" y="598"/>
			<point x="232" y="629" type="curve" smooth="yes"/>
			<point x="152" y="662"/>
			<point x="139" y="691"/>
			<point x="139" y="722" type="curve" smooth="yes"/>
			<point x="139" y="757"/>
			<point x="162" y="779"/>
			<point x="189" y="779" type="curve" smooth="yes"/>
			<point x="218" y="779"/>
			<point x="236" y="751"/>
			<point x="236" y="712" type="curve" smooth="yes"/>
			<point x="236" y="678"/>
			<point x="234" y="652"/>
			<point x="223" y="621" type="curve"/>
			<point x="226" y="616" type="line"/>
			<point x="298" y="645"/>
			<point x="327" y="680"/>
			<point x="327" y="714" type="curve" smooth="yes"/>
			<point x="327" y="763"/>
			<point x="288" y="803"/>
			<point x="192" y="803" type="curve" smooth="yes"/>
			<point x="105" y="803"/>
			<point x="41" y="762"/>
			<point x="41" y="696" type="curve" smooth="yes"/>
			<point x="41" y="646"/>
			<point x="78" y="607"/>
			<point x="141" y="579" type="curve" smooth="yes"/>
			<point x="214" y="547"/>
			<point x="235" y="521"/>
			<point x="235" y="485" type="curve" smooth="yes"/>
			<point x="235" y="448"/>
			<point x="219" y="421"/>
			<point x="186" y="421" type="curve" smooth="yes"/>
			<point x="151" y="421"/>
			<point x="131" y="449"/>
			<point x="131" y="500" type="curve" smooth="yes"/>
			<point x="131" y="539"/>
			<point x="136" y="561"/>
			<point x="149" y="587" type="curve"/>
			<point x="145" y="593" type="line"/>
			<point x="74" y="570"/>
			<point x="36" y="537"/>
		</contour>
	</outline>
</glyph>
<glyph name="nine.sups" format="2">
	<unicode hex="2079"/>
	<advance width="374"/>
	<outline>
		<contour>
			<point x="142" y="685" type="curve" smooth="yes"/>
			<point x="142" y="751"/>
			<point x="163" y="779"/>
			<point x="187" y="779" type="curve" smooth="yes"/>
			<point x="215" y="779"/>
			<point x="232" y="745"/>
			<point x="232" y="644" type="curve" smooth="yes"/>
			<point x="232" y="519"/>
			<point x="189" y="454"/>
			<point x="73" y="414" type="curve"/>
			<point x="76" y="394" type="line"/>
			<point x="234" y="423"/>
			<point x="351" y="518"/>
			<point x="351" y="641" type="curve" smooth="yes"/>
			<point x="351" y="742"/>
			<point x="293" y="803"/>
			<point x="184" y="803" type="curve" smooth="yes"/>
			<point x="101" y="803"/>
			<point x="26" y="757"/>
			<point x="26" y="675" type="curve" smooth="yes"/>
			<point x="26" y="600"/>
			<point x="80" y="557"/>
			<point x="155" y="557" type="curve" smooth="yes"/>
			<point x="203" y="557"/>
			<point x="235" y="578"/>
			<point x="249" y="611" type="curve"/>
			<point x="242" y="617" type="line"/>
			<point x="228" y="598"/>
			<point x="219" y="590"/>
			<point x="203" y="590" type="curve" smooth="yes"/>
			<point x="163" y="590"/>
			<point x="142" y="621"/>
		</contour>
	</outline>
</glyph>
<glyph name="n.sups" format="2">
	<unicode hex="207F"/>
	<advance width="413"/>
	<outline>
		<contour>
			<point x="166" y="406" type="line"/>
			<point x="166" y="662" type="line"/>
			<point x="160" y="725" type="line"/>
			<point x="151" y="731" type="line"/>
			<point x="13" y="687" type="line"/>
			<point x="13" y="672" type="line"/>
			<point x="55" y="667" type="line"/>
			<point x="55" y="406" type="line"/>
		</contour>
		<contour>
			<point x="133" y="433" type="line"/>
			<point x="80" y="433" type="line"/>
			<point x="18" y="426" type="line"/>
			<point x="18" y="406" type="line"/>
			<point x="196" y="406" type="line"/>
			<point x="196" y="426" type="line"/>
		</contour>
		<contour>
			<point x="281" y="433" type="line"/>
			<point x="221" y="426" type="line"/>
			<point x="221" y="406" type="line"/>
			<point x="400" y="406" type="line"/>
			<point x="400" y="426" type="line"/>
			<point x="334" y="433" type="line"/>
		</contour>
		<contour>
			<point x="269" y="731" type="curve" smooth="yes"/>
			<point x="221" y="731"/>
			<point x="184" y="713"/>
			<point x="136" y="641" type="curve"/>
			<point x="161" y="661" type="line"/>
			<point x="115" y="661" type="line"/>
			<point x="115" y="627" type="line"/>
			<point x="138" y="627" type="line"/>
			<point x="165" y="658"/>
			<point x="197" y="679"/>
			<point x="220" y="679" type="curve" smooth="yes"/>
			<point x="245" y="679"/>
			<point x="256" y="666"/>
			<point x="256" y="629" type="curve" smooth="yes"/>
			<point x="256" y="406" type="line"/>
			<point x="367" y="406" type="line"/>
			<point x="367" y="622" type="line" smooth="yes"/>
			<point x="367" y="693"/>
			<point x="327" y="731"/>
		</contour>
	</outline>
</glyph>
<glyph name="Euro" format="2">
	<unicode hex="20AC"/>
	<advance width="560"/>
	<outline>
		<contour>
			<point x="351" y="-16" type="curve" smooth="yes"/>
			<point x="463" y="-16"/>
			<point x="546" y="36"/>
			<point x="546" y="120" type="curve"/>
			<point x="541" y="161"/>
			<point x="512" y="176"/>
			<point x="486" y="176" type="curve" smooth="yes"/>
			<point x="447" y="176"/>
			<point x="407" y="162"/>
			<point x="399" y="87" type="curve" smooth="yes"/>
			<point x="390" y="0" type="line"/>
			<point x="484" y="47" type="line"/>
			<point x="439" y="26"/>
			<point x="418" y="19"/>
			<point x="382" y="19" type="curve" smooth="yes"/>
			<point x="302" y="19"/>
			<point x="233" y="107"/>
			<point x="233" y="314" type="curve" smooth="yes"/>
			<point x="233" y="526"/>
			<point x="295" y="605"/>
			<point x="377" y="605" type="curve" smooth="yes"/>
			<point x="401" y="605"/>
			<point x="428" y="601"/>
			<point x="480" y="577" type="curve"/>
			<point x="383" y="626" type="line"/>
			<point x="395" y="537" type="line" smooth="yes"/>
			<point x="405" y="462"/>
			<point x="443" y="448"/>
			<point x="482" y="448" type="curve" smooth="yes"/>
			<point x="508" y="448"/>
			<point x="537" y="463"/>
			<point x="542" y="504" type="curve"/>
			<point x="542" y="588"/>
			<point x="463" y="640"/>
			<point x="357" y="640" type="curve" smooth="yes"/>
			<point x="199" y="639"/>
			<point x="66" y="550"/>
			<point x="66" y="314" type="curve" smooth="yes"/>
			<point x="66" y="78"/>
			<point x="184" y="-16"/>
		</contour>
		<contour>
			<point x="10" y="356" type="line"/>
			<point x="425" y="356" type="line"/>
			<point x="425" y="406" type="line"/>
			<point x="10" y="406" type="line"/>
		</contour>
		<contour>
			<point x="10" y="230" type="line"/>
			<point x="425" y="230" type="line"/>
			<point x="425" y="280" type="line"/>
			<point x="10" y="280" type="line"/>
		</contour>
	</outline>
</glyph>
<glyph name="guarani" format="2">
	<unicode hex="20B2"/>
	<advance width="560"/>
	<outline>
		<contour>
			<point x="314" y="-16" type="curve" smooth="yes"/>
			<point x="389" y="-16"/>
			<point x="442" y="4"/>
			<point x="502" y="39" type="curve"/>
			<point x="502" y="78" type="line" smooth="yes"/>
			<point x="502" y="158"/>
			<point x="502" y="253"/>
			<point x="504" y="330" type="curve"/>
			<point x="343" y="330" type="line"/>
			<point x="345" y="251"/>
			<point x="345" y="161"/>
			<point x="345" y="82" type="curve" smooth="yes"/>
			<point x="345" y="-6" type="line"/>
			<point x="409" y="51" type="line"/>
			<point x="379" y="33"/>
			<point x="364" y="20"/>
			<point x="337" y="20" type="curve" smooth="yes"/>
			<point x="261" y="20"/>
			<point x="192" y="126"/>
			<point x="192" y="313" type="curve" smooth="yes"/>
			<point x="192" y="520"/>
			<point x="268" y="604"/>
			<point x="356" y="604" type="curve" smooth="yes"/>
			<point x="389" y="604"/>
			<point x="412" y="592"/>
			<point x="453" y="560" type="curve"/>
			<point x="380" y="619" type="line"/>
			<point x="431" y="436" type="line"/>
			<point x="482" y="436" type="line"/>
			<point x="498" y="597" type="line"/>
			<point x="450" y="623"/>
			<point x="393" y="640"/>
			<point x="331" y="640" type="curve" smooth="yes"/>
			<point x="147" y="640"/>
			<point x="25" y="518"/>
			<point x="25" y="309" type="curve" smooth="yes"/>
			<point x="25" y="99"/>
			<point x="142" y="-16"/>
		</contour>
		<contour>
			<point x="278" y="297" type="line"/>
			<point x="377" y="280" type="line"/>
			<point x="435" y="280" type="line"/>
			<point x="550" y="297" type="line"/>
			<point x="550" y="330" type="line"/>
			<point x="278" y="330" type="line"/>
		</contour>
		<contour>
			<point x="304" y="-115" type="line"/>
			<point x="355" y="-115" type="line"/>
			<point x="355" y="5" type="line"/>
			<point x="304" y="5" type="line"/>
		</contour>
		<contour>
			<point x="304" y="621" type="line"/>
			<point x="355" y="621" type="line"/>
			<point x="355" y="731" type="line"/>
			<point x="304" y="731" type="line"/>
		</contour>
	</outline>
</glyph>
<glyph name="hryvnia" format="1">
	<unicode hex="20B4"/>
	<advance width="560"/>
	<outline>
		<contour>
			<point x="23" y="238" type="line"/>
			<point x="538" y="238" type="line"/>
			<point x="538" y="288" type="line"/>
			<point x="23" y="288" type="line"/>
		</contour>
		<contour>
			<point x="23" y="354" type="line"/>
			<point x="538" y="354" type="line"/>
			<point x="538" y="404" type="line"/>
			<point x="23" y="404" type="line"/>
		</contour>
		<contour>
			<point x="92" y="153" type="curve" smooth="yes"/>
			<point x="92" y="41"/>
			<point x="160" y="-15"/>
			<point x="298" y="-15" type="curve" smooth="yes"/>
			<point x="443" y="-15"/>
			<point x="511" y="35"/>
			<point x="511" y="124" type="curve"/>
			<point x="499" y="162"/>
			<point x="474" y="176"/>
			<point x="451" y="176" type="curve" smooth="yes"/>
			<point x="406" y="176"/>
			<point x="382" y="156"/>
			<point x="378" y="104" type="curve" smooth="yes"/>
			<point x="371" y="4" type="line"/>
			<point x="441" y="54" type="line"/>
			<point x="397" y="30"/>
			<point x="372" y="19"/>
			<point x="335" y="19" type="curve" smooth="yes"/>
			<point x="286" y="19"/>
			<point x="246" y="57"/>
			<point x="246" y="118" type="curve" smooth="yes"/>
			<point x="246" y="175"/>
			<point x="260" y="200"/>
			<point x="313" y="253" type="curve" smooth="yes"/>
			<point x="431" y="371" type="line" smooth="yes"/>
			<point x="464" y="404"/>
			<point x="481" y="446"/>
			<point x="481" y="486" type="curve" smooth="yes"/>
			<point x="481" y="580"/>
			<point x="419" y="640"/>
			<point x="270" y="640" type="curve" smooth="yes"/>
			<point x="156" y="640"/>
			<point x="89" y="588"/>
			<point x="89" y="504" type="curve"/>
			<point x="95" y="464"/>
			<point x="119" y="448"/>
			<point x="144" y="448" type="curve" smooth="yes"/>
			<point x="182" y="448"/>
			<point x="221" y="463"/>
			<point x="231" y="537" type="curve" smooth="yes"/>
			<point x="243" y="629" type="line"/>
			<point x="154" y="577" type="line"/>
			<point x="201" y="600"/>
			<point x="222" y="605"/>
			<point x="259" y="605" type="curve" smooth="yes"/>
			<point x="305" y="605"/>
			<point x="335" y="572"/>
			<point x="335" y="528" type="curve" smooth="yes"/>
			<point x="335" y="466"/>
			<point x="316" y="436"/>
			<point x="262" y="385" type="curve" smooth="yes"/>
			<point x="136" y="266" type="line" smooth="yes"/>
			<point x="103" y="234"/>
			<point x="92" y="194"/>
		</contour>
	</outline>
</glyph>
<glyph name="rupeeindian" format="1">
	<unicode hex="20B9"/>
	<advance width="560"/>
	<outline>
		<contour>
			<point x="59" y="420" type="line"/>
			<point x="481" y="420" type="line"/>
			<point x="481" y="470" type="line"/>
			<point x="59" y="470" type="line"/>
		</contour>
		<contour>
			<point x="59" y="303" type="line"/>
			<point x="59" y="267" type="line"/>
			<point x="126" y="267" type="line" smooth="yes"/>
			<point x="181" y="267"/>
			<point x="203" y="233"/>
			<point x="212" y="170" type="curve" smooth="yes"/>
			<point x="223" y="93" type="line" smooth="yes"/>
			<point x="236" y="4"/>
			<point x="288" y="-16"/>
			<point x="371" y="-16" type="curve" smooth="yes"/>
			<point x="414" y="-16"/>
			<point x="449" y="-9"/>
			<point x="481" y="0" type="curve"/>
			<point x="481" y="30" type="line"/>
			<point x="342" y="44" type="line"/>
			<point x="420" y="23" type="line"/>
			<point x="399" y="167" type="line" smooth="yes"/>
			<point x="391" y="224"/>
			<point x="358" y="277"/>
			<point x="191" y="294" type="curve"/>
			<point x="193" y="280" type="line"/>
			<point x="348" y="307"/>
			<point x="402" y="378"/>
			<point x="402" y="449" type="curve" smooth="yes"/>
			<point x="402" y="517"/>
			<point x="374" y="567"/>
			<point x="282" y="602" type="curve"/>
			<point x="277" y="575" type="line"/>
			<point x="481" y="575" type="line"/>
			<point x="481" y="625" type="line"/>
			<point x="59" y="625" type="line"/>
			<point x="59" y="585" type="line"/>
			<point x="85" y="585" type="line" smooth="yes"/>
			<point x="196" y="585"/>
			<point x="234" y="539"/>
			<point x="234" y="437" type="curve" smooth="yes"/>
			<point x="234" y="349"/>
			<point x="185" y="303"/>
			<point x="86" y="303" type="curve" smooth="yes"/>
		</contour>
	</outline>
</glyph>
<glyph name="bitcoin" format="2">
	<unicode hex="20BF"/>
	<advance width="560"/>
	<outline>
		<contour>
			<point x="23" y="595" type="line"/>
			<point x="157" y="581" type="line"/>
			<point x="174" y="581" type="line"/>
			<point x="174" y="625" type="line"/>
			<point x="23" y="625" type="line"/>
		</contour>
		<contour>
			<point x="23" y="0" type="line"/>
			<point x="174" y="0" type="line"/>
			<point x="174" y="45" type="line"/>
			<point x="157" y="45" type="line"/>
			<point x="23" y="31" type="line"/>
		</contour>
		<contour>
			<point x="86" y="0" type="curve"/>
			<point x="264" y="0" type="line"/>
			<point x="261" y="106"/>
			<point x="261" y="211"/>
			<point x="261" y="318" type="curve" smooth="yes"/>
			<point x="261" y="337" type="line" smooth="yes"/>
			<point x="261" y="435"/>
			<point x="261" y="531"/>
			<point x="264" y="625" type="curve"/>
			<point x="86" y="625" type="line"/>
			<point x="89" y="524"/>
			<point x="89" y="423"/>
			<point x="89" y="322" type="curve" smooth="yes"/>
			<point x="89" y="302" type="line" smooth="yes"/>
			<point x="89" y="199"/>
			<point x="89" y="99"/>
		</contour>
		<contour>
			<point x="212" y="-115" type="line"/>
			<point x="263" y="-115" type="line"/>
			<point x="263" y="16" type="line"/>
			<point x="212" y="16" type="line"/>
		</contour>
		<contour>
			<point x="212" y="609" type="line"/>
			<point x="263" y="609" type="line"/>
			<point x="263" y="731" type="line"/>
			<point x="212" y="731" type="line"/>
		</contour>
		<contour>
			<point x="179" y="0" type="line"/>
			<point x="270" y="0" type="line" smooth="yes"/>
			<point x="498" y="0"/>
			<point x="547" y="92"/>
			<point x="547" y="177" type="curve" smooth="yes"/>
			<point x="547" y="263"/>
			<point x="486" y="328"/>
			<point x="312" y="337" type="curve"/>
			<point x="312" y="329" type="line"/>
			<point x="476" y="348"/>
			<point x="521" y="410"/>
			<point x="521" y="473" type="curve" smooth="yes"/>
			<point x="521" y="562"/>
			<point x="470" y="625"/>
			<point x="310" y="625" type="curve" smooth="yes"/>
			<point x="179" y="625" type="line"/>
			<point x="179" y="593" type="line"/>
			<point x="265" y="593" type="line" smooth="yes"/>
			<point x="321" y="593"/>
			<point x="347" y="547"/>
			<point x="347" y="466" type="curve" smooth="yes"/>
			<point x="347" y="393"/>
			<point x="326" y="343"/>
			<point x="263" y="343" type="curve" smooth="yes"/>
			<point x="179" y="343" type="line"/>
			<point x="179" y="316" type="line"/>
			<point x="264" y="316" type="line" smooth="yes"/>
			<point x="329" y="316"/>
			<point x="365" y="277"/>
			<point x="365" y="179" type="curve" smooth="yes"/>
			<point x="365" y="95"/>
			<point x="325" y="33"/>
			<point x="268" y="33" type="curve" smooth="yes"/>
			<point x="179" y="33" type="line"/>
		</contour>
		<contour>
			<point x="334" y="-115" type="line"/>
			<point x="385" y="-115" type="line"/>
			<point x="385" y="16" type="line"/>
			<point x="334" y="16" type="line"/>
		</contour>
		<contour>
			<point x="334" y="609" type="line"/>
			<point x="385" y="609" type="line"/>
			<point x="385" y="731" type="line"/>
			<point x="334" y="731" type="line"/>
		</contour>
	</outline>
</glyph>
<glyph name="litre" format="1">
	<unicode hex="2113"/>
	<advance width="577"/>
	<outline>
		<contour>
			<point x="347" y="-16" type="curve" smooth="yes"/>
			<point x="458" y="-16"/>
			<point x="510" y="30"/>
			<point x="562" y="88" type="curve"/>
			<point x="545" y="113" type="line"/>
			<point x="504" y="79"/>
			<point x="469" y="63"/>
			<point x="419" y="63" type="curve" smooth="yes"/>
			<point x="321" y="63"/>
			<point x="246" y="157"/>
			<point x="246" y="354" type="curve" smooth="yes"/>
			<point x="246" y="622"/>
			<point x="278" y="692"/>
			<point x="317" y="692" type="curve" smooth="yes"/>
			<point x="340" y="692"/>
			<point x="361" y="670"/>
			<point x="361" y="576" type="curve" smooth="yes"/>
			<point x="361" y="423"/>
			<point x="322" y="249"/>
			<point x="71" y="33" type="curve"/>
			<point x="88" y="8" type="line"/>
			<point x="333" y="200"/>
			<point x="496" y="349"/>
			<point x="496" y="545" type="curve" smooth="yes"/>
			<point x="496" y="654"/>
			<point x="433" y="731"/>
			<point x="320" y="731" type="curve" smooth="yes"/>
			<point x="187" y="731"/>
			<point x="56" y="610"/>
			<point x="56" y="365" type="curve" smooth="yes"/>
			<point x="56" y="90"/>
			<point x="209" y="-16"/>
		</contour>
	</outline>
</glyph>
<glyph name="soundcopyright" format="1">
	<unicode hex="2117"/>
	<advance width="740"/>
	<outline>
		<contour>
			<point x="371" y="-20" type="curve" smooth="yes"/>
			<point x="551" y="-20"/>
			<point x="711" y="117"/>
			<point x="711" y="326" type="curve" smooth="yes"/>
			<point x="711" y="536"/>
			<point x="551" y="672"/>
			<point x="371" y="672" type="curve" smooth="yes"/>
			<point x="191" y="672"/>
			<point x="30" y="536"/>
			<point x="30" y="326" type="curve" smooth="yes"/>
			<point x="30" y="117"/>
			<point x="191" y="-20"/>
		</contour>
		<contour>
			<point x="371" y="20" type="curve" smooth="yes"/>
			<point x="215" y="20"/>
			<point x="79" y="141"/>
			<point x="79" y="326" type="curve" smooth="yes"/>
			<point x="79" y="512"/>
			<point x="215" y="632"/>
			<point x="371" y="632" type="curve" smooth="yes"/>
			<point x="527" y="632"/>
			<point x="663" y="512"/>
			<point x="663" y="326" type="curve" smooth="yes"/>
			<point x="663" y="141"/>
			<point x="527" y="20"/>
		</contour>
		<contour>
			<point x="213" y="132" type="line"/>
			<point x="427" y="132" type="line"/>
			<point x="427" y="158" type="line"/>
			<point x="337" y="167" type="line"/>
			<point x="303" y="167" type="line"/>
			<point x="213" y="158" type="line"/>
		</contour>
		<contour>
			<point x="213" y="498" type="line"/>
			<point x="303" y="489" type="line"/>
			<point x="312" y="489" type="line"/>
			<point x="312" y="524" type="line"/>
			<point x="213" y="524" type="line"/>
		</contour>
		<contour>
			<point x="253" y="132" type="line"/>
			<point x="375" y="132" type="line"/>
			<point x="375" y="524" type="line"/>
			<point x="253" y="524" type="line"/>
		</contour>
		<contour>
			<point x="313" y="270" type="line"/>
			<point x="378" y="270" type="line" smooth="yes"/>
			<point x="521" y="270"/>
			<point x="561" y="328"/>
			<point x="561" y="400" type="curve" smooth="yes"/>
			<point x="561" y="480"/>
			<point x="511" y="524"/>
			<point x="376" y="524" type="curve" smooth="yes"/>
			<point x="312" y="524" type="line"/>
			<point x="312" y="496" type="line"/>
			<point x="373" y="496" type="line" smooth="yes"/>
			<point x="426" y="496"/>
			<point x="452" y="462"/>
			<point x="452" y="400" type="curve" smooth="yes"/>
			<point x="452" y="337"/>
			<point x="427" y="298"/>
			<point x="382" y="298" type="curve" smooth="yes"/>
			<point x="313" y="298" type="line"/>
		</contour>
	</outline>
</glyph>
<glyph name="arrowleft" format="2">
	<unicode hex="2190"/>
	<advance width="660"/>
	<outline>
		<contour>
			<point x="356" y="599" type="line"/>
			<point x="10" y="296" type="line"/>
			<point x="10" y="274" type="line"/>
			<point x="356" y="-29" type="line"/>
			<point x="376" y="-9" type="line"/>
			<point x="166" y="272" type="line"/>
			<point x="500" y="225" type="line"/>
			<point x="650" y="225" type="line"/>
			<point x="650" y="345" type="line"/>
			<point x="500" y="345" type="line"/>
			<point x="166" y="298" type="line"/>
			<point x="376" y="579" type="line"/>
		</contour>
	</outline>
</glyph>
<glyph name="arrowright" format="2">
	<unicode hex="2192"/>
	<advance width="660"/>
	<outline>
		<contour>
			<point x="304" y="-29" type="line"/>
			<point x="650" y="274" type="line"/>
			<point x="650" y="296" type="line"/>
			<point x="304" y="599" type="line"/>
			<point x="284" y="579" type="line"/>
			<point x="494" y="298" type="line"/>
			<point x="160" y="345" type="line"/>
			<point x="10" y="345" type="line"/>
			<point x="10" y="225" type="line"/>
			<point x="160" y="225" type="line"/>
			<point x="494" y="272" type="line"/>
			<point x="284" y="-9" type="line"/>
		</contour>
	</outline>
</glyph>
<glyph name="product" format="2">
	<unicode hex="220F"/>
	<advance width="752"/>
	<outline>
		<contour>
			<point x="557" y="614" type="line"/>
			<point x="557" y="652" type="line"/>
			<point x="195" y="652" type="line"/>
			<point x="195" y="614" type="line"/>
		</contour>
		<contour>
			<point x="172" y="-70" type="line"/>
			<point x="28" y="-85" type="line"/>
			<point x="28" y="-120" type="line"/>
			<point x="357" y="-120" type="line"/>
			<point x="357" y="-85" type="line"/>
			<point x="205" y="-70" type="line"/>
		</contour>
		<contour>
			<point x="96" y="190" type="line" smooth="yes"/>
			<point x="96" y="85"/>
			<point x="96" y="-19"/>
			<point x="93" y="-120" type="curve"/>
			<point x="297" y="-120" type="line"/>
			<point x="294" y="-17"/>
			<point x="294" y="87"/>
			<point x="294" y="191" type="curve" smooth="yes"/>
			<point x="294" y="342" type="line" smooth="yes"/>
			<point x="294" y="447"/>
			<point x="294" y="551"/>
			<point x="297" y="652" type="curve"/>
			<point x="93" y="652" type="line"/>
			<point x="96" y="549"/>
			<point x="96" y="445"/>
			<point x="96" y="342" type="curve" smooth="yes"/>
		</contour>
		<contour>
			<point x="557" y="602" type="line"/>
			<point x="575" y="602" type="line"/>
			<point x="724" y="617" type="line"/>
			<point x="724" y="652" type="line"/>
			<point x="557" y="652" type="line"/>
		</contour>
		<contour>
			<point x="458" y="191" type="line" smooth="yes"/>
			<point x="458" y="85"/>
			<point x="458" y="-19"/>
			<point x="455" y="-120" type="curve"/>
			<point x="659" y="-120" type="line"/>
			<point x="656" y="-17"/>
			<point x="656" y="87"/>
			<point x="656" y="190" type="curve" smooth="yes"/>
			<point x="656" y="342" type="line" smooth="yes"/>
			<point x="656" y="447"/>
			<point x="656" y="551"/>
			<point x="659" y="652" type="curve"/>
			<point x="455" y="652" type="line"/>
			<point x="458" y="549"/>
			<point x="458" y="445"/>
			<point x="458" y="342" type="curve" smooth="yes"/>
		</contour>
		<contour>
			<point x="544" y="-70" type="line"/>
			<point x="395" y="-85" type="line"/>
			<point x="395" y="-120" type="line"/>
			<point x="724" y="-120" type="line"/>
			<point x="724" y="-85" type="line"/>
			<point x="575" y="-70" type="line"/>
		</contour>
		<contour>
			<point x="172" y="602" type="line"/>
			<point x="195" y="602" type="line"/>
			<point x="195" y="652" type="line"/>
			<point x="28" y="652" type="line"/>
			<point x="28" y="617" type="line"/>
		</contour>
	</outline>
</glyph>
<glyph name="summation" format="2">
	<unicode hex="2211"/>
	<advance width="581"/>
	<outline>
		<contour>
			<point x="496" y="453" type="line"/>
			<point x="552" y="453" type="line"/>
			<point x="544" y="652" type="line"/>
			<point x="121" y="652" type="line"/>
			<point x="121" y="614" type="line"/>
			<point x="510" y="614" type="line"/>
			<point x="428" y="652" type="line"/>
		</contour>
		<contour>
			<point x="20" y="-120" type="line"/>
			<point x="554" y="-120" type="line"/>
			<point x="562" y="149" type="line"/>
			<point x="504" y="149" type="line"/>
			<point x="437" y="-50" type="line"/>
			<point x="521" y="10" type="line"/>
			<point x="75" y="10" type="line"/>
			<point x="85" y="-18" type="line"/>
			<point x="383" y="334" type="line"/>
			<point x="209" y="652" type="line"/>
			<point x="21" y="652" type="line"/>
			<point x="21" y="622" type="line"/>
			<point x="254" y="215" type="line"/>
			<point x="259" y="264" type="line"/>
			<point x="20" y="-25" type="line"/>
		</contour>
	</outline>
</glyph>
<glyph name="notequal" format="1">
	<unicode hex="2260"/>
	<advance width="550"/>
	<outline>
		<contour>
			<point x="130" y="21" type="line"/>
			<point x="456" y="599" type="line"/>
			<point x="421" y="620" type="line"/>
			<point x="95" y="42" type="line"/>
		</contour>
		<component base="equal"/>
	</outline>
</glyph>
<glyph name="triangleblackup" format="1">
	<unicode hex="25B2"/>
	<advance width="620"/>
	<outline>
		<contour>
			<point x="0" y="27" type="line"/>
			<point x="7" y="14" type="line"/>
			<point x="612" y="14" type="line"/>
			<point x="619" y="27" type="line"/>
			<point x="317" y="550" type="line"/>
			<point x="302" y="550" type="line"/>
		</contour>
	</outline>
</glyph>
<glyph name="trianglewhiteup" format="1">
	<unicode hex="25B3"/>
	<advance width="620"/>
	<outline>
		<contour>
			<point x="0" y="27" type="line"/>
			<point x="7" y="14" type="line"/>
			<point x="612" y="14" type="line"/>
			<point x="619" y="27" type="line"/>
			<point x="317" y="550" type="line"/>
			<point x="302" y="550" type="line"/>
		</contour>
		<contour>
			<point x="311" y="379" type="line"/>
			<point x="465" y="105" type="line"/>
			<point x="155" y="105" type="line"/>
		</contour>
	</outline>
</glyph>
<glyph name="triangleblackdown" format="1">
	<unicode hex="25BC"/>
	<advance width="620"/>
	<outline>
		<contour>
			<point x="619" y="514" type="line"/>
			<point x="612" y="527" type="line"/>
			<point x="7" y="527" type="line"/>
			<point x="0" y="514" type="line"/>
			<point x="302" y="-9" type="line"/>
			<point x="317" y="-9" type="line"/>
		</contour>
	</outline>
</glyph>
<glyph name="trianglewhitedown" format="2">
	<unicode hex="25BD"/>
	<advance width="620"/>
	<outline>
		<contour>
			<point x="619" y="514" type="line"/>
			<point x="612" y="527" type="line"/>
			<point x="7" y="527" type="line"/>
			<point x="0" y="514" type="line"/>
			<point x="302" y="-9" type="line"/>
			<point x="317" y="-9" type="line"/>
		</contour>
		<contour>
			<point x="311" y="162" type="line"/>
			<point x="155" y="436" type="line"/>
			<point x="465" y="436" type="line"/>
		</contour>
	</outline>
</glyph>
<glyph name="lozenge" format="1">
	<unicode hex="25CA"/>
	<advance width="620"/>
	<outline>
		<contour>
			<point x="531" y="325" type="line"/>
			<point x="311" y="5" type="line"/>
			<point x="89" y="325" type="line"/>
			<point x="311" y="649" type="line"/>
		</contour>
		<contour>
			<point x="616" y="325" type="line"/>
			<point x="334" y="729" type="line"/>
			<point x="285" y="729" type="line"/>
			<point x="4" y="325" type="line"/>
			<point x="285" y="-74" type="line"/>
			<point x="334" y="-74" type="line"/>
		</contour>
	</outline>
</glyph>
<glyph name="threeemdash" format="1">
	<unicode hex="2E3B"/>
	<advance width="2390"/>
	<outline>
		<contour>
			<point x="40" y="215" type="line"/>
			<point x="2350" y="215" type="line"/>
			<point x="2350" y="295" type="line"/>
			<point x="40" y="295" type="line"/>
		</contour>
	</outline>
</glyph>
<glyph name="copyleft" format="1">
	<unicode hex="1F12F"/>
	<advance width="740"/>
	<outline>
		<contour>
			<point x="662" y="326" type="curve" smooth="yes"/>
			<point x="662" y="512"/>
			<point x="526" y="632"/>
			<point x="370" y="632" type="curve" smooth="yes"/>
			<point x="214" y="632"/>
			<point x="78" y="512"/>
			<point x="78" y="326" type="curve" smooth="yes"/>
			<point x="78" y="141"/>
			<point x="214" y="20"/>
			<point x="370" y="20" type="curve" smooth="yes"/>
			<point x="526" y="20"/>
			<point x="662" y="141"/>
		</contour>
		<contour>
			<point x="711" y="326" type="curve" smooth="yes"/>
			<point x="711" y="117"/>
			<point x="550" y="-20"/>
			<point x="370" y="-20" type="curve" smooth="yes"/>
			<point x="190" y="-20"/>
			<point x="30" y="117"/>
			<point x="30" y="326" type="curve" smooth="yes"/>
			<point x="30" y="536"/>
			<point x="190" y="672"/>
			<point x="370" y="672" type="curve" smooth="yes"/>
			<point x="550" y="672"/>
			<point x="711" y="536"/>
		</contour>
		<contour>
			<point x="318" y="150" type="curve" smooth="yes"/>
			<point x="380" y="150"/>
			<point x="431" y="208"/>
			<point x="431" y="327" type="curve" smooth="yes"/>
			<point x="431" y="446"/>
			<point x="380" y="506"/>
			<point x="317" y="506" type="curve" smooth="yes"/>
			<point x="293" y="506"/>
			<point x="274" y="501"/>
			<point x="252" y="482" type="curve"/>
			<point x="303" y="525" type="line"/>
			<point x="265" y="395" type="line"/>
			<point x="226" y="395" type="line"/>
			<point x="229" y="506" type="line"/>
			<point x="261" y="524"/>
			<point x="294" y="536"/>
			<point x="344" y="536" type="curve" smooth="yes"/>
			<point x="455" y="536"/>
			<point x="560" y="470"/>
			<point x="560" y="325" type="curve" smooth="yes"/>
			<point x="560" y="186"/>
			<point x="463" y="120"/>
			<point x="350" y="120" type="curve" smooth="yes"/>
			<point x="296" y="120"/>
			<point x="254" y="135"/>
			<point x="225" y="152" type="curve"/>
			<point x="223" y="261" type="line"/>
			<point x="262" y="261" type="line"/>
			<point x="299" y="133" type="line"/>
			<point x="248" y="173" type="line"/>
			<point x="272" y="156"/>
			<point x="295" y="150"/>
		</contour>
	</outline>
</glyph>
<glyph name="A.sc" format="2">
	<advance width="638"/>
	<outline>
		<contour>
			<point x="18" y="0" type="line"/>
			<point x="203" y="0" type="line"/>
			<point x="203" y="32" type="line"/>
			<point x="118" y="44" type="line"/>
			<point x="102" y="44" type="line"/>
			<point x="18" y="32" type="line"/>
		</contour>
		<contour>
			<point x="69" y="0" type="line"/>
			<point x="120" y="0" type="line"/>
			<point x="274" y="479" type="line"/>
			<point x="242" y="436" type="line"/>
			<point x="393" y="0" type="line"/>
			<point x="580" y="0" type="line"/>
			<point x="375" y="536" type="line"/>
			<point x="263" y="536" type="line"/>
		</contour>
		<contour>
			<point x="159" y="157" type="line"/>
			<point x="446" y="157" type="line"/>
			<point x="435" y="190" type="line"/>
			<point x="169" y="190" type="line"/>
		</contour>
		<contour>
			<point x="319" y="0" type="line"/>
			<point x="618" y="0" type="line"/>
			<point x="618" y="31" type="line"/>
			<point x="498" y="44" type="line"/>
			<point x="426" y="44" type="line"/>
			<point x="319" y="31" type="line"/>
		</contour>
	</outline>
	<anchor name="aboveUC" x="316" y="560"/>
	<anchor name="ogonek" x="523" y="0"/>
	<anchor name="belowLC" x="280" y="-18"/>
</glyph>
<glyph name="Be.sc" format="2">
	<advance width="592"/>
	<outline>
		<contour>
			<point x="34" y="0" type="line"/>
			<point x="190" y="0" type="line"/>
			<point x="190" y="44" type="line"/>
			<point x="173" y="44" type="line"/>
			<point x="34" y="32" type="line"/>
		</contour>
		<contour>
			<point x="34" y="504" type="line"/>
			<point x="173" y="492" type="line"/>
			<point x="190" y="492" type="line"/>
			<point x="190" y="536" type="line"/>
			<point x="34" y="536" type="line"/>
		</contour>
		<contour>
			<point x="95" y="0" type="curve"/>
			<point x="282" y="0" type="line"/>
			<point x="279" y="89"/>
			<point x="279" y="178"/>
			<point x="279" y="267" type="curve" smooth="yes"/>
			<point x="279" y="300" type="line" smooth="yes"/>
			<point x="279" y="369"/>
			<point x="279" y="453"/>
			<point x="282" y="536" type="curve"/>
			<point x="95" y="536" type="line"/>
			<point x="98" y="452"/>
			<point x="98" y="367"/>
			<point x="98" y="283" type="curve" smooth="yes"/>
			<point x="98" y="266" type="line" smooth="yes"/>
			<point x="98" y="176"/>
			<point x="98" y="87"/>
		</contour>
		<contour>
			<point x="190" y="0" type="line"/>
			<point x="286" y="0" type="line" smooth="yes"/>
			<point x="499" y="0"/>
			<point x="574" y="67"/>
			<point x="574" y="167" type="curve" smooth="yes"/>
			<point x="574" y="252"/>
			<point x="510" y="319"/>
			<point x="312" y="319" type="curve" smooth="yes"/>
			<point x="262" y="319"/>
			<point x="225" y="316"/>
			<point x="189" y="308" type="curve"/>
			<point x="189" y="274" type="line"/>
			<point x="221" y="282"/>
			<point x="254" y="285"/>
			<point x="289" y="285" type="curve" smooth="yes"/>
			<point x="358" y="285"/>
			<point x="396" y="239"/>
			<point x="396" y="165" type="curve" smooth="yes"/>
			<point x="396" y="78"/>
			<point x="354" y="34"/>
			<point x="290" y="34" type="curve" smooth="yes"/>
			<point x="190" y="34" type="line"/>
		</contour>
		<contour>
			<point x="190" y="502" type="line"/>
			<point x="478" y="502" type="line"/>
			<point x="392" y="536" type="line"/>
			<point x="443" y="373" type="line"/>
			<point x="504" y="373" type="line"/>
			<point x="508" y="536" type="line"/>
			<point x="190" y="536" type="line"/>
		</contour>
	</outline>
</glyph>
<glyph name="Ecyr.sc" format="1">
	<advance width="579"/>
	<outline>
		<contour>
			<point x="34" y="26" type="line"/>
			<point x="79" y="4"/>
			<point x="140" y="-17"/>
			<point x="221" y="-17" type="curve" smooth="yes"/>
			<point x="402" y="-17"/>
			<point x="544" y="65"/>
			<point x="544" y="268" type="curve" smooth="yes"/>
			<point x="544" y="474"/>
			<point x="392" y="553"/>
			<point x="213" y="553" type="curve" smooth="yes"/>
			<point x="137" y="553"/>
			<point x="87" y="535"/>
			<point x="38" y="511" type="curve"/>
			<point x="43" y="373" type="line"/>
			<point x="103" y="373" type="line"/>
			<point x="161" y="536" type="line"/>
			<point x="86" y="517" type="line"/>
			<point x="82" y="487" type="line"/>
			<point x="117" y="508"/>
			<point x="150" y="519"/>
			<point x="201" y="519" type="curve" smooth="yes"/>
			<point x="303" y="519"/>
			<point x="361" y="449"/>
			<point x="361" y="267" type="curve" smooth="yes"/>
			<point x="361" y="86"/>
			<point x="304" y="18"/>
			<point x="194" y="18" type="curve" smooth="yes"/>
			<point x="145" y="18"/>
			<point x="118" y="29"/>
			<point x="77" y="55" type="curve"/>
			<point x="90" y="16" type="line"/>
			<point x="159" y="-8" type="line"/>
			<point x="98" y="163" type="line"/>
			<point x="38" y="163" type="line"/>
		</contour>
		<contour>
			<point x="170" y="187" type="line"/>
			<point x="220" y="187" type="line"/>
			<point x="234" y="270" type="line"/>
			<point x="234" y="285" type="line"/>
			<point x="220" y="366" type="line"/>
			<point x="170" y="366" type="line"/>
		</contour>
		<contour>
			<point x="207" y="258" type="line"/>
			<point x="422" y="258" type="line"/>
			<point x="422" y="291" type="line"/>
			<point x="207" y="291" type="line"/>
		</contour>
		<contour>
			<point name="aboveUC" x="247" y="560" type="move"/>
		</contour>
	</outline>
</glyph>
<glyph name="Endescender.sc" format="1">
	<advance width="716"/>
	<outline>
		<contour>
			<point x="540" y="0" type="line"/>
			<point x="657" y="0" type="line"/>
			<point x="583" y="34" type="line"/>
			<point x="638" y="-164" type="line"/>
			<point x="694" y="-164" type="line"/>
			<point x="699" y="33" type="line"/>
			<point x="540" y="44" type="line"/>
		</contour>
		<component base="En.sc"/>
	</outline>
</glyph>
<glyph name="Fita.sc" format="1">
	<advance width="665"/>
	<outline>
		<contour>
			<point x="498" y="253" type="line"/>
			<point x="498" y="288" type="line"/>
			<point x="167" y="288" type="line"/>
			<point x="167" y="253" type="line"/>
		</contour>
		<contour>
			<point x="217" y="268" type="curve" smooth="yes"/>
			<point x="217" y="440"/>
			<point x="249" y="519"/>
			<point x="332" y="519" type="curve" smooth="yes"/>
			<point x="416" y="519"/>
			<point x="448" y="440"/>
			<point x="448" y="268" type="curve" smooth="yes"/>
			<point x="448" y="96"/>
			<point x="416" y="17"/>
			<point x="332" y="17" type="curve" smooth="yes"/>
			<point x="249" y="17"/>
			<point x="217" y="96"/>
		</contour>
		<contour>
			<point x="332" y="553" type="curve" smooth="yes"/>
			<point x="163" y="553"/>
			<point x="35" y="468"/>
			<point x="35" y="268" type="curve" smooth="yes"/>
			<point x="35" y="68"/>
			<point x="162" y="-17"/>
			<point x="332" y="-17" type="curve" smooth="yes"/>
			<point x="503" y="-17"/>
			<point x="629" y="68"/>
			<point x="629" y="268" type="curve" smooth="yes"/>
			<point x="629" y="468"/>
			<point x="502" y="553"/>
		</contour>
		<contour>
			<point name="aboveUC" x="335" y="560" type="move"/>
		</contour>
	</outline>
</glyph>
<glyph name="G.sc" format="2">
	<advance width="635"/>
	<outline>
		<contour>
			<point x="427" y="222" type="line"/>
			<point x="504" y="222" type="line"/>
			<point x="615" y="237" type="line"/>
			<point x="615" y="268" type="line"/>
			<point x="317" y="268" type="line"/>
			<point x="317" y="237" type="line"/>
		</contour>
		<contour>
			<point x="569" y="65" type="line" smooth="yes"/>
			<point x="569" y="135"/>
			<point x="570" y="201"/>
			<point x="572" y="268" type="curve"/>
			<point x="393" y="268" type="line"/>
			<point x="395" y="199"/>
			<point x="396" y="137"/>
			<point x="396" y="69" type="curve" smooth="yes"/>
			<point x="396" y="-7" type="line"/>
			<point x="460" y="25" type="line"/>
			<point x="435" y="20"/>
			<point x="414" y="17"/>
			<point x="390" y="17" type="curve" smooth="yes"/>
			<point x="305" y="17"/>
			<point x="226" y="105"/>
			<point x="226" y="269" type="curve" smooth="yes"/>
			<point x="226" y="447"/>
			<point x="307" y="519"/>
			<point x="400" y="519" type="curve" smooth="yes"/>
			<point x="434" y="519"/>
			<point x="462" y="510"/>
			<point x="504" y="481" type="curve"/>
			<point x="504" y="515" type="line"/>
			<point x="424" y="540" type="line"/>
			<point x="482" y="377" type="line"/>
			<point x="544" y="377" type="line"/>
			<point x="548" y="516" type="line"/>
			<point x="498" y="539"/>
			<point x="438" y="553"/>
			<point x="375" y="553" type="curve" smooth="yes"/>
			<point x="169" y="553"/>
			<point x="35" y="448"/>
			<point x="35" y="270" type="curve" smooth="yes"/>
			<point x="35" y="84"/>
			<point x="170" y="-17"/>
			<point x="366" y="-17" type="curve" smooth="yes"/>
			<point x="447" y="-17"/>
			<point x="506" y="-2"/>
			<point x="569" y="31" type="curve"/>
		</contour>
	</outline>
	<anchor name="aboveUC" x="356" y="560"/>
	<anchor name="belowLC" x="379" y="-18"/>
</glyph>
<glyph name="Germandbls.sc" format="1">
	<advance width="718"/>
	<outline>
		<contour>
			<point x="35" y="0" type="line"/>
			<point x="192" y="0" type="line"/>
			<point x="192" y="44" type="line"/>
			<point x="175" y="44" type="line"/>
			<point x="35" y="31" type="line"/>
		</contour>
		<contour>
			<point x="97" y="0" type="curve"/>
			<point x="287" y="0" type="line"/>
			<point x="284" y="85"/>
			<point x="283" y="170"/>
			<point x="284" y="231" type="curve" smooth="yes"/>
			<point x="285" y="369" type="line" smooth="yes"/>
			<point x="285" y="488"/>
			<point x="336" y="518"/>
			<point x="442" y="518" type="curve" smooth="yes"/>
			<point x="495" y="518"/>
			<point x="531" y="510"/>
			<point x="578" y="490" type="curve"/>
			<point x="578" y="501" type="line"/>
			<point x="450" y="469"/>
			<point x="380" y="414"/>
			<point x="380" y="337" type="curve" smooth="yes"/>
			<point x="380" y="288"/>
			<point x="396" y="264"/>
			<point x="442" y="220" type="curve" smooth="yes"/>
			<point x="468" y="193" type="line" smooth="yes"/>
			<point x="510" y="152"/>
			<point x="521" y="133"/>
			<point x="521" y="92" type="curve" smooth="yes"/>
			<point x="521" y="51"/>
			<point x="495" y="16"/>
			<point x="445" y="16" type="curve" smooth="yes"/>
			<point x="436" y="16"/>
			<point x="421" y="18"/>
			<point x="405" y="22" type="curve"/>
			<point x="449" y="0" type="line"/>
			<point x="408" y="159" type="line"/>
			<point x="346" y="159" type="line"/>
			<point x="342" y="26" type="line"/>
			<point x="382" y="-2"/>
			<point x="437" y="-17"/>
			<point x="487" y="-17" type="curve" smooth="yes"/>
			<point x="613" y="-17"/>
			<point x="693" y="54"/>
			<point x="693" y="140" type="curve" smooth="yes"/>
			<point x="693" y="205"/>
			<point x="668" y="241"/>
			<point x="602" y="302" type="curve" smooth="yes"/>
			<point x="581" y="321" type="line" smooth="yes"/>
			<point x="553" y="347"/>
			<point x="545" y="375"/>
			<point x="545" y="399" type="curve" smooth="yes"/>
			<point x="545" y="443"/>
			<point x="564" y="470"/>
			<point x="603" y="489" type="curve"/>
			<point x="603" y="508" type="line"/>
			<point x="557" y="532"/>
			<point x="489" y="553"/>
			<point x="402" y="553" type="curve" smooth="yes"/>
			<point x="208" y="553"/>
			<point x="100" y="505"/>
			<point x="100" y="334" type="curve" smooth="yes"/>
			<point x="100" y="263" type="line" smooth="yes"/>
			<point x="100" y="177"/>
			<point x="100" y="83"/>
		</contour>
	</outline>
</glyph>
<glyph name="Ghestroke.sc" format="1">
	<advance width="555"/>
	<outline>
		<contour>
			<point x="35" y="253" type="line"/>
			<point x="372" y="253" type="line"/>
			<point x="372" y="288" type="line"/>
			<point x="35" y="288" type="line"/>
		</contour>
		<component base="Ghe.sc"/>
	</outline>
</glyph>
<glyph name="H.sc" format="2">
	<advance width="716"/>
	<outline>
		<contour>
			<point x="514" y="492" type="line"/>
			<point x="543" y="492" type="line"/>
			<point x="680" y="504" type="line"/>
			<point x="680" y="536" type="line"/>
			<point x="376" y="536" type="line"/>
			<point x="376" y="504" type="line"/>
		</contour>
		<contour>
			<point x="514" y="44" type="line"/>
			<point x="376" y="32" type="line"/>
			<point x="376" y="0" type="line"/>
			<point x="680" y="0" type="line"/>
			<point x="680" y="32" type="line"/>
			<point x="543" y="44" type="line"/>
		</contour>
		<contour>
			<point x="434" y="256" type="line" smooth="yes"/>
			<point x="434" y="169"/>
			<point x="434" y="83"/>
			<point x="431" y="0" type="curve"/>
			<point x="621" y="0" type="line"/>
			<point x="618" y="85"/>
			<point x="618" y="170"/>
			<point x="618" y="255" type="curve" smooth="yes"/>
			<point x="618" y="281" type="line" smooth="yes"/>
			<point x="618" y="367"/>
			<point x="618" y="453"/>
			<point x="621" y="536" type="curve"/>
			<point x="431" y="536" type="line"/>
			<point x="434" y="451"/>
			<point x="434" y="366"/>
			<point x="434" y="281" type="curve" smooth="yes"/>
		</contour>
		<contour>
			<point x="98" y="255" type="line" smooth="yes"/>
			<point x="98" y="169"/>
			<point x="98" y="83"/>
			<point x="95" y="0" type="curve"/>
			<point x="285" y="0" type="line"/>
			<point x="282" y="85"/>
			<point x="282" y="170"/>
			<point x="282" y="256" type="curve" smooth="yes"/>
			<point x="282" y="281" type="line" smooth="yes"/>
			<point x="282" y="367"/>
			<point x="282" y="453"/>
			<point x="285" y="536" type="curve"/>
			<point x="95" y="536" type="line"/>
			<point x="98" y="451"/>
			<point x="98" y="366"/>
			<point x="98" y="281" type="curve" smooth="yes"/>
		</contour>
		<contour>
			<point x="168" y="492" type="line"/>
			<point x="199" y="492" type="line"/>
			<point x="339" y="504" type="line"/>
			<point x="339" y="536" type="line"/>
			<point x="35" y="536" type="line"/>
			<point x="35" y="504" type="line"/>
		</contour>
		<contour>
			<point x="168" y="44" type="line"/>
			<point x="35" y="32" type="line"/>
			<point x="35" y="0" type="line"/>
			<point x="339" y="0" type="line"/>
			<point x="339" y="32" type="line"/>
			<point x="199" y="44" type="line"/>
		</contour>
		<contour>
			<point x="526" y="253" type="line"/>
			<point x="526" y="288" type="line"/>
			<point x="190" y="288" type="line"/>
			<point x="190" y="253" type="line"/>
		</contour>
	</outline>
	<anchor name="aboveUC" x="361" y="560"/>
	<anchor name="belowLC" x="361" y="-18"/>
</glyph>
<glyph name="Hard.sc" format="2">
	<advance width="717"/>
	<outline>
		<contour>
			<point x="25" y="373" type="line"/>
			<point x="87" y="373" type="line"/>
			<point x="143" y="536" type="line"/>
			<point x="58" y="502" type="line"/>
			<point x="358" y="502" type="line"/>
			<point x="358" y="536" type="line"/>
			<point x="28" y="536" type="line"/>
		</contour>
		<contour>
			<point x="158" y="0" type="line"/>
			<point x="314" y="0" type="line"/>
			<point x="314" y="44" type="line"/>
			<point x="298" y="44" type="line"/>
			<point x="158" y="32" type="line"/>
		</contour>
		<contour>
			<point x="219" y="0" type="curve"/>
			<point x="409" y="0" type="line"/>
			<point x="406" y="83"/>
			<point x="406" y="169"/>
			<point x="406" y="255" type="curve" smooth="yes"/>
			<point x="406" y="312" type="line" smooth="yes"/>
			<point x="406" y="366"/>
			<point x="406" y="452"/>
			<point x="409" y="536" type="curve"/>
			<point x="219" y="536" type="line"/>
			<point x="222" y="453"/>
			<point x="222" y="367"/>
			<point x="222" y="281" type="curve" smooth="yes"/>
			<point x="222" y="255" type="line" smooth="yes"/>
			<point x="222" y="170"/>
			<point x="222" y="84"/>
		</contour>
		<contour>
			<point x="314" y="0" type="line"/>
			<point x="411" y="0" type="line" smooth="yes"/>
			<point x="624" y="0"/>
			<point x="699" y="67"/>
			<point x="699" y="172" type="curve" smooth="yes"/>
			<point x="699" y="261"/>
			<point x="634" y="334"/>
			<point x="436" y="334" type="curve" smooth="yes"/>
			<point x="386" y="334"/>
			<point x="350" y="331"/>
			<point x="314" y="324" type="curve"/>
			<point x="314" y="290" type="line"/>
			<point x="346" y="298"/>
			<point x="378" y="300"/>
			<point x="413" y="300" type="curve" smooth="yes"/>
			<point x="483" y="300"/>
			<point x="520" y="249"/>
			<point x="520" y="165" type="curve" smooth="yes"/>
			<point x="520" y="79"/>
			<point x="479" y="34"/>
			<point x="415" y="34" type="curve" smooth="yes"/>
			<point x="314" y="34" type="line"/>
		</contour>
		<contour>
			<point x="314" y="492" type="line"/>
			<point x="338" y="492" type="line"/>
			<point x="479" y="504" type="line"/>
			<point x="479" y="536" type="line"/>
			<point x="314" y="536" type="line"/>
		</contour>
	</outline>
</glyph>
<glyph name="I.sc" format="1">
	<advance width="384"/>
	<outline>
		<contour>
			<point x="175" y="44" type="line"/>
			<point x="206" y="44" type="line"/>
			<point x="348" y="32" type="line"/>
			<point x="348" y="0" type="line"/>
			<point x="35" y="0" type="line"/>
			<point x="35" y="32" type="line"/>
		</contour>
		<contour>
			<point x="175" y="492" type="line"/>
			<point x="35" y="504" type="line"/>
			<point x="35" y="536" type="line"/>
			<point x="348" y="536" type="line"/>
			<point x="348" y="504" type="line"/>
			<point x="206" y="492" type="line"/>
		</contour>
		<contour>
			<point x="100" y="255" type="curve" smooth="yes"/>
			<point x="100" y="281" type="line" smooth="yes"/>
			<point x="100" y="366"/>
			<point x="100" y="451"/>
			<point x="97" y="536" type="curve"/>
			<point x="287" y="536" type="line"/>
			<point x="284" y="453"/>
			<point x="284" y="367"/>
			<point x="284" y="281" type="curve" smooth="yes"/>
			<point x="284" y="256" type="line" smooth="yes"/>
			<point x="284" y="170"/>
			<point x="284" y="85"/>
			<point x="287" y="0" type="curve"/>
			<point x="97" y="0" type="line"/>
			<point x="100" y="83"/>
			<point x="100" y="169"/>
		</contour>
		<contour>
			<point name="aboveUC" x="194" y="560" type="move"/>
		</contour>
		<contour>
			<point name="ogonek" x="241" y="0" type="move"/>
		</contour>
		<contour>
			<point name="belowLC" x="194" y="-18" type="move"/>
		</contour>
	</outline>
</glyph>
<glyph name="Izhitsa.sc" format="1">
	<advance width="633"/>
	<outline>
		<contour>
			<point x="6" y="504" type="line"/>
			<point x="146" y="492" type="line"/>
			<point x="184" y="492" type="line"/>
			<point x="324" y="509" type="line"/>
			<point x="324" y="536" type="line"/>
			<point x="6" y="536" type="line"/>
		</contour>
		<contour>
			<point x="243" y="0" type="line"/>
			<point x="355" y="0" type="line"/>
			<point x="449" y="300" type="line" smooth="yes"/>
			<point x="471" y="367"/>
			<point x="484" y="403"/>
			<point x="514" y="463" type="curve"/>
			<point x="469" y="437" type="line"/>
			<point x="503" y="424"/>
			<point x="535" y="412"/>
			<point x="562" y="412" type="curve" smooth="yes"/>
			<point x="624" y="412"/>
			<point x="652" y="438"/>
			<point x="658" y="476" type="curve"/>
			<point x="654" y="520"/>
			<point x="623" y="553"/>
			<point x="567" y="553" type="curve" smooth="yes"/>
			<point x="508" y="553"/>
			<point x="475" y="519"/>
			<point x="441" y="404" type="curve" smooth="yes"/>
			<point x="352" y="102" type="line"/>
			<point x="373" y="141" type="line"/>
			<point x="230" y="536" type="line"/>
			<point x="32" y="536" type="line"/>
		</contour>
	</outline>
</glyph>
<glyph name="K.sups" format="2">
	<advance width="477"/>
	<outline>
		<contour>
			<point x="69" y="406" type="line"/>
			<point x="194" y="406" type="line"/>
			<point x="194" y="824" type="line"/>
			<point x="69" y="824" type="line"/>
		</contour>
		<contour>
			<point x="123" y="438" type="line"/>
			<point x="24" y="428" type="line"/>
			<point x="24" y="406" type="line"/>
			<point x="231" y="406" type="line"/>
			<point x="231" y="428" type="line"/>
			<point x="144" y="438" type="line"/>
		</contour>
		<contour>
			<point x="123" y="792" type="line"/>
			<point x="144" y="792" type="line"/>
			<point x="240" y="802" type="line"/>
			<point x="240" y="824" type="line"/>
			<point x="24" y="824" type="line"/>
			<point x="24" y="802" type="line"/>
		</contour>
		<contour>
			<point x="354" y="792" type="line"/>
			<point x="375" y="792" type="line"/>
			<point x="445" y="802" type="line"/>
			<point x="445" y="824" type="line"/>
			<point x="291" y="824" type="line"/>
			<point x="291" y="802" type="line"/>
		</contour>
		<contour>
			<point x="213" y="607" type="line"/>
			<point x="320" y="406" type="line"/>
			<point x="458" y="406" type="line"/>
			<point x="291" y="710" type="line"/>
		</contour>
		<contour>
			<point x="143" y="514" type="line"/>
			<point x="408" y="824" type="line"/>
			<point x="368" y="824" type="line"/>
			<point x="143" y="541" type="line"/>
		</contour>
		<contour>
			<point x="275" y="406" type="line"/>
			<point x="478" y="406" type="line"/>
			<point x="478" y="428" type="line"/>
			<point x="383" y="438" type="line"/>
			<point x="367" y="438" type="line"/>
			<point x="275" y="428" type="line"/>
		</contour>
	</outline>
</glyph>
<glyph name="Kadescender.sc" format="2">
	<advance width="694"/>
	<outline>
		<contour>
			<point x="525" y="0" type="line"/>
			<point x="641" y="0" type="line"/>
			<point x="568" y="34" type="line"/>
			<point x="622" y="-164" type="line"/>
			<point x="678" y="-164" type="line"/>
			<point x="683" y="31" type="line"/>
			<point x="525" y="42" type="line"/>
		</contour>
		<component base="Ka.sc"/>
	</outline>
</glyph>
<glyph name="Lslash.sc" format="2">
	<advance width="545"/>
	<outline>
		<contour>
			<point x="392" y="375" type="line"/>
			<point x="231" y="302" type="line"/>
			<point x="231" y="245" type="line"/>
			<point x="392" y="319" type="line"/>
		</contour>
		<contour>
			<point x="193" y="289" type="line"/>
			<point x="44" y="221" type="line"/>
			<point x="44" y="164" type="line"/>
			<point x="193" y="232" type="line"/>
		</contour>
		<component base="L.sc"/>
	</outline>
</glyph>
<glyph name="M.sc" format="2">
	<advance width="835"/>
	<outline>
		<contour>
			<point x="10" y="0" type="line"/>
			<point x="240" y="0" type="line"/>
			<point x="240" y="32" type="line"/>
			<point x="141" y="44" type="line"/>
			<point x="117" y="44" type="line"/>
			<point x="10" y="32" type="line"/>
		</contour>
		<contour>
			<point x="23" y="504" type="line"/>
			<point x="125" y="492" type="line"/>
			<point x="141" y="492" type="line"/>
			<point x="141" y="536" type="line"/>
			<point x="23" y="536" type="line"/>
		</contour>
		<contour>
			<point x="102" y="0" type="line"/>
			<point x="153" y="0" type="line"/>
			<point x="153" y="224" type="line" smooth="yes"/>
			<point x="153" y="326"/>
			<point x="151" y="430"/>
			<point x="147" y="536" type="curve"/>
			<point x="106" y="536" type="line"/>
		</contour>
		<contour>
			<point x="325" y="0" type="line"/>
			<point x="385" y="0" type="line"/>
			<point x="592" y="536" type="line"/>
			<point x="549" y="536" type="line"/>
			<point x="411" y="176" type="line"/>
			<point x="437" y="176" type="line"/>
			<point x="294" y="536" type="line"/>
			<point x="111" y="536" type="line"/>
		</contour>
		<contour>
			<point x="488" y="0" type="line"/>
			<point x="800" y="0" type="line"/>
			<point x="800" y="32" type="line"/>
			<point x="658" y="44" type="line"/>
			<point x="624" y="44" type="line"/>
			<point x="488" y="32" type="line"/>
		</contour>
		<contour>
			<point x="549" y="0" type="curve"/>
			<point x="739" y="0" type="line"/>
			<point x="736" y="83"/>
			<point x="736" y="169"/>
			<point x="736" y="255" type="curve" smooth="yes"/>
			<point x="736" y="281" type="line" smooth="yes"/>
			<point x="736" y="366"/>
			<point x="736" y="451"/>
			<point x="739" y="536" type="curve"/>
			<point x="557" y="536" type="line"/>
			<point x="552" y="231" type="line" smooth="yes"/>
			<point x="551" y="170"/>
			<point x="552" y="85"/>
		</contour>
		<contour>
			<point x="644" y="492" type="line"/>
			<point x="661" y="492" type="line"/>
			<point x="799" y="504" type="line"/>
			<point x="799" y="536" type="line"/>
			<point x="644" y="536" type="line"/>
		</contour>
	</outline>
	<anchor name="aboveUC" x="412" y="560"/>
	<anchor name="belowLC" x="368" y="-18"/>
</glyph>
<glyph name="Nje.sc" format="2">
	<advance width="911"/>
	<outline>
		<contour>
			<point x="421" y="255" type="line" smooth="yes"/>
			<point x="421" y="170"/>
			<point x="421" y="84"/>
			<point x="418" y="0" type="curve"/>
			<point x="608" y="0" type="line"/>
			<point x="605" y="83"/>
			<point x="605" y="169"/>
			<point x="605" y="255" type="curve" smooth="yes"/>
			<point x="605" y="302" type="line" smooth="yes"/>
			<point x="605" y="366"/>
			<point x="605" y="452"/>
			<point x="608" y="536" type="curve"/>
			<point x="418" y="536" type="line"/>
			<point x="421" y="453"/>
			<point x="421" y="367"/>
			<point x="421" y="293" type="curve" smooth="yes"/>
		</contour>
		<contour>
			<point x="98" y="255" type="line" smooth="yes"/>
			<point x="98" y="169"/>
			<point x="98" y="83"/>
			<point x="95" y="0" type="curve"/>
			<point x="285" y="0" type="line"/>
			<point x="282" y="85"/>
			<point x="282" y="170"/>
			<point x="282" y="256" type="curve" smooth="yes"/>
			<point x="282" y="293" type="line" smooth="yes"/>
			<point x="282" y="367"/>
			<point x="282" y="453"/>
			<point x="285" y="536" type="curve"/>
			<point x="95" y="536" type="line"/>
			<point x="98" y="451"/>
			<point x="98" y="366"/>
			<point x="98" y="281" type="curve" smooth="yes"/>
		</contour>
		<contour>
			<point x="168" y="492" type="line"/>
			<point x="199" y="492" type="line"/>
			<point x="335" y="504" type="line"/>
			<point x="335" y="536" type="line"/>
			<point x="35" y="536" type="line"/>
			<point x="35" y="504" type="line"/>
		</contour>
		<contour>
			<point x="168" y="44" type="line"/>
			<point x="35" y="32" type="line"/>
			<point x="35" y="0" type="line"/>
			<point x="335" y="0" type="line"/>
			<point x="335" y="32" type="line"/>
			<point x="199" y="44" type="line"/>
		</contour>
		<contour>
			<point x="513" y="285" type="line"/>
			<point x="513" y="319" type="line"/>
			<point x="190" y="319" type="line"/>
			<point x="190" y="285" type="line"/>
		</contour>
		<contour>
			<point x="368" y="0" type="line"/>
			<point x="519" y="0" type="line"/>
			<point x="519" y="44" type="line"/>
			<point x="502" y="44" type="line"/>
			<point x="368" y="32" type="line"/>
		</contour>
		<contour>
			<point x="368" y="504" type="line"/>
			<point x="488" y="492" type="line"/>
			<point x="530" y="492" type="line"/>
			<point x="670" y="504" type="line"/>
			<point x="670" y="536" type="line"/>
			<point x="368" y="536" type="line"/>
		</contour>
		<contour>
			<point x="519" y="0" type="line"/>
			<point x="610" y="0" type="line" smooth="yes"/>
			<point x="820" y="0"/>
			<point x="893" y="67"/>
			<point x="893" y="171" type="curve" smooth="yes"/>
			<point x="893" y="256"/>
			<point x="831" y="326"/>
			<point x="640" y="326" type="curve" smooth="yes"/>
			<point x="588" y="326"/>
			<point x="550" y="323"/>
			<point x="514" y="319" type="curve"/>
			<point x="514" y="285" type="line"/>
			<point x="546" y="290"/>
			<point x="580" y="292"/>
			<point x="617" y="292" type="curve" smooth="yes"/>
			<point x="680" y="292"/>
			<point x="715" y="244"/>
			<point x="715" y="165" type="curve" smooth="yes"/>
			<point x="715" y="78"/>
			<point x="675" y="34"/>
			<point x="614" y="34" type="curve" smooth="yes"/>
			<point x="519" y="34" type="line"/>
		</contour>
	</outline>
</glyph>
<glyph name="O.sc" format="2">
	<advance width="665"/>
	<outline>
		<contour>
			<point x="226" y="268" type="curve" smooth="yes"/>
			<point x="226" y="418"/>
			<point x="255" y="519"/>
			<point x="332" y="519" type="curve" smooth="yes"/>
			<point x="410" y="519"/>
			<point x="439" y="418"/>
			<point x="439" y="268" type="curve" smooth="yes"/>
			<point x="439" y="116"/>
			<point x="410" y="17"/>
			<point x="332" y="17" type="curve" smooth="yes"/>
			<point x="255" y="17"/>
			<point x="226" y="116"/>
		</contour>
		<contour>
			<point x="332" y="553" type="curve" smooth="yes"/>
			<point x="177" y="553"/>
			<point x="35" y="462"/>
			<point x="35" y="268" type="curve" smooth="yes"/>
			<point x="35" y="75"/>
			<point x="176" y="-17"/>
			<point x="332" y="-17" type="curve" smooth="yes"/>
			<point x="488" y="-17"/>
			<point x="629" y="74"/>
			<point x="629" y="268" type="curve" smooth="yes"/>
			<point x="629" y="461"/>
			<point x="487" y="553"/>
		</contour>
	</outline>
	<anchor name="aboveUC" x="335" y="560"/>
	<anchor name="hornLC" x="466" y="549"/>
	<anchor name="ogonek" x="418" y="0"/>
	<anchor name="belowLC" x="335" y="-18"/>
</glyph>
<glyph name="O.sups" format="1">
	<advance width="474"/>
	<outline>
		<contour>
			<point x="155" y="615" type="curve" smooth="yes"/>
			<point x="155" y="735"/>
			<point x="178" y="813"/>
			<point x="237" y="813" type="curve" smooth="yes"/>
			<point x="297" y="813"/>
			<point x="319" y="735"/>
			<point x="319" y="615" type="curve" smooth="yes"/>
			<point x="319" y="494"/>
			<point x="297" y="417"/>
			<point x="237" y="417" type="curve" smooth="yes"/>
			<point x="178" y="417"/>
			<point x="155" y="494"/>
		</contour>
		<contour>
			<point x="237" y="837" type="curve" smooth="yes"/>
			<point x="126" y="837"/>
			<point x="24" y="767"/>
			<point x="24" y="615" type="curve" smooth="yes"/>
			<point x="24" y="464"/>
			<point x="125" y="393"/>
			<point x="237" y="393" type="curve" smooth="yes"/>
			<point x="349" y="393"/>
			<point x="450" y="463"/>
			<point x="450" y="615" type="curve" smooth="yes"/>
			<point x="450" y="766"/>
			<point x="348" y="837"/>
		</contour>
	</outline>
</glyph>
<glyph name="Omega.sc" format="2">
	<advance width="715"/>
	<outline>
		<contour>
			<point x="86" y="165" type="line"/>
			<point x="42" y="165" type="line"/>
			<point x="44" y="0" type="line"/>
			<point x="326" y="0" type="line"/>
			<point x="326" y="50" type="line"/>
			<point x="286" y="108" type="line"/>
			<point x="65" y="108" type="line"/>
			<point x="134" y="0" type="line"/>
		</contour>
		<contour>
			<point x="629" y="165" type="line"/>
			<point x="582" y="0" type="line"/>
			<point x="650" y="108" type="line"/>
			<point x="429" y="108" type="line"/>
			<point x="390" y="50" type="line"/>
			<point x="390" y="0" type="line"/>
			<point x="671" y="0" type="line"/>
			<point x="674" y="165" type="line"/>
		</contour>
		<contour>
			<point x="358" y="517" type="curve" smooth="yes"/>
			<point x="455" y="517"/>
			<point x="471" y="417"/>
			<point x="471" y="335" type="curve" smooth="yes"/>
			<point x="471" y="244"/>
			<point x="440" y="149"/>
			<point x="390" y="84" type="curve"/>
			<point x="390" y="0" type="line"/>
			<point x="455" y="0" type="line"/>
			<point x="455" y="110" type="line"/>
			<point x="548" y="147"/>
			<point x="652" y="227"/>
			<point x="652" y="336" type="curve" smooth="yes"/>
			<point x="652" y="436"/>
			<point x="573" y="553"/>
			<point x="358" y="553" type="curve" smooth="yes"/>
			<point x="143" y="553"/>
			<point x="63" y="436"/>
			<point x="63" y="339" type="curve" smooth="yes"/>
			<point x="63" y="227"/>
			<point x="168" y="147"/>
			<point x="260" y="110" type="curve"/>
			<point x="260" y="0" type="line"/>
			<point x="326" y="0" type="line"/>
			<point x="326" y="84" type="line"/>
			<point x="276" y="149"/>
			<point x="245" y="244"/>
			<point x="245" y="335" type="curve" smooth="yes"/>
			<point x="245" y="417"/>
			<point x="261" y="517"/>
		</contour>
	</outline>
</glyph>
<glyph name="Oslash.sc" format="2">
	<advance width="665"/>
	<outline>
		<contour>
			<point x="610" y="540" type="line"/>
			<point x="572" y="569" type="line"/>
			<point x="56" y="-4" type="line"/>
			<point x="95" y="-33" type="line"/>
		</contour>
		<component base="O.sc"/>
	</outline>
	<anchor name="aboveUC" x="335" y="560"/>
</glyph>
<glyph name="Phi.sc" format="2">
	<advance width="797"/>
	<outline>
		<contour>
			<point x="64" y="277" type="curve" smooth="yes"/>
			<point x="64" y="162"/>
			<point x="160" y="98"/>
			<point x="334" y="98" type="curve" smooth="yes"/>
			<point x="399" y="98" type="line"/>
			<point x="399" y="133" type="line"/>
			<point x="333" y="133" type="line" smooth="yes"/>
			<point x="269" y="133"/>
			<point x="224" y="188"/>
			<point x="224" y="271" type="curve" smooth="yes"/>
			<point x="224" y="365"/>
			<point x="259" y="418"/>
			<point x="332" y="418" type="curve" smooth="yes"/>
			<point x="399" y="418" type="line"/>
			<point x="399" y="452" type="line"/>
			<point x="328" y="452" type="line" smooth="yes"/>
			<point x="148" y="452"/>
			<point x="64" y="378"/>
		</contour>
		<contour>
			<point x="255" y="512" type="line"/>
			<point x="378" y="500" type="line"/>
			<point x="418" y="500" type="line"/>
			<point x="543" y="512" type="line"/>
			<point x="543" y="544" type="line"/>
			<point x="255" y="544" type="line"/>
		</contour>
		<contour>
			<point x="255" y="0" type="line"/>
			<point x="543" y="0" type="line"/>
			<point x="543" y="32" type="line"/>
			<point x="432" y="44" type="line"/>
			<point x="385" y="44" type="line"/>
			<point x="255" y="32" type="line"/>
		</contour>
		<contour>
			<point x="316" y="0" type="curve"/>
			<point x="482" y="0" type="line"/>
			<point x="479" y="85"/>
			<point x="480" y="170"/>
			<point x="480" y="256" type="curve" smooth="yes"/>
			<point x="480" y="281" type="line" smooth="yes"/>
			<point x="480" y="370"/>
			<point x="479" y="459"/>
			<point x="482" y="544" type="curve"/>
			<point x="316" y="544" type="line"/>
			<point x="318" y="457"/>
			<point x="318" y="368"/>
			<point x="318" y="281" type="curve" smooth="yes"/>
			<point x="318" y="255" type="line" smooth="yes"/>
			<point x="318" y="169"/>
			<point x="318" y="83"/>
		</contour>
		<contour>
			<point x="399" y="98" type="line"/>
			<point x="464" y="98" type="line" smooth="yes"/>
			<point x="637" y="98"/>
			<point x="733" y="162"/>
			<point x="733" y="277" type="curve" smooth="yes"/>
			<point x="733" y="378"/>
			<point x="649" y="452"/>
			<point x="469" y="452" type="curve" smooth="yes"/>
			<point x="399" y="452" type="line"/>
			<point x="399" y="418" type="line"/>
			<point x="465" y="418" type="line" smooth="yes"/>
			<point x="538" y="418"/>
			<point x="573" y="365"/>
			<point x="573" y="271" type="curve" smooth="yes"/>
			<point x="573" y="188"/>
			<point x="528" y="133"/>
			<point x="464" y="133" type="curve" smooth="yes"/>
			<point x="399" y="133" type="line"/>
		</contour>
	</outline>
</glyph>
<glyph name="Pi.sc" format="1">
	<advance width="712"/>
	<outline>
		<contour>
			<point x="511" y="44" type="line"/>
			<point x="373" y="32" type="line"/>
			<point x="373" y="0" type="line"/>
			<point x="677" y="0" type="line"/>
			<point x="677" y="32" type="line"/>
			<point x="539" y="44" type="line"/>
		</contour>
		<contour>
			<point x="430" y="256" type="line" smooth="yes"/>
			<point x="430" y="169"/>
			<point x="430" y="83"/>
			<point x="428" y="0" type="curve"/>
			<point x="618" y="0" type="line"/>
			<point x="615" y="85"/>
			<point x="615" y="170"/>
			<point x="615" y="255" type="curve" smooth="yes"/>
			<point x="615" y="281" type="line" smooth="yes"/>
			<point x="615" y="367"/>
			<point x="615" y="453"/>
			<point x="618" y="536" type="curve"/>
			<point x="428" y="536" type="line"/>
			<point x="430" y="451"/>
			<point x="430" y="366"/>
			<point x="430" y="281" type="curve" smooth="yes"/>
		</contour>
		<contour>
			<point x="98" y="255" type="line" smooth="yes"/>
			<point x="98" y="169"/>
			<point x="98" y="83"/>
			<point x="95" y="0" type="curve"/>
			<point x="285" y="0" type="line"/>
			<point x="282" y="85"/>
			<point x="282" y="170"/>
			<point x="282" y="256" type="curve" smooth="yes"/>
			<point x="282" y="281" type="line" smooth="yes"/>
			<point x="282" y="367"/>
			<point x="282" y="453"/>
			<point x="285" y="536" type="curve"/>
			<point x="95" y="536" type="line"/>
			<point x="98" y="451"/>
			<point x="98" y="366"/>
			<point x="98" y="281" type="curve" smooth="yes"/>
		</contour>
		<contour>
			<point x="168" y="44" type="line"/>
			<point x="35" y="32" type="line"/>
			<point x="35" y="0" type="line"/>
			<point x="339" y="0" type="line"/>
			<point x="339" y="32" type="line"/>
			<point x="199" y="44" type="line"/>
		</contour>
		<contour>
			<point x="521" y="497" type="line"/>
			<point x="521" y="536" type="line"/>
			<point x="192" y="536" type="line"/>
			<point x="192" y="497" type="line"/>
		</contour>
		<contour>
			<point x="521" y="492" type="line"/>
			<point x="537" y="492" type="line"/>
			<point x="677" y="504" type="line"/>
			<point x="677" y="536" type="line"/>
			<point x="521" y="536" type="line"/>
		</contour>
		<contour>
			<point x="175" y="492" type="line"/>
			<point x="192" y="492" type="line"/>
			<point x="192" y="536" type="line"/>
			<point x="35" y="536" type="line"/>
			<point x="35" y="504" type="line"/>
		</contour>
	</outline>
</glyph>
<glyph name="R.sups" format="1">
	<advance width="469"/>
	<outline>
		<contour>
			<point x="123" y="438" type="line"/>
			<point x="24" y="428" type="line"/>
			<point x="24" y="406" type="line"/>
			<point x="245" y="406" type="line"/>
			<point x="245" y="428" type="line"/>
			<point x="146" y="438" type="line"/>
		</contour>
		<contour>
			<point x="69" y="406" type="line"/>
			<point x="197" y="406" type="line"/>
			<point x="197" y="824" type="line"/>
			<point x="69" y="824" type="line"/>
		</contour>
		<contour>
			<point x="123" y="792" type="line"/>
			<point x="134" y="792" type="line"/>
			<point x="134" y="824" type="line"/>
			<point x="24" y="824" type="line"/>
			<point x="24" y="802" type="line"/>
		</contour>
		<contour>
			<point x="136" y="605" type="line"/>
			<point x="212" y="605" type="line" smooth="yes"/>
			<point x="252" y="605"/>
			<point x="265" y="578"/>
			<point x="271" y="534" type="curve" smooth="yes"/>
			<point x="279" y="474" type="line" smooth="yes"/>
			<point x="285" y="414"/>
			<point x="323" y="396"/>
			<point x="384" y="396" type="curve" smooth="yes"/>
			<point x="417" y="396"/>
			<point x="433" y="398"/>
			<point x="464" y="406" type="curve"/>
			<point x="464" y="428" type="line"/>
			<point x="355" y="435" type="line"/>
			<point x="419" y="407" type="line"/>
			<point x="405" y="509" type="line" smooth="yes"/>
			<point x="396" y="583"/>
			<point x="367" y="622"/>
			<point x="237" y="625" type="curve"/>
			<point x="237" y="618" type="line"/>
			<point x="374" y="624"/>
			<point x="412" y="674"/>
			<point x="412" y="720" type="curve" smooth="yes"/>
			<point x="412" y="785"/>
			<point x="354" y="824"/>
			<point x="249" y="824" type="curve" smooth="yes"/>
			<point x="134" y="824" type="line"/>
			<point x="134" y="800" type="line"/>
			<point x="214" y="800" type="line" smooth="yes"/>
			<point x="265" y="800"/>
			<point x="293" y="772"/>
			<point x="293" y="718" type="curve" smooth="yes"/>
			<point x="293" y="670"/>
			<point x="277" y="628"/>
			<point x="213" y="628" type="curve" smooth="yes"/>
			<point x="136" y="628" type="line"/>
		</contour>
	</outline>
</glyph>
<glyph name="S.sc" format="1">
	<advance width="533"/>
	<outline>
		<contour>
			<point x="236" y="21" type="curve" smooth="yes"/>
			<point x="184" y="21"/>
			<point x="150" y="30"/>
			<point x="94" y="60" type="curve"/>
			<point x="107" y="24" type="line"/>
			<point x="178" y="2" type="line"/>
			<point x="122" y="159" type="line"/>
			<point x="56" y="159" type="line"/>
			<point x="50" y="26" type="line"/>
			<point x="106" y="-4"/>
			<point x="184" y="-17"/>
			<point x="251" y="-17" type="curve" smooth="yes"/>
			<point x="421" y="-17"/>
			<point x="501" y="56"/>
			<point x="501" y="153" type="curve" smooth="yes"/>
			<point x="501" y="239"/>
			<point x="453" y="283"/>
			<point x="337" y="333" type="curve" smooth="yes"/>
			<point x="290" y="353" type="line" smooth="yes"/>
			<point x="240" y="374"/>
			<point x="215" y="397"/>
			<point x="215" y="441" type="curve" smooth="yes"/>
			<point x="215" y="485"/>
			<point x="254" y="515"/>
			<point x="313" y="515" type="curve" smooth="yes"/>
			<point x="355" y="515"/>
			<point x="379" y="502"/>
			<point x="430" y="468" type="curve"/>
			<point x="420" y="506" type="line"/>
			<point x="342" y="531" type="line"/>
			<point x="395" y="386" type="line"/>
			<point x="459" y="386" type="line"/>
			<point x="468" y="511" type="line"/>
			<point x="422" y="537"/>
			<point x="356" y="553"/>
			<point x="292" y="553" type="curve" smooth="yes"/>
			<point x="143" y="553"/>
			<point x="53" y="492"/>
			<point x="53" y="391" type="curve" smooth="yes"/>
			<point x="53" y="297"/>
			<point x="115" y="248"/>
			<point x="230" y="199" type="curve" smooth="yes"/>
			<point x="270" y="182" type="line" smooth="yes"/>
			<point x="317" y="162"/>
			<point x="335" y="140"/>
			<point x="335" y="98" type="curve" smooth="yes"/>
			<point x="335" y="54"/>
			<point x="304" y="21"/>
		</contour>
		<contour>
			<point name="aboveUC" x="284" y="560" type="move"/>
		</contour>
		<contour>
			<point name="baseLC" x="254" y="0" type="move"/>
		</contour>
		<contour>
			<point name="belowLC" x="257" y="-18" type="move"/>
		</contour>
	</outline>
</glyph>
<glyph name="Shcha.sc" format="1">
	<advance width="1021"/>
	<outline>
		<contour>
			<point x="36" y="0" type="line"/>
			<point x="190" y="0" type="line"/>
			<point x="190" y="44" type="line"/>
			<point x="175" y="44" type="line"/>
			<point x="36" y="32" type="line"/>
		</contour>
		<contour>
			<point x="36" y="504" type="line"/>
			<point x="168" y="492" type="line"/>
			<point x="199" y="492" type="line"/>
			<point x="335" y="504" type="line"/>
			<point x="335" y="536" type="line"/>
			<point x="36" y="536" type="line"/>
		</contour>
		<contour>
			<point x="95" y="0" type="curve"/>
			<point x="285" y="0" type="line"/>
			<point x="282" y="83"/>
			<point x="282" y="169"/>
			<point x="282" y="255" type="curve" smooth="yes"/>
			<point x="282" y="280" type="line" smooth="yes"/>
			<point x="282" y="366"/>
			<point x="282" y="451"/>
			<point x="285" y="536" type="curve"/>
			<point x="95" y="536" type="line"/>
			<point x="98" y="453"/>
			<point x="98" y="367"/>
			<point x="98" y="281" type="curve" smooth="yes"/>
			<point x="98" y="255" type="line" smooth="yes"/>
			<point x="98" y="170"/>
			<point x="98" y="85"/>
		</contour>
		<contour>
			<point x="190" y="0" type="line"/>
			<point x="956" y="0" type="line"/>
			<point x="883" y="34" type="line"/>
			<point x="926" y="-164" type="line"/>
			<point x="982" y="-164" type="line"/>
			<point x="999" y="34" type="line"/>
			<point x="190" y="34" type="line"/>
		</contour>
		<contour>
			<point x="360" y="504" type="line"/>
			<point x="493" y="492" type="line"/>
			<point x="521" y="492" type="line"/>
			<point x="646" y="504" type="line"/>
			<point x="646" y="536" type="line"/>
			<point x="360" y="536" type="line"/>
		</contour>
		<contour>
			<point x="410" y="0" type="curve"/>
			<point x="596" y="0" type="line"/>
			<point x="593" y="83"/>
			<point x="593" y="169"/>
			<point x="593" y="255" type="curve" smooth="yes"/>
			<point x="593" y="281" type="line" smooth="yes"/>
			<point x="593" y="366"/>
			<point x="593" y="451"/>
			<point x="596" y="536" type="curve"/>
			<point x="410" y="536" type="line"/>
			<point x="413" y="453"/>
			<point x="413" y="367"/>
			<point x="413" y="280" type="curve" smooth="yes"/>
			<point x="413" y="255" type="line" smooth="yes"/>
			<point x="413" y="170"/>
			<point x="413" y="85"/>
		</contour>
		<contour>
			<point x="671" y="504" type="line"/>
			<point x="807" y="492" type="line"/>
			<point x="838" y="492" type="line"/>
			<point x="971" y="504" type="line"/>
			<point x="971" y="536" type="line"/>
			<point x="671" y="536" type="line"/>
		</contour>
		<contour>
			<point x="721" y="0" type="curve"/>
			<point x="911" y="0" type="line"/>
			<point x="909" y="84"/>
			<point x="909" y="170"/>
			<point x="909" y="255" type="curve" smooth="yes"/>
			<point x="909" y="281" type="line" smooth="yes"/>
			<point x="909" y="367"/>
			<point x="909" y="453"/>
			<point x="911" y="536" type="curve"/>
			<point x="721" y="536" type="line"/>
			<point x="724" y="452"/>
			<point x="724" y="366"/>
			<point x="724" y="280" type="curve" smooth="yes"/>
			<point x="724" y="255" type="line" smooth="yes"/>
			<point x="724" y="169"/>
			<point x="724" y="83"/>
		</contour>
	</outline>
</glyph>
<glyph name="Tshe.sc" format="1">
	<advance width="760"/>
	<outline>
		<contour>
			<point x="25" y="373" type="line"/>
			<point x="89" y="373" type="line"/>
			<point x="143" y="536" type="line"/>
			<point x="58" y="502" type="line"/>
			<point x="562" y="502" type="line"/>
			<point x="477" y="536" type="line"/>
			<point x="531" y="383" type="line"/>
			<point x="594" y="383" type="line"/>
			<point x="593" y="536" type="line"/>
			<point x="27" y="536" type="line"/>
		</contour>
		<contour>
			<point x="140" y="0" type="line"/>
			<point x="464" y="0" type="line"/>
			<point x="464" y="32" type="line"/>
			<point x="331" y="44" type="line"/>
			<point x="279" y="44" type="line"/>
			<point x="140" y="32" type="line"/>
		</contour>
		<contour>
			<point x="210" y="0" type="curve"/>
			<point x="400" y="0" type="line"/>
			<point x="397" y="85"/>
			<point x="397" y="170"/>
			<point x="397" y="256" type="curve" smooth="yes"/>
			<point x="397" y="281" type="line" smooth="yes"/>
			<point x="397" y="367"/>
			<point x="397" y="453"/>
			<point x="400" y="536" type="curve"/>
			<point x="210" y="536" type="line"/>
			<point x="213" y="451"/>
			<point x="213" y="366"/>
			<point x="213" y="281" type="curve" smooth="yes"/>
			<point x="213" y="255" type="line" smooth="yes"/>
			<point x="213" y="169"/>
			<point x="213" y="83"/>
		</contour>
		<contour>
			<point x="520" y="0" type="curve"/>
			<point x="699" y="0" type="line"/>
			<point x="699" y="146" type="line" smooth="yes"/>
			<point x="699" y="283"/>
			<point x="648" y="334"/>
			<point x="485" y="334" type="curve" smooth="yes"/>
			<point x="437" y="334"/>
			<point x="345" y="333"/>
			<point x="305" y="324" type="curve"/>
			<point x="305" y="291" type="line"/>
			<point x="341" y="299"/>
			<point x="383" y="300"/>
			<point x="418" y="300" type="curve" smooth="yes"/>
			<point x="506" y="300"/>
			<point x="522" y="252"/>
			<point x="522" y="165" type="curve" smooth="yes"/>
			<point x="522" y="105"/>
			<point x="521" y="57"/>
		</contour>
		<contour>
			<point x="602" y="0" type="line"/>
			<point x="738" y="0" type="line"/>
			<point x="738" y="32" type="line"/>
			<point x="631" y="44" type="line"/>
			<point x="602" y="44" type="line"/>
		</contour>
	</outline>
</glyph>
<glyph name="U.sc" format="2">
	<advance width="689"/>
	<outline>
		<contour>
			<point x="576" y="493" type="line"/>
			<point x="668" y="504" type="line"/>
			<point x="668" y="536" type="line"/>
			<point x="449" y="536" type="line"/>
			<point x="449" y="504" type="line"/>
			<point x="546" y="493" type="line"/>
		</contour>
		<contour>
			<point x="176" y="492" type="line"/>
			<point x="206" y="492" type="line"/>
			<point x="350" y="504" type="line"/>
			<point x="350" y="536" type="line"/>
			<point x="32" y="536" type="line"/>
			<point x="32" y="504" type="line"/>
		</contour>
		<contour>
			<point x="280" y="230" type="curve" smooth="yes"/>
			<point x="280" y="293" type="line" smooth="yes"/>
			<point x="280" y="374"/>
			<point x="280" y="456"/>
			<point x="283" y="536" type="curve"/>
			<point x="93" y="536" type="line"/>
			<point x="96" y="455"/>
			<point x="96" y="372"/>
			<point x="96" y="293" type="curve" smooth="yes"/>
			<point x="96" y="216" type="line" smooth="yes"/>
			<point x="96" y="41"/>
			<point x="201" y="-17"/>
			<point x="345" y="-17" type="curve" smooth="yes"/>
			<point x="496" y="-17"/>
			<point x="579" y="61"/>
			<point x="582" y="236" type="curve" smooth="yes"/>
			<point x="586" y="536" type="line"/>
			<point x="533" y="536" type="line"/>
			<point x="537" y="227" type="line" smooth="yes"/>
			<point x="539" y="108"/>
			<point x="486" y="58"/>
			<point x="409" y="58" type="curve" smooth="yes"/>
			<point x="320" y="58"/>
			<point x="280" y="106"/>
		</contour>
	</outline>
	<anchor name="aboveUC" x="399" y="560"/>
	<anchor name="hornLC" x="579" y="559"/>
	<anchor name="ogonek" x="431" y="0"/>
	<anchor name="belowLC" x="367" y="-18"/>
</glyph>
<glyph name="U.sups" format="1">
	<advance width="495"/>
	<outline>
		<contour>
			<point x="21" y="802" type="line"/>
			<point x="124" y="792" type="line"/>
			<point x="144" y="792" type="line"/>
			<point x="247" y="802" type="line"/>
			<point x="247" y="824" type="line"/>
			<point x="21" y="824" type="line"/>
		</contour>
		<contour>
			<point x="248" y="393" type="curve" smooth="yes"/>
			<point x="354" y="393"/>
			<point x="414" y="454"/>
			<point x="416" y="591" type="curve" smooth="yes"/>
			<point x="419" y="824" type="line"/>
			<point x="383" y="824" type="line"/>
			<point x="386" y="583" type="line" smooth="yes"/>
			<point x="387" y="490"/>
			<point x="349" y="451"/>
			<point x="290" y="451" type="curve" smooth="yes"/>
			<point x="225" y="451"/>
			<point x="197" y="488"/>
			<point x="197" y="586" type="curve" smooth="yes"/>
			<point x="197" y="824" type="line"/>
			<point x="67" y="824" type="line"/>
			<point x="67" y="577" type="line" smooth="yes"/>
			<point x="67" y="437"/>
			<point x="144" y="393"/>
		</contour>
		<contour>
			<point x="321" y="802" type="line"/>
			<point x="391" y="792" type="line"/>
			<point x="412" y="792" type="line"/>
			<point x="479" y="802" type="line"/>
			<point x="479" y="824" type="line"/>
			<point x="321" y="824" type="line"/>
		</contour>
	</outline>
</glyph>
